<svg xmlns="http://www.w3.org/2000/svg" xmlns:xlink="http://www.w3.org/1999/xlink" width="500" zoomAndPan="magnify" viewBox="0 0 375.12 383.03998" height="500" preserveAspectRatio="xMidYMid meet" version="1.0"><defs><clipPath id="2b255d8a17"><path d="M 28 29 L 346 29 L 346 345.617188 L 28 345.617188 Z M 28 29 " clip-rule="nonzero"/></clipPath></defs><g clip-path="url(#2b255d8a17)"><path fill="#000000" d="M 339.445312 335.242188 L 289.769531 334.863281 C 288.242188 311.984375 272.011719 293.914062 252.226562 293.914062 C 251.460938 293.914062 250.753906 294.078125 249.988281 294.132812 C 254.25 287.746094 258.292969 281.359375 262.007812 275.023438 L 300.589844 273.550781 C 305.945312 273.386719 310.867188 270.601562 313.761719 266.070312 L 344.039062 219.335938 C 346.167969 216.003906 346.386719 211.910156 344.527344 208.417969 C 342.671875 204.867188 339.226562 202.683594 335.183594 202.519531 L 295.5625 201.15625 C 295.5625 201.15625 295.671875 200.773438 295.726562 200.609375 C 295.726562 200.445312 295.726562 200.226562 295.726562 200.0625 L 302.339844 179.261719 C 303.105469 176.914062 302.175781 174.347656 300.101562 173.039062 L 299.390625 172.546875 L 309.445312 161.792969 C 311.628906 159.445312 312.667969 156.277344 312.285156 153.054688 C 311.902344 149.78125 310.046875 146.886719 307.257812 145.085938 L 252.445312 109.707031 C 249.660156 107.90625 246.269531 107.414062 243.101562 108.394531 C 240.042969 109.324219 237.527344 111.617188 236.324219 114.566406 L 230.640625 128.105469 L 229.929688 127.613281 C 227.855469 126.304688 225.175781 126.46875 223.320312 128.105469 L 208.34375 141.535156 L 193.261719 110.6875 C 191.511719 107.195312 188.015625 104.847656 184.082031 104.628906 C 180.089844 104.355469 176.429688 106.265625 174.246094 109.597656 L 144.023438 156.386719 C 141.128906 160.917969 140.636719 166.542969 142.65625 171.398438 L 154.789062 201.210938 C 144.242188 215.839844 133.96875 232.113281 125.605469 248.925781 C 115.988281 252.3125 107.847656 260.066406 103.09375 270.820312 C 101.398438 270.546875 99.59375 270.382812 97.84375 270.382812 C 83.855469 270.382812 71.175781 279.445312 64.621094 293.804688 C 44.34375 294.460938 28.003906 314.167969 28.003906 338.246094 C 28.003906 341.25 30.410156 343.707031 33.414062 343.707031 L 339.445312 346.054688 C 342.453125 346.054688 344.910156 343.652344 344.910156 340.648438 C 344.910156 337.644531 342.507812 335.191406 339.5 335.136719 Z M 246.324219 118.878906 C 246.324219 118.878906 246.378906 118.878906 246.488281 118.878906 L 301.464844 154.367188 L 290.097656 166.542969 L 239.988281 134.164062 L 246.378906 118.878906 Z M 202.933594 266.398438 C 202.550781 267 202.058594 267.488281 201.570312 267.980469 C 196.648438 262.195312 190.53125 258.152344 183.808594 256.242188 C 184.027344 255.640625 184.246094 255.042969 184.574219 254.496094 C 187.851562 249.417969 194.628906 248 199.710938 251.21875 C 204.792969 254.496094 206.214844 261.265625 202.933594 266.398438 Z M 205.667969 242.046875 C 195.558594 235.496094 182.003906 238.390625 175.445312 248.546875 C 174.136719 250.566406 173.261719 252.75 172.660156 255.042969 C 168.726562 255.316406 164.84375 256.296875 161.183594 257.9375 C 161.566406 252.476562 163.261719 247.179688 166.265625 242.59375 C 176.101562 227.417969 196.429688 223.101562 211.625 232.875 C 219 237.625 224.027344 244.941406 225.886719 253.511719 C 227.417969 260.71875 226.488281 268.035156 223.265625 274.695312 C 219.984375 272.894531 216.488281 271.640625 212.824219 270.984375 C 218.398438 261.046875 215.449219 248.328125 205.722656 241.992188 Z M 236.542969 251.273438 C 234.085938 239.863281 227.308594 230.089844 217.527344 223.703125 C 197.304688 210.65625 170.199219 216.496094 157.085938 236.699219 C 154.296875 241.011719 152.386719 245.816406 151.238281 250.785156 C 147.300781 248.761719 143.039062 247.5625 138.613281 247.234375 C 160.746094 205.742188 194.246094 168.070312 210.3125 154.09375 L 284.085938 201.703125 C 278.839844 218.898438 262.5 256.625 238.894531 291.019531 C 236.980469 287.472656 234.683594 284.25 232.007812 281.519531 C 237.144531 272.292969 238.785156 261.648438 236.542969 251.273438 Z M 334.855469 213.441406 L 304.582031 260.230469 C 303.652344 261.703125 302.011719 262.632812 300.265625 262.683594 L 268.402344 263.886719 C 279.660156 243.359375 287.695312 224.632812 292.175781 212.019531 L 334.910156 213.441406 Z M 227.472656 139.132812 L 290.699219 179.972656 L 287.257812 190.78125 L 219 146.722656 L 227.417969 139.1875 Z M 152.65625 167.359375 C 152.003906 165.777344 152.167969 163.867188 153.148438 162.390625 L 183.371094 115.65625 L 199.710938 149.015625 C 189.929688 158.078125 176.210938 172.875 162.277344 191.054688 L 152.65625 167.414062 Z M 39.152344 332.949219 C 41.230469 317.007812 52.269531 304.832031 65.546875 304.832031 C 66.203125 304.832031 66.859375 304.886719 67.625 304.941406 C 70.085938 305.160156 72.433594 303.6875 73.253906 301.339844 C 77.625 289.21875 87.1875 281.410156 97.734375 281.410156 C 100.085938 281.410156 102.4375 281.792969 104.621094 282.558594 C 105.988281 283.050781 107.519531 282.941406 108.828125 282.285156 C 110.140625 281.628906 111.125 280.484375 111.5625 279.0625 C 115.714844 266.289062 125.441406 258.042969 136.371094 258.042969 C 143.585938 258.042969 150.417969 261.703125 155.554688 268.253906 C 157.304688 270.492188 160.417969 270.984375 162.824219 269.511719 C 166.59375 267.109375 170.691406 265.851562 175.007812 265.851562 C 183.371094 265.851562 191.402344 270.929688 196.484375 279.5 C 197.742188 281.574219 200.148438 282.613281 202.496094 282.011719 C 203.972656 281.628906 205.558594 281.464844 207.199219 281.464844 C 218.890625 281.464844 229.113281 290.855469 232.664062 304.832031 C 233.101562 306.527344 234.304688 307.890625 235.886719 308.546875 C 237.472656 309.203125 239.277344 309.09375 240.75 308.164062 C 244.414062 305.980469 248.292969 304.886719 252.226562 304.886719 C 266 304.886719 277.367188 318.046875 278.785156 334.863281 L 39.207031 333.003906 Z M 269.167969 72.746094 C 262.773438 60.023438 264.578125 44.738281 273.703125 33.761719 L 275.78125 31.25 C 277.695312 28.957031 281.136719 28.628906 283.488281 30.542969 C 285.835938 32.453125 286.109375 35.890625 284.195312 38.238281 L 282.121094 40.75 C 275.78125 48.339844 274.523438 58.988281 278.949219 67.832031 L 281.027344 72.035156 C 286.054688 82.082031 286.054688 94.039062 281.027344 104.082031 L 278.949219 108.285156 C 277.96875 110.199219 276.054688 111.289062 274.03125 111.289062 C 273.210938 111.289062 272.394531 111.125 271.574219 110.6875 C 268.894531 109.324219 267.800781 106.046875 269.113281 103.375 L 271.191406 99.167969 C 274.6875 92.179688 274.6875 83.882812 271.191406 76.894531 L 269.113281 72.691406 Z M 304.746094 92.234375 C 298.351562 79.515625 300.15625 64.226562 309.28125 53.253906 L 311.355469 50.742188 C 313.269531 48.449219 316.714844 48.121094 319.0625 50.03125 C 321.359375 51.945312 321.6875 55.382812 319.773438 57.730469 L 317.695312 60.242188 C 311.355469 67.832031 310.101562 78.476562 314.527344 87.320312 L 316.605469 91.527344 C 321.632812 101.570312 321.632812 113.527344 316.605469 123.574219 L 314.527344 127.777344 C 313.542969 129.6875 311.628906 130.78125 309.609375 130.78125 C 308.789062 130.78125 307.96875 130.617188 307.148438 130.179688 C 304.472656 128.816406 303.378906 125.539062 304.691406 122.863281 L 306.765625 118.660156 C 310.265625 111.671875 310.265625 103.375 306.765625 96.386719 L 304.691406 92.179688 Z M 304.746094 92.234375 " fill-opacity="1" fill-rule="nonzero"/></g></svg>