<svg xmlns="http://www.w3.org/2000/svg" xmlns:xlink="http://www.w3.org/1999/xlink" width="500" zoomAndPan="magnify" viewBox="0 0 375.12 383.03998" height="500" preserveAspectRatio="xMidYMid meet" version="1.0"><defs><clipPath id="9a73f6f909"><path d="M 15 40.257812 L 354 40.257812 L 354 333.519531 L 15 333.519531 Z M 15 40.257812 " clip-rule="nonzero"/></clipPath></defs><g clip-path="url(#9a73f6f909)"><path fill="#000000" d="M 349.992188 298.574219 L 204.5625 51.703125 C 204.308594 51.273438 204.042969 50.851562 203.757812 50.433594 C 203.476562 50.019531 203.183594 49.617188 202.875 49.21875 C 202.566406 48.824219 202.246094 48.4375 201.910156 48.066406 C 201.578125 47.691406 201.234375 47.328125 200.875 46.972656 C 200.519531 46.621094 200.152344 46.28125 199.773438 45.953125 C 199.394531 45.625 199.003906 45.308594 198.605469 45.007812 C 198.207031 44.703125 197.796875 44.414062 197.378906 44.136719 C 196.960938 43.859375 196.53125 43.597656 196.097656 43.347656 C 195.660156 43.101562 195.21875 42.867188 194.769531 42.644531 C 194.316406 42.425781 193.859375 42.21875 193.394531 42.03125 C 192.929688 41.839844 192.460938 41.664062 191.988281 41.503906 C 191.511719 41.34375 191.03125 41.199219 190.546875 41.070312 C 190.0625 40.941406 189.574219 40.828125 189.082031 40.734375 C 188.589844 40.636719 188.09375 40.554688 187.597656 40.488281 C 187.097656 40.425781 186.601562 40.375 186.097656 40.34375 C 185.597656 40.3125 185.097656 40.292969 184.597656 40.292969 C 184.09375 40.292969 183.59375 40.3125 183.09375 40.34375 C 182.59375 40.375 182.09375 40.425781 181.59375 40.488281 C 181.097656 40.554688 180.601562 40.636719 180.109375 40.734375 C 179.621094 40.828125 179.128906 40.941406 178.644531 41.070312 C 178.160156 41.199219 177.679688 41.34375 177.207031 41.503906 C 176.730469 41.664062 176.261719 41.839844 175.796875 42.03125 C 175.332031 42.21875 174.875 42.425781 174.425781 42.644531 C 173.972656 42.867188 173.53125 43.101562 173.09375 43.347656 C 172.660156 43.597656 172.234375 43.859375 171.8125 44.136719 C 171.394531 44.414062 170.988281 44.703125 170.585938 45.007812 C 170.1875 45.308594 169.796875 45.625 169.417969 45.953125 C 169.039062 46.28125 168.671875 46.621094 168.316406 46.972656 C 167.957031 47.328125 167.613281 47.691406 167.28125 48.066406 C 166.945312 48.4375 166.625 48.824219 166.316406 49.21875 C 166.007812 49.617188 165.714844 50.019531 165.433594 50.433594 C 165.148438 50.851562 164.882812 51.273438 164.628906 51.703125 L 19.207031 298.574219 C 18.6875 299.449219 18.230469 300.351562 17.835938 301.289062 C 17.4375 302.222656 17.105469 303.183594 16.832031 304.160156 C 16.5625 305.140625 16.355469 306.132812 16.21875 307.140625 C 16.078125 308.148438 16.003906 309.15625 15.996094 310.175781 C 15.988281 311.191406 16.050781 312.203125 16.175781 313.210938 C 16.304688 314.21875 16.496094 315.214844 16.753906 316.199219 C 17.011719 317.179688 17.332031 318.144531 17.714844 319.082031 C 18.101562 320.023438 18.546875 320.9375 19.050781 321.816406 C 19.554688 322.699219 20.113281 323.546875 20.730469 324.355469 C 21.347656 325.164062 22.011719 325.929688 22.730469 326.648438 C 23.445312 327.371094 24.207031 328.039062 25.011719 328.660156 C 25.816406 329.28125 26.660156 329.847656 27.539062 330.355469 C 28.417969 330.867188 29.328125 331.316406 30.265625 331.707031 C 31.207031 332.097656 32.164062 332.425781 33.148438 332.6875 C 34.128906 332.953125 35.125 333.152344 36.132812 333.285156 C 37.140625 333.417969 38.152344 333.484375 39.171875 333.484375 L 330.027344 333.484375 C 347.949219 333.484375 359.089844 314.007812 349.992188 298.574219 Z M 43.671875 308.644531 L 182.824219 76.164062 L 321.984375 308.644531 Z M 43.671875 308.644531 " fill-opacity="1" fill-rule="nonzero"/></g><path fill="#000000" d="M 165.734375 275.023438 C 165.734375 264.597656 172.980469 257.070312 182.824219 257.070312 C 193.253906 257.070312 199.921875 264.597656 199.921875 275.023438 C 199.921875 285.160156 193.253906 292.972656 182.824219 292.972656 C 172.6875 292.972656 165.734375 285.160156 165.734375 275.023438 Z M 173.070312 242.886719 L 166.007812 144.867188 C 165.65625 139.992188 173.339844 135.976562 182.832031 135.976562 C 192.316406 135.976562 200.015625 139.992188 199.664062 144.867188 L 192.59375 242.886719 C 192.351562 246.214844 188.070312 248.839844 182.824219 248.839844 C 177.582031 248.839844 173.296875 246.214844 173.0625 242.886719 Z M 173.070312 242.886719 " fill-opacity="1" fill-rule="nonzero"/></svg>