<svg xmlns="http://www.w3.org/2000/svg" xmlns:xlink="http://www.w3.org/1999/xlink" width="500" zoomAndPan="magnify" viewBox="0 0 375.12 383.03998" height="500" preserveAspectRatio="xMidYMid meet" version="1.0"><defs><clipPath id="0c34b8b125"><path d="M 23.675781 55.300781 L 350.605469 55.300781 L 350.605469 318.640625 L 23.675781 318.640625 Z M 23.675781 55.300781 " clip-rule="nonzero"/></clipPath></defs><path fill="#f4b2b0" d="M 261.210938 60.570312 C 259.828125 60.570312 258.449219 60.601562 257.070312 60.671875 C 255.691406 60.738281 254.316406 60.839844 252.941406 60.972656 C 251.570312 61.109375 250.199219 61.277344 248.832031 61.480469 C 247.46875 61.683594 246.109375 61.917969 244.753906 62.1875 C 243.398438 62.457031 242.054688 62.757812 240.714844 63.09375 C 239.375 63.429688 238.046875 63.796875 236.726562 64.199219 C 235.402344 64.597656 234.09375 65.03125 232.792969 65.496094 C 231.492188 65.960938 230.207031 66.457031 228.929688 66.984375 C 227.65625 67.511719 226.394531 68.070312 225.144531 68.660156 C 223.898438 69.25 222.664062 69.867188 221.449219 70.519531 C 220.230469 71.167969 219.03125 71.847656 217.847656 72.558594 C 216.660156 73.265625 215.496094 74.003906 214.347656 74.769531 C 213.199219 75.535156 212.074219 76.332031 210.964844 77.152344 C 209.855469 77.972656 208.765625 78.820312 207.699219 79.695312 C 206.632812 80.570312 205.585938 81.472656 204.566406 82.398438 C 203.542969 83.324219 202.542969 84.273438 201.566406 85.25 C 200.589844 86.226562 199.640625 87.222656 198.710938 88.246094 C 197.785156 89.269531 196.882812 90.3125 196.007812 91.378906 C 195.132812 92.445312 194.28125 93.53125 193.460938 94.640625 C 192.636719 95.746094 191.84375 96.875 191.078125 98.019531 C 190.308594 99.167969 189.570312 100.332031 188.863281 101.515625 C 188.152344 102.699219 187.472656 103.898438 186.820312 105.113281 C 186.171875 106.328125 185.550781 107.5625 184.960938 108.808594 C 184.371094 110.054688 183.808594 111.316406 183.28125 112.589844 C 182.753906 113.863281 182.257812 115.148438 181.792969 116.449219 C 181.328125 117.746094 180.894531 119.054688 180.492188 120.375 C 180.09375 121.695312 179.726562 123.023438 179.390625 124.363281 C 179.054688 125.699219 178.75 127.042969 178.480469 128.398438 C 178.210938 129.75 177.976562 131.109375 177.773438 132.472656 C 177.570312 133.835938 177.402344 135.207031 177.269531 136.578125 C 177.132812 137.949219 177.03125 139.324219 176.964844 140.703125 C 176.894531 142.082031 176.863281 143.457031 176.863281 144.835938 C 176.863281 146.214844 176.894531 147.59375 176.964844 148.972656 C 177.03125 150.351562 177.132812 151.726562 177.269531 153.097656 C 177.402344 154.46875 177.570312 155.839844 177.773438 157.203125 C 177.976562 158.566406 178.210938 159.925781 178.480469 161.277344 C 178.75 162.628906 179.054688 163.976562 179.390625 165.3125 C 179.726562 166.652344 180.09375 167.980469 180.492188 169.300781 C 180.894531 170.621094 181.328125 171.929688 181.792969 173.226562 C 182.257812 174.523438 182.753906 175.8125 183.28125 177.085938 C 183.808594 178.359375 184.371094 179.621094 184.960938 180.867188 C 185.550781 182.113281 186.171875 183.34375 186.820312 184.5625 C 187.472656 185.777344 188.152344 186.976562 188.863281 188.160156 C 189.570312 189.34375 190.308594 190.507812 191.078125 191.65625 C 191.84375 192.800781 192.636719 193.929688 193.460938 195.035156 C 194.28125 196.144531 195.132812 197.230469 196.007812 198.296875 C 196.882812 199.363281 197.785156 200.40625 198.710938 201.429688 C 199.640625 202.449219 200.589844 203.449219 201.566406 204.425781 C 202.542969 205.398438 203.542969 206.351562 204.566406 207.277344 C 205.585938 208.203125 206.632812 209.101562 207.699219 209.976562 C 208.765625 210.851562 209.855469 211.703125 210.964844 212.523438 C 212.074219 213.34375 213.199219 214.136719 214.347656 214.90625 C 215.496094 215.671875 216.660156 216.410156 217.847656 217.117188 C 219.03125 217.828125 220.230469 218.503906 221.449219 219.15625 C 222.664062 219.804688 223.898438 220.425781 225.144531 221.015625 C 226.394531 221.605469 227.65625 222.164062 228.929688 222.691406 C 230.207031 223.21875 231.492188 223.714844 232.792969 224.179688 C 234.09375 224.644531 235.402344 225.078125 236.726562 225.476562 C 238.046875 225.878906 239.375 226.246094 240.714844 226.582031 C 242.054688 226.914062 243.398438 227.21875 244.753906 227.488281 C 246.109375 227.757812 247.46875 227.992188 248.832031 228.195312 C 250.199219 228.398438 251.570312 228.566406 252.941406 228.699219 C 254.316406 228.835938 255.691406 228.9375 257.070312 229.003906 C 258.449219 229.074219 259.828125 229.105469 261.210938 229.105469 C 262.589844 229.105469 263.96875 229.074219 265.347656 229.003906 C 266.726562 228.9375 268.105469 228.835938 269.476562 228.699219 C 270.851562 228.566406 272.222656 228.398438 273.585938 228.195312 C 274.953125 227.992188 276.3125 227.757812 277.664062 227.488281 C 279.019531 227.21875 280.367188 226.914062 281.703125 226.582031 C 283.042969 226.246094 284.375 225.878906 285.695312 225.476562 C 287.015625 225.078125 288.328125 224.644531 289.625 224.179688 C 290.925781 223.714844 292.214844 223.21875 293.488281 222.691406 C 294.765625 222.164062 296.027344 221.605469 297.273438 221.015625 C 298.519531 220.425781 299.753906 219.804688 300.972656 219.15625 C 302.1875 218.503906 303.390625 217.828125 304.574219 217.117188 C 305.757812 216.410156 306.921875 215.671875 308.070312 214.90625 C 309.21875 214.136719 310.347656 213.34375 311.457031 212.523438 C 312.566406 211.703125 313.652344 210.851562 314.71875 209.976562 C 315.785156 209.101562 316.832031 208.203125 317.855469 207.277344 C 318.878906 206.351562 319.878906 205.398438 320.851562 204.425781 C 321.828125 203.449219 322.78125 202.449219 323.707031 201.429688 C 324.636719 200.40625 325.535156 199.363281 326.410156 198.296875 C 327.289062 197.230469 328.136719 196.144531 328.960938 195.035156 C 329.78125 193.929688 330.574219 192.800781 331.34375 191.65625 C 332.109375 190.507812 332.847656 189.34375 333.558594 188.160156 C 334.265625 186.976562 334.949219 185.777344 335.597656 184.5625 C 336.25 183.34375 336.871094 182.113281 337.460938 180.867188 C 338.050781 179.621094 338.609375 178.359375 339.136719 177.085938 C 339.664062 175.8125 340.164062 174.523438 340.628906 173.226562 C 341.09375 171.929688 341.527344 170.621094 341.925781 169.300781 C 342.328125 167.980469 342.695312 166.652344 343.03125 165.3125 C 343.367188 163.976562 343.667969 162.628906 343.9375 161.277344 C 344.207031 159.925781 344.441406 158.566406 344.644531 157.203125 C 344.847656 155.839844 345.015625 154.46875 345.152344 153.097656 C 345.289062 151.726562 345.390625 150.351562 345.457031 148.972656 C 345.523438 147.59375 345.558594 146.214844 345.558594 144.835938 C 345.558594 143.457031 345.523438 142.082031 345.457031 140.703125 C 345.390625 139.324219 345.289062 137.949219 345.152344 136.578125 C 345.015625 135.207031 344.847656 133.835938 344.644531 132.472656 C 344.441406 131.109375 344.207031 129.75 343.9375 128.398438 C 343.667969 127.042969 343.367188 125.699219 343.03125 124.363281 C 342.695312 123.023438 342.328125 121.695312 341.925781 120.375 C 341.527344 119.054688 341.09375 117.746094 340.628906 116.449219 C 340.164062 115.148438 339.664062 113.863281 339.136719 112.589844 C 338.609375 111.316406 338.050781 110.054688 337.460938 108.808594 C 336.871094 107.5625 336.25 106.328125 335.597656 105.113281 C 334.949219 103.898438 334.265625 102.699219 333.558594 101.515625 C 332.847656 100.332031 332.109375 99.167969 331.34375 98.019531 C 330.574219 96.875 329.78125 95.746094 328.960938 94.640625 C 328.136719 93.53125 327.289062 92.445312 326.410156 91.378906 C 325.535156 90.3125 324.636719 89.269531 323.707031 88.246094 C 322.78125 87.222656 321.828125 86.226562 320.851562 85.25 C 319.878906 84.273438 318.878906 83.324219 317.855469 82.398438 C 316.832031 81.472656 315.785156 80.570312 314.71875 79.695312 C 313.652344 78.820312 312.566406 77.972656 311.457031 77.152344 C 310.347656 76.332031 309.21875 75.535156 308.070312 74.769531 C 306.921875 74.003906 305.757812 73.265625 304.574219 72.558594 C 303.390625 71.847656 302.1875 71.167969 300.972656 70.519531 C 299.753906 69.867188 298.519531 69.25 297.273438 68.660156 C 296.027344 68.070312 294.765625 67.511719 293.488281 66.984375 C 292.214844 66.457031 290.925781 65.960938 289.625 65.496094 C 288.328125 65.03125 287.015625 64.597656 285.695312 64.199219 C 284.375 63.796875 283.042969 63.429688 281.703125 63.09375 C 280.367188 62.757812 279.019531 62.457031 277.664062 62.1875 C 276.3125 61.917969 274.953125 61.683594 273.585938 61.480469 C 272.222656 61.277344 270.851562 61.109375 269.476562 60.972656 C 268.105469 60.839844 266.726562 60.738281 265.347656 60.671875 C 263.96875 60.601562 262.589844 60.570312 261.210938 60.570312 Z M 197.949219 144.835938 C 197.949219 141.964844 198.144531 139.105469 198.535156 136.261719 C 198.925781 133.414062 199.507812 130.609375 200.28125 127.84375 C 201.054688 125.078125 202.015625 122.375 203.15625 119.738281 C 204.300781 117.101562 205.617188 114.558594 207.105469 112.101562 C 208.59375 109.644531 210.246094 107.300781 212.054688 105.066406 C 213.863281 102.835938 215.816406 100.738281 217.914062 98.773438 C 220.011719 96.804688 222.230469 94.992188 224.574219 93.328125 C 226.917969 91.664062 229.363281 90.167969 231.910156 88.835938 C 234.460938 87.507812 237.085938 86.355469 239.792969 85.382812 C 242.496094 84.410156 245.253906 83.625 248.066406 83.03125 C 250.878906 82.433594 253.71875 82.03125 256.585938 81.820312 C 259.453125 81.609375 262.324219 81.59375 265.191406 81.777344 C 268.0625 81.957031 270.90625 82.332031 273.722656 82.898438 C 276.542969 83.46875 279.308594 84.222656 282.023438 85.167969 C 284.738281 86.113281 287.375 87.238281 289.9375 88.542969 C 292.5 89.847656 294.960938 91.320312 297.320312 92.960938 L 209.28125 180.914062 C 207.449219 178.285156 205.828125 175.527344 204.414062 172.648438 C 203 169.769531 201.8125 166.800781 200.851562 163.742188 C 199.890625 160.683594 199.167969 157.570312 198.679688 154.402344 C 198.195312 151.230469 197.949219 148.042969 197.949219 144.835938 Z M 261.210938 208.039062 C 258 208.039062 254.808594 207.792969 251.636719 207.308594 C 248.464844 206.820312 245.347656 206.097656 242.285156 205.136719 C 239.222656 204.179688 236.253906 202.992188 233.371094 201.582031 C 230.492188 200.167969 227.734375 198.546875 225.097656 196.714844 L 313.136719 108.761719 C 314.777344 111.117188 316.25 113.578125 317.558594 116.136719 C 318.863281 118.695312 319.988281 121.332031 320.933594 124.042969 C 321.878906 126.753906 322.636719 129.519531 323.207031 132.335938 C 323.773438 135.152344 324.148438 137.992188 324.332031 140.859375 C 324.511719 143.726562 324.496094 146.589844 324.289062 149.457031 C 324.078125 152.320312 323.671875 155.15625 323.078125 157.96875 C 322.480469 160.777344 321.695312 163.53125 320.71875 166.234375 C 319.746094 168.9375 318.59375 171.5625 317.261719 174.109375 C 315.929688 176.652344 314.433594 179.097656 312.769531 181.4375 C 311.101562 183.78125 309.285156 186 307.320312 188.09375 C 305.351562 190.1875 303.25 192.136719 301.015625 193.945312 C 298.78125 195.753906 296.4375 197.402344 293.976562 198.890625 C 291.519531 200.378906 288.96875 201.695312 286.332031 202.835938 C 283.695312 203.976562 280.988281 204.933594 278.222656 205.707031 C 275.453125 206.480469 272.644531 207.0625 269.792969 207.453125 C 266.945312 207.84375 264.085938 208.039062 261.210938 208.039062 Z M 261.210938 208.039062 " fill-opacity="1" fill-rule="nonzero"/><path fill="#b3404a" d="M 203.21875 223.839844 L 213.765625 223.839844 L 213.765625 234.375 L 203.21875 234.375 Z M 203.21875 223.839844 " fill-opacity="1" fill-rule="nonzero"/><g clip-path="url(#0c34b8b125)"><path fill="#b3404a" d="M 261.210938 55.300781 C 259.800781 55.304688 258.390625 55.339844 256.980469 55.40625 C 255.570312 55.476562 254.164062 55.578125 252.761719 55.710938 C 251.355469 55.84375 249.957031 56.011719 248.558594 56.214844 C 247.164062 56.414062 245.773438 56.648438 244.386719 56.914062 C 243.003906 57.179688 241.625 57.480469 240.253906 57.808594 C 238.882812 58.140625 237.519531 58.503906 236.167969 58.898438 C 234.8125 59.296875 233.46875 59.722656 232.136719 60.183594 C 230.800781 60.640625 229.480469 61.132812 228.167969 61.652344 C 226.859375 62.171875 225.558594 62.726562 224.277344 63.308594 C 222.992188 63.890625 221.722656 64.503906 220.464844 65.144531 C 219.210938 65.789062 217.972656 66.460938 216.746094 67.160156 C 215.523438 67.859375 214.316406 68.589844 213.128906 69.347656 C 211.9375 70.105469 210.765625 70.890625 209.617188 71.703125 C 208.464844 72.515625 207.332031 73.355469 206.21875 74.222656 C 205.105469 75.089844 204.015625 75.980469 202.945312 76.898438 C 201.875 77.816406 200.824219 78.761719 199.800781 79.726562 C 198.773438 80.695312 197.773438 81.6875 196.792969 82.699219 C 195.8125 83.714844 194.859375 84.753906 193.929688 85.8125 C 193 86.871094 192.09375 87.953125 191.214844 89.054688 C 190.335938 90.15625 189.484375 91.28125 188.660156 92.421875 C 187.832031 93.566406 187.035156 94.726562 186.265625 95.90625 C 185.492188 97.085938 184.75 98.285156 184.035156 99.5 C 183.324219 100.714844 182.636719 101.945312 181.980469 103.195312 C 181.324219 104.441406 180.699219 105.703125 180.101562 106.980469 C 179.507812 108.257812 178.941406 109.550781 178.40625 110.851562 C 177.871094 112.15625 177.363281 113.472656 176.890625 114.800781 C 176.417969 116.128906 175.976562 117.464844 175.566406 118.8125 C 175.15625 120.164062 174.777344 121.519531 174.433594 122.886719 C 174.085938 124.253906 173.773438 125.625 173.492188 127.007812 C 173.210938 128.386719 172.964844 129.773438 172.75 131.167969 C 172.535156 132.558594 172.351562 133.957031 172.203125 135.359375 C 172.050781 136.761719 171.9375 138.164062 171.851562 139.570312 L 50.339844 139.570312 C 49.476562 139.570312 48.613281 139.613281 47.753906 139.699219 C 46.894531 139.78125 46.042969 139.910156 45.195312 140.078125 C 44.351562 140.246094 43.511719 140.453125 42.6875 140.703125 C 41.859375 140.953125 41.050781 141.246094 40.25 141.574219 C 39.453125 141.90625 38.675781 142.273438 37.914062 142.679688 C 37.152344 143.085938 36.414062 143.53125 35.695312 144.007812 C 34.976562 144.488281 34.285156 145 33.617188 145.546875 C 32.949219 146.09375 32.3125 146.675781 31.699219 147.285156 C 31.089844 147.894531 30.511719 148.53125 29.964844 149.199219 C 29.414062 149.867188 28.902344 150.558594 28.421875 151.273438 C 27.941406 151.992188 27.5 152.730469 27.09375 153.492188 C 26.683594 154.25 26.316406 155.03125 25.988281 155.828125 C 25.65625 156.625 25.367188 157.433594 25.113281 158.261719 C 24.863281 159.085938 24.65625 159.921875 24.488281 160.765625 C 24.316406 161.613281 24.191406 162.464844 24.105469 163.324219 C 24.023438 164.183594 23.980469 165.042969 23.980469 165.90625 L 23.980469 292.308594 C 23.980469 293.171875 24.023438 294.03125 24.105469 294.890625 C 24.191406 295.746094 24.316406 296.597656 24.488281 297.445312 C 24.65625 298.292969 24.863281 299.128906 25.113281 299.953125 C 25.367188 300.777344 25.65625 301.589844 25.988281 302.386719 C 26.316406 303.183594 26.683594 303.960938 27.09375 304.722656 C 27.5 305.480469 27.941406 306.222656 28.421875 306.9375 C 28.902344 307.65625 29.414062 308.347656 29.964844 309.015625 C 30.511719 309.679688 31.089844 310.320312 31.699219 310.929688 C 32.3125 311.539062 32.949219 312.117188 33.617188 312.664062 C 34.285156 313.210938 34.976562 313.726562 35.695312 314.203125 C 36.414062 314.683594 37.152344 315.125 37.914062 315.53125 C 38.675781 315.9375 39.453125 316.308594 40.25 316.636719 C 41.050781 316.96875 41.859375 317.257812 42.6875 317.507812 C 43.511719 317.757812 44.351562 317.96875 45.195312 318.136719 C 46.042969 318.304688 46.894531 318.429688 47.753906 318.515625 C 48.613281 318.601562 49.476562 318.640625 50.339844 318.640625 L 219.035156 318.640625 C 219.898438 318.640625 220.761719 318.601562 221.621094 318.515625 C 222.476562 318.429688 223.332031 318.304688 224.179688 318.136719 C 225.023438 317.96875 225.859375 317.757812 226.6875 317.507812 C 227.511719 317.257812 228.324219 316.96875 229.121094 316.636719 C 229.921875 316.308594 230.699219 315.9375 231.460938 315.53125 C 232.222656 315.125 232.960938 314.683594 233.679688 314.203125 C 234.398438 313.726562 235.089844 313.210938 235.757812 312.664062 C 236.425781 312.117188 237.0625 311.539062 237.675781 310.929688 C 238.285156 310.320312 238.863281 309.679688 239.410156 309.015625 C 239.960938 308.347656 240.472656 307.65625 240.953125 306.9375 C 241.433594 306.222656 241.875 305.480469 242.28125 304.722656 C 242.6875 303.960938 243.058594 303.183594 243.386719 302.386719 C 243.71875 301.589844 244.007812 300.777344 244.257812 299.953125 C 244.511719 299.128906 244.71875 298.292969 244.886719 297.445312 C 245.054688 296.597656 245.183594 295.746094 245.269531 294.890625 C 245.351562 294.03125 245.394531 293.171875 245.394531 292.308594 L 245.394531 255.441406 L 250.667969 255.441406 C 251.011719 255.441406 251.355469 255.40625 251.695312 255.339844 C 252.035156 255.273438 252.363281 255.171875 252.683594 255.039062 C 253.003906 254.90625 253.308594 254.746094 253.59375 254.550781 C 253.882812 254.359375 254.148438 254.140625 254.394531 253.898438 C 254.640625 253.652344 254.855469 253.386719 255.050781 253.097656 C 255.242188 252.8125 255.402344 252.507812 255.535156 252.1875 C 255.667969 251.871094 255.769531 251.539062 255.835938 251.199219 C 255.90625 250.863281 255.9375 250.519531 255.9375 250.171875 L 255.9375 234.375 C 257.679688 234.375 259.417969 234.375 261.210938 234.375 C 262.675781 234.371094 264.140625 234.335938 265.605469 234.265625 C 267.070312 234.191406 268.53125 234.082031 269.992188 233.9375 C 271.453125 233.796875 272.90625 233.617188 274.355469 233.398438 C 275.808594 233.183594 277.25 232.933594 278.691406 232.648438 C 280.128906 232.359375 281.558594 232.039062 282.980469 231.683594 C 284.402344 231.328125 285.816406 230.9375 287.21875 230.511719 C 288.621094 230.085938 290.011719 229.625 291.394531 229.132812 C 292.773438 228.636719 294.140625 228.109375 295.496094 227.546875 C 296.851562 226.988281 298.191406 226.394531 299.515625 225.765625 C 300.84375 225.140625 302.152344 224.480469 303.445312 223.789062 C 304.738281 223.101562 306.011719 222.378906 307.269531 221.625 C 308.527344 220.871094 309.765625 220.085938 310.984375 219.273438 C 312.203125 218.457031 313.402344 217.613281 314.582031 216.742188 C 315.757812 215.871094 316.914062 214.96875 318.046875 214.039062 C 319.179688 213.109375 320.289062 212.152344 321.375 211.167969 C 322.460938 210.183594 323.523438 209.175781 324.5625 208.136719 C 325.597656 207.101562 326.609375 206.039062 327.59375 204.957031 C 328.578125 203.871094 329.535156 202.761719 330.464844 201.628906 C 331.394531 200.496094 332.296875 199.339844 333.171875 198.164062 C 334.042969 196.988281 334.886719 195.789062 335.703125 194.570312 C 336.515625 193.351562 337.300781 192.117188 338.054688 190.859375 C 338.808594 189.601562 339.53125 188.328125 340.222656 187.035156 C 340.914062 185.742188 341.570312 184.433594 342.199219 183.109375 C 342.824219 181.785156 343.417969 180.449219 343.980469 179.09375 C 344.542969 177.742188 345.070312 176.375 345.5625 174.996094 C 346.054688 173.617188 346.515625 172.226562 346.941406 170.824219 C 347.367188 169.421875 347.757812 168.007812 348.113281 166.589844 C 348.46875 165.167969 348.792969 163.738281 349.078125 162.300781 C 349.363281 160.863281 349.613281 159.421875 349.828125 157.972656 C 350.042969 156.523438 350.222656 155.070312 350.367188 153.613281 C 350.511719 152.152344 350.621094 150.691406 350.691406 149.230469 C 350.761719 147.765625 350.800781 146.300781 350.800781 144.835938 C 350.800781 143.371094 350.761719 141.910156 350.691406 140.445312 C 350.621094 138.980469 350.511719 137.519531 350.367188 136.0625 C 350.222656 134.605469 350.042969 133.152344 349.828125 131.703125 C 349.613281 130.253906 349.363281 128.8125 349.078125 127.375 C 348.792969 125.9375 348.472656 124.507812 348.113281 123.085938 C 347.757812 121.664062 347.367188 120.253906 346.941406 118.851562 C 346.515625 117.449219 346.054688 116.058594 345.5625 114.679688 C 345.070312 113.300781 344.542969 111.933594 343.980469 110.582031 C 343.417969 109.226562 342.824219 107.886719 342.199219 106.5625 C 341.570312 105.238281 340.914062 103.929688 340.222656 102.640625 C 339.53125 101.347656 338.808594 100.074219 338.054688 98.816406 C 337.300781 97.558594 336.515625 96.320312 335.703125 95.105469 C 334.886719 93.886719 334.042969 92.6875 333.171875 91.511719 C 332.296875 90.335938 331.394531 89.179688 330.464844 88.046875 C 329.535156 86.914062 328.578125 85.804688 327.59375 84.71875 C 326.609375 83.632812 325.597656 82.574219 324.5625 81.539062 C 323.523438 80.5 322.460938 79.492188 321.375 78.507812 C 320.289062 77.523438 319.179688 76.566406 318.046875 75.636719 C 316.914062 74.707031 315.757812 73.804688 314.582031 72.933594 C 313.402344 72.058594 312.203125 71.214844 310.984375 70.402344 C 309.765625 69.589844 308.527344 68.804688 307.269531 68.050781 C 306.011719 67.296875 304.738281 66.574219 303.445312 65.882812 C 302.152344 65.191406 300.84375 64.535156 299.515625 63.90625 C 298.191406 63.28125 296.851562 62.6875 295.496094 62.125 C 294.140625 61.566406 292.773438 61.039062 291.394531 60.542969 C 290.011719 60.050781 288.621094 59.589844 287.21875 59.164062 C 285.816406 58.738281 284.402344 58.347656 282.980469 57.992188 C 281.558594 57.636719 280.128906 57.3125 278.691406 57.027344 C 277.25 56.742188 275.808594 56.492188 274.355469 56.273438 C 272.90625 56.058594 271.453125 55.878906 269.992188 55.734375 C 268.53125 55.59375 267.070312 55.484375 265.605469 55.410156 C 264.140625 55.339844 262.675781 55.300781 261.210938 55.300781 Z M 50.339844 150.105469 L 171.851562 150.105469 C 172.238281 157.273438 173.46875 164.296875 175.542969 171.171875 L 34.523438 171.171875 L 34.523438 165.90625 C 34.523438 165.386719 34.550781 164.871094 34.601562 164.355469 C 34.652344 163.839844 34.726562 163.328125 34.828125 162.820312 C 34.929688 162.316406 35.054688 161.8125 35.203125 161.316406 C 35.355469 160.824219 35.527344 160.335938 35.726562 159.859375 C 35.925781 159.378906 36.148438 158.914062 36.390625 158.457031 C 36.636719 158 36.902344 157.558594 37.1875 157.125 C 37.476562 156.695312 37.785156 156.28125 38.113281 155.882812 C 38.441406 155.480469 38.789062 155.097656 39.15625 154.730469 C 39.523438 154.367188 39.90625 154.019531 40.304688 153.691406 C 40.707031 153.363281 41.121094 153.054688 41.550781 152.765625 C 41.984375 152.480469 42.425781 152.214844 42.882812 151.96875 C 43.339844 151.726562 43.808594 151.503906 44.285156 151.308594 C 44.765625 151.109375 45.253906 150.933594 45.746094 150.785156 C 46.242188 150.632812 46.746094 150.507812 47.253906 150.40625 C 47.761719 150.308594 48.273438 150.230469 48.789062 150.179688 C 49.304688 150.128906 49.820312 150.105469 50.339844 150.105469 Z M 219.035156 308.109375 L 50.339844 308.109375 C 49.820312 308.109375 49.304688 308.082031 48.789062 308.03125 C 48.273438 307.980469 47.761719 307.90625 47.253906 307.804688 C 46.746094 307.703125 46.242188 307.578125 45.746094 307.429688 C 45.253906 307.277344 44.765625 307.105469 44.285156 306.90625 C 43.808594 306.707031 43.339844 306.488281 42.882812 306.242188 C 42.425781 306 41.984375 305.734375 41.550781 305.445312 C 41.121094 305.15625 40.707031 304.851562 40.304688 304.523438 C 39.90625 304.195312 39.523438 303.847656 39.15625 303.480469 C 38.789062 303.113281 38.441406 302.730469 38.113281 302.332031 C 37.785156 301.929688 37.476562 301.515625 37.1875 301.085938 C 36.902344 300.65625 36.636719 300.210938 36.390625 299.757812 C 36.148438 299.300781 35.925781 298.832031 35.726562 298.355469 C 35.527344 297.875 35.355469 297.390625 35.203125 296.894531 C 35.054688 296.398438 34.929688 295.898438 34.828125 295.390625 C 34.726562 294.882812 34.652344 294.371094 34.601562 293.855469 C 34.550781 293.339844 34.523438 292.824219 34.523438 292.308594 L 34.523438 287.042969 L 234.851562 287.042969 L 234.851562 292.308594 C 234.851562 292.824219 234.824219 293.339844 234.773438 293.855469 C 234.722656 294.371094 234.648438 294.882812 234.546875 295.390625 C 234.445312 295.898438 234.320312 296.398438 234.171875 296.894531 C 234.019531 297.390625 233.84375 297.875 233.648438 298.355469 C 233.449219 298.832031 233.226562 299.300781 232.984375 299.757812 C 232.738281 300.210938 232.472656 300.65625 232.1875 301.085938 C 231.898438 301.515625 231.589844 301.929688 231.261719 302.332031 C 230.933594 302.730469 230.585938 303.113281 230.21875 303.480469 C 229.851562 303.847656 229.46875 304.195312 229.070312 304.523438 C 228.667969 304.851562 228.253906 305.15625 227.820312 305.445312 C 227.390625 305.734375 226.949219 306 226.492188 306.242188 C 226.035156 306.488281 225.566406 306.707031 225.085938 306.90625 C 224.609375 307.105469 224.121094 307.277344 223.625 307.429688 C 223.132812 307.578125 222.628906 307.703125 222.121094 307.804688 C 221.613281 307.90625 221.101562 307.980469 220.585938 308.03125 C 220.070312 308.082031 219.554688 308.109375 219.035156 308.109375 Z M 234.851562 276.507812 L 34.523438 276.507812 L 34.523438 181.707031 L 179.65625 181.707031 C 183.726562 190.722656 189.15625 198.835938 195.945312 206.039062 C 194.675781 206.734375 193.472656 207.53125 192.335938 208.429688 C 191.199219 209.324219 190.140625 210.308594 189.167969 211.378906 C 188.191406 212.449219 187.308594 213.589844 186.523438 214.808594 C 185.738281 216.023438 185.054688 217.292969 184.476562 218.621094 C 183.902344 219.949219 183.4375 221.316406 183.085938 222.71875 C 182.734375 224.121094 182.5 225.546875 182.382812 226.988281 C 182.265625 228.429688 182.269531 229.875 182.390625 231.316406 C 182.511719 232.757812 182.75 234.179688 183.109375 235.582031 C 183.464844 236.984375 183.933594 238.351562 184.515625 239.675781 C 185.097656 241 185.78125 242.269531 186.574219 243.484375 C 187.363281 244.695312 188.25 245.835938 189.226562 246.902344 C 190.207031 247.96875 191.265625 248.949219 192.40625 249.839844 C 193.546875 250.734375 194.753906 251.527344 196.023438 252.21875 C 197.296875 252.914062 198.617188 253.5 199.984375 253.972656 C 201.351562 254.449219 202.75 254.8125 204.179688 255.058594 C 205.605469 255.304688 207.042969 255.429688 208.492188 255.441406 L 234.851562 255.441406 Z M 245.394531 244.90625 L 208.492188 244.90625 C 207.542969 244.910156 206.601562 244.824219 205.667969 244.65625 C 204.734375 244.488281 203.824219 244.242188 202.933594 243.910156 C 202.046875 243.578125 201.195312 243.167969 200.378906 242.683594 C 199.5625 242.199219 198.796875 241.648438 198.082031 241.023438 C 197.367188 240.402344 196.710938 239.722656 196.117188 238.980469 C 195.527344 238.242188 195.003906 237.453125 194.554688 236.621094 C 194.101562 235.785156 193.730469 234.917969 193.433594 234.019531 C 193.140625 233.117188 192.925781 232.199219 192.796875 231.257812 C 192.667969 230.320312 192.625 229.378906 192.664062 228.429688 C 192.703125 227.484375 192.828125 226.546875 193.039062 225.621094 C 193.25 224.699219 193.539062 223.800781 193.910156 222.925781 C 194.28125 222.054688 194.726562 221.222656 195.246094 220.429688 C 195.769531 219.640625 196.355469 218.898438 197.007812 218.210938 C 197.664062 217.527344 198.375 216.902344 199.140625 216.34375 C 199.90625 215.785156 200.714844 215.300781 201.570312 214.886719 C 202.425781 214.472656 203.308594 214.140625 204.222656 213.886719 C 210.15625 218.765625 216.609375 222.816406 223.585938 226.039062 C 230.558594 229.257812 237.828125 231.546875 245.394531 232.898438 Z M 261.210938 223.839844 C 259.914062 223.839844 258.621094 223.808594 257.328125 223.746094 C 256.039062 223.679688 254.746094 223.585938 253.460938 223.460938 C 252.171875 223.332031 250.886719 223.175781 249.605469 222.984375 C 248.328125 222.792969 247.050781 222.574219 245.78125 222.320312 C 244.511719 222.070312 243.25 221.785156 241.996094 221.472656 C 240.742188 221.15625 239.492188 220.8125 238.253906 220.4375 C 237.015625 220.0625 235.789062 219.65625 234.570312 219.222656 C 233.351562 218.785156 232.144531 218.320312 230.949219 217.824219 C 229.753906 217.332031 228.570312 216.808594 227.398438 216.253906 C 226.230469 215.703125 225.074219 215.121094 223.933594 214.511719 C 222.792969 213.902344 221.667969 213.265625 220.554688 212.601562 C 219.445312 211.933594 218.351562 211.242188 217.277344 210.523438 C 216.199219 209.808594 215.144531 209.0625 214.105469 208.292969 C 213.066406 207.523438 212.042969 206.726562 211.042969 205.90625 C 210.042969 205.085938 209.0625 204.242188 208.105469 203.375 C 207.144531 202.507812 206.210938 201.613281 205.292969 200.699219 C 204.378906 199.785156 203.488281 198.851562 202.617188 197.890625 C 201.75 196.933594 200.902344 195.957031 200.082031 194.957031 C 199.261719 193.957031 198.464844 192.9375 197.695312 191.898438 C 196.925781 190.859375 196.179688 189.804688 195.460938 188.730469 C 194.742188 187.652344 194.050781 186.5625 193.382812 185.453125 C 192.71875 184.34375 192.082031 183.21875 191.46875 182.078125 C 190.859375 180.9375 190.277344 179.785156 189.726562 178.617188 C 189.171875 177.445312 188.648438 176.265625 188.152344 175.070312 C 187.65625 173.875 187.191406 172.667969 186.753906 171.453125 C 186.320312 170.234375 185.914062 169.007812 185.539062 167.769531 C 185.164062 166.535156 184.816406 165.289062 184.503906 164.035156 C 184.1875 162.777344 183.90625 161.519531 183.652344 160.25 C 183.398438 158.980469 183.179688 157.707031 182.988281 156.429688 C 182.800781 155.152344 182.640625 153.867188 182.515625 152.582031 C 182.386719 151.292969 182.292969 150.003906 182.226562 148.714844 C 182.164062 147.421875 182.132812 146.128906 182.132812 144.835938 C 182.132812 143.542969 182.164062 142.253906 182.226562 140.960938 C 182.292969 139.667969 182.386719 138.378906 182.515625 137.09375 C 182.640625 135.808594 182.800781 134.523438 182.988281 133.246094 C 183.179688 131.964844 183.398438 130.691406 183.652344 129.425781 C 183.90625 128.15625 184.1875 126.894531 184.503906 125.640625 C 184.816406 124.386719 185.164062 123.140625 185.539062 121.90625 C 185.914062 120.667969 186.320312 119.441406 186.753906 118.222656 C 187.191406 117.003906 187.65625 115.800781 188.152344 114.605469 C 188.648438 113.410156 189.171875 112.230469 189.726562 111.058594 C 190.277344 109.890625 190.859375 108.738281 191.46875 107.597656 C 192.082031 106.457031 192.71875 105.332031 193.382812 104.222656 C 194.050781 103.113281 194.742188 102.019531 195.460938 100.945312 C 196.179688 99.871094 196.925781 98.816406 197.695312 97.777344 C 198.464844 96.738281 199.261719 95.71875 200.082031 94.71875 C 200.902344 93.71875 201.75 92.742188 202.617188 91.78125 C 203.488281 90.824219 204.378906 89.890625 205.292969 88.976562 C 206.210938 88.058594 207.144531 87.167969 208.105469 86.300781 C 209.0625 85.433594 210.042969 84.589844 211.042969 83.769531 C 212.042969 82.949219 213.066406 82.152344 214.105469 81.382812 C 215.144531 80.613281 216.199219 79.867188 217.277344 79.148438 C 218.351562 78.429688 219.445312 77.738281 220.554688 77.074219 C 221.667969 76.410156 222.792969 75.773438 223.933594 75.164062 C 225.074219 74.554688 226.230469 73.972656 227.398438 73.421875 C 228.570312 72.867188 229.753906 72.34375 230.949219 71.847656 C 232.144531 71.355469 233.351562 70.890625 234.570312 70.453125 C 235.789062 70.019531 237.015625 69.613281 238.253906 69.238281 C 239.492188 68.863281 240.742188 68.515625 241.996094 68.203125 C 243.25 67.890625 244.511719 67.605469 245.78125 67.355469 C 247.050781 67.101562 248.328125 66.878906 249.605469 66.691406 C 250.886719 66.5 252.171875 66.34375 253.460938 66.214844 C 254.746094 66.089844 256.039062 65.996094 257.328125 65.929688 C 258.621094 65.867188 259.914062 65.835938 261.210938 65.835938 C 262.503906 65.835938 263.796875 65.867188 265.089844 65.929688 C 266.382812 65.996094 267.671875 66.089844 268.960938 66.214844 C 270.25 66.34375 271.53125 66.5 272.8125 66.691406 C 274.09375 66.878906 275.367188 67.101562 276.636719 67.355469 C 277.90625 67.605469 279.167969 67.890625 280.425781 68.203125 C 281.679688 68.515625 282.925781 68.863281 284.164062 69.238281 C 285.402344 69.613281 286.632812 70.019531 287.851562 70.453125 C 289.070312 70.890625 290.277344 71.355469 291.472656 71.847656 C 292.667969 72.34375 293.847656 72.867188 295.019531 73.421875 C 296.1875 73.972656 297.34375 74.554688 298.484375 75.164062 C 299.628906 75.773438 300.753906 76.410156 301.863281 77.074219 C 302.972656 77.738281 304.066406 78.429688 305.140625 79.148438 C 306.21875 79.867188 307.277344 80.613281 308.316406 81.382812 C 309.355469 82.152344 310.375 82.949219 311.375 83.769531 C 312.375 84.589844 313.355469 85.433594 314.316406 86.300781 C 315.273438 87.167969 316.210938 88.058594 317.125 88.976562 C 318.039062 89.890625 318.933594 90.824219 319.800781 91.78125 C 320.671875 92.742188 321.515625 93.71875 322.335938 94.71875 C 323.15625 95.71875 323.953125 96.738281 324.726562 97.777344 C 325.496094 98.816406 326.242188 99.871094 326.960938 100.945312 C 327.679688 102.019531 328.371094 103.113281 329.035156 104.222656 C 329.703125 105.332031 330.339844 106.457031 330.949219 107.597656 C 331.558594 108.738281 332.140625 109.890625 332.695312 111.058594 C 333.246094 112.230469 333.773438 113.410156 334.265625 114.605469 C 334.761719 115.800781 335.226562 117.003906 335.664062 118.222656 C 336.101562 119.441406 336.503906 120.667969 336.882812 121.90625 C 337.257812 123.140625 337.601562 124.386719 337.917969 125.640625 C 338.230469 126.894531 338.515625 128.15625 338.765625 129.425781 C 339.019531 130.691406 339.242188 131.964844 339.429688 133.246094 C 339.621094 134.523438 339.777344 135.808594 339.90625 137.09375 C 340.03125 138.378906 340.128906 139.667969 340.191406 140.960938 C 340.253906 142.253906 340.285156 143.542969 340.285156 144.835938 C 340.285156 146.128906 340.253906 147.421875 340.191406 148.714844 C 340.128906 150.003906 340.03125 151.292969 339.90625 152.582031 C 339.777344 153.867188 339.621094 155.152344 339.429688 156.429688 C 339.242188 157.707031 339.019531 158.980469 338.765625 160.25 C 338.515625 161.519531 338.230469 162.777344 337.917969 164.035156 C 337.601562 165.289062 337.257812 166.535156 336.882812 167.769531 C 336.503906 169.007812 336.101562 170.234375 335.664062 171.453125 C 335.226562 172.667969 334.761719 173.875 334.265625 175.070312 C 333.773438 176.265625 333.246094 177.445312 332.695312 178.617188 C 332.140625 179.785156 331.558594 180.9375 330.949219 182.078125 C 330.339844 183.21875 329.703125 184.34375 329.035156 185.453125 C 328.371094 186.5625 327.679688 187.652344 326.960938 188.730469 C 326.242188 189.804688 325.496094 190.859375 324.726562 191.898438 C 323.953125 192.9375 323.15625 193.957031 322.335938 194.957031 C 321.515625 195.957031 320.671875 196.933594 319.800781 197.890625 C 318.933594 198.851562 318.039062 199.785156 317.125 200.699219 C 316.210938 201.613281 315.273438 202.507812 314.316406 203.375 C 313.355469 204.242188 312.375 205.085938 311.375 205.90625 C 310.375 206.726562 309.355469 207.523438 308.316406 208.292969 C 307.277344 209.0625 306.21875 209.808594 305.140625 210.523438 C 304.066406 211.242188 302.972656 211.933594 301.863281 212.601562 C 300.753906 213.265625 299.628906 213.902344 298.488281 214.511719 C 297.34375 215.121094 296.1875 215.703125 295.019531 216.253906 C 293.847656 216.808594 292.667969 217.332031 291.472656 217.824219 C 290.277344 218.320312 289.070312 218.785156 287.851562 219.222656 C 286.632812 219.65625 285.402344 220.0625 284.164062 220.4375 C 282.925781 220.8125 281.679688 221.15625 280.425781 221.472656 C 279.167969 221.785156 277.90625 222.070312 276.636719 222.320312 C 275.367188 222.574219 274.09375 222.792969 272.8125 222.984375 C 271.53125 223.175781 270.25 223.332031 268.960938 223.460938 C 267.671875 223.585938 266.382812 223.679688 265.089844 223.746094 C 263.796875 223.808594 262.503906 223.839844 261.210938 223.839844 Z M 261.210938 223.839844 " fill-opacity="1" fill-rule="nonzero"/></g><path fill="#b3404a" d="M 317.460938 105.757812 C 317.238281 105.441406 316.984375 105.152344 316.699219 104.894531 C 316.414062 104.632812 316.105469 104.40625 315.769531 104.214844 C 315.4375 104.019531 315.085938 103.867188 314.71875 103.753906 C 314.347656 103.636719 313.972656 103.5625 313.585938 103.53125 C 313.203125 103.496094 312.820312 103.507812 312.4375 103.558594 C 312.054688 103.609375 311.679688 103.703125 311.320312 103.835938 C 310.957031 103.96875 310.613281 104.140625 310.289062 104.347656 C 309.964844 104.558594 309.664062 104.800781 309.394531 105.074219 L 221.40625 192.976562 C 221.132812 193.246094 220.890625 193.546875 220.683594 193.871094 C 220.472656 194.195312 220.304688 194.539062 220.167969 194.898438 C 220.035156 195.261719 219.945312 195.632812 219.890625 196.015625 C 219.839844 196.398438 219.832031 196.78125 219.863281 197.164062 C 219.894531 197.550781 219.96875 197.925781 220.085938 198.292969 C 220.199219 198.660156 220.355469 199.011719 220.546875 199.347656 C 220.742188 199.683594 220.96875 199.992188 221.226562 200.277344 C 221.488281 200.558594 221.777344 200.8125 222.09375 201.035156 C 223.726562 202.164062 225.40625 203.222656 227.132812 204.210938 C 228.859375 205.195312 230.625 206.101562 232.429688 206.933594 C 234.234375 207.765625 236.074219 208.519531 237.945312 209.191406 C 239.816406 209.863281 241.710938 210.453125 243.632812 210.960938 C 245.554688 211.46875 247.496094 211.890625 249.453125 212.226562 C 251.414062 212.566406 253.382812 212.820312 255.363281 212.988281 C 257.34375 213.152344 259.328125 213.234375 261.316406 213.230469 C 263.304688 213.222656 265.289062 213.132812 267.269531 212.953125 C 269.25 212.777344 271.21875 212.511719 273.175781 212.164062 C 275.132812 211.816406 277.070312 211.382812 278.988281 210.863281 C 280.910156 210.347656 282.800781 209.746094 284.667969 209.066406 C 286.535156 208.382812 288.371094 207.621094 290.171875 206.78125 C 291.972656 205.9375 293.730469 205.019531 295.453125 204.027344 C 297.175781 203.03125 298.847656 201.964844 300.476562 200.824219 C 302.105469 199.683594 303.679688 198.476562 305.203125 197.199219 C 306.722656 195.921875 308.1875 194.578125 309.59375 193.175781 C 311 191.769531 312.339844 190.308594 313.621094 188.789062 C 314.898438 187.265625 316.109375 185.691406 317.25 184.066406 C 318.390625 182.441406 319.457031 180.769531 320.453125 179.046875 C 321.449219 177.328125 322.367188 175.570312 323.210938 173.769531 C 324.054688 171.972656 324.816406 170.140625 325.5 168.273438 C 326.179688 166.410156 326.78125 164.519531 327.300781 162.601562 C 327.816406 160.683594 328.25 158.746094 328.601562 156.792969 C 328.949219 154.835938 329.214844 152.871094 329.390625 150.890625 C 329.570312 148.914062 329.660156 146.929688 329.667969 144.945312 C 329.671875 142.960938 329.589844 140.976562 329.421875 138.996094 C 329.257812 137.019531 329.003906 135.050781 328.664062 133.09375 C 328.324219 131.136719 327.902344 129.199219 327.394531 127.277344 C 326.886719 125.355469 326.296875 123.460938 325.625 121.59375 C 324.953125 119.726562 324.199219 117.886719 323.367188 116.085938 C 322.535156 114.28125 321.625 112.515625 320.636719 110.792969 C 319.652344 109.070312 318.59375 107.390625 317.460938 105.757812 Z M 271.753906 160.636719 C 271.753906 161.328125 271.6875 162.015625 271.550781 162.691406 C 271.414062 163.371094 271.214844 164.03125 270.949219 164.667969 C 270.6875 165.308594 270.359375 165.914062 269.976562 166.488281 C 269.59375 167.066406 269.15625 167.597656 268.664062 168.085938 C 268.175781 168.574219 267.644531 169.011719 267.066406 169.394531 C 266.492188 169.78125 265.882812 170.105469 265.246094 170.371094 C 264.605469 170.632812 263.945312 170.835938 263.265625 170.96875 C 262.585938 171.105469 261.902344 171.171875 261.210938 171.171875 C 260.296875 171.160156 259.402344 171.035156 258.519531 170.804688 L 271.382812 157.953125 C 271.613281 158.832031 271.738281 159.726562 271.753906 160.636719 Z M 261.210938 202.773438 C 256.375 202.777344 251.613281 202.183594 246.925781 200.988281 C 242.238281 199.792969 237.773438 198.035156 233.53125 195.714844 L 250.667969 178.753906 C 252.328125 179.722656 254.085938 180.457031 255.9375 180.96875 L 255.9375 192.238281 L 266.480469 192.238281 L 266.480469 180.96875 C 267.261719 180.761719 268.023438 180.511719 268.777344 180.214844 C 269.527344 179.921875 270.257812 179.585938 270.96875 179.207031 C 271.679688 178.828125 272.367188 178.410156 273.03125 177.953125 C 273.695312 177.496094 274.332031 177.003906 274.9375 176.472656 C 275.546875 175.945312 276.121094 175.382812 276.664062 174.785156 C 277.203125 174.191406 277.710938 173.566406 278.183594 172.910156 C 278.652344 172.257812 279.085938 171.578125 279.476562 170.875 C 279.871094 170.171875 280.222656 169.449219 280.53125 168.707031 C 280.84375 167.960938 281.109375 167.203125 281.332031 166.429688 C 281.554688 165.65625 281.730469 164.871094 281.863281 164.078125 C 281.996094 163.28125 282.085938 162.484375 282.125 161.679688 C 282.164062 160.875 282.160156 160.070312 282.109375 159.265625 C 282.058594 158.460938 281.960938 157.664062 281.816406 156.871094 C 281.675781 156.078125 281.488281 155.296875 281.253906 154.527344 C 281.023438 153.753906 280.746094 153 280.425781 152.261719 C 280.105469 151.519531 279.746094 150.800781 279.34375 150.105469 L 312.136719 117.34375 C 312.726562 118.441406 313.28125 119.554688 313.800781 120.6875 C 314.320312 121.820312 314.804688 122.96875 315.25 124.128906 C 315.695312 125.292969 316.101562 126.46875 316.472656 127.660156 C 316.84375 128.847656 317.171875 130.050781 317.464844 131.261719 C 317.757812 132.472656 318.011719 133.691406 318.222656 134.917969 C 318.4375 136.144531 318.613281 137.378906 318.746094 138.617188 C 318.878906 139.855469 318.972656 141.09375 319.027344 142.339844 C 319.082031 143.585938 319.09375 144.828125 319.066406 146.074219 C 319.039062 147.320312 318.972656 148.5625 318.867188 149.804688 C 318.761719 151.042969 318.613281 152.28125 318.425781 153.511719 C 318.238281 154.742188 318.015625 155.96875 317.75 157.183594 C 317.484375 158.402344 317.179688 159.609375 316.835938 160.804688 C 316.492188 162.003906 316.109375 163.1875 315.6875 164.363281 C 315.269531 165.535156 314.8125 166.691406 314.316406 167.835938 C 313.820312 168.980469 313.289062 170.105469 312.722656 171.214844 C 312.15625 172.324219 311.550781 173.414062 310.914062 174.480469 C 310.277344 175.550781 309.605469 176.601562 308.898438 177.628906 C 308.191406 178.65625 307.453125 179.65625 306.683594 180.636719 C 305.914062 181.617188 305.113281 182.570312 304.28125 183.496094 C 303.449219 184.425781 302.589844 185.324219 301.699219 186.195312 C 300.808594 187.070312 299.890625 187.910156 298.945312 188.726562 C 298.003906 189.539062 297.03125 190.320312 296.039062 191.070312 C 295.042969 191.820312 294.023438 192.539062 292.984375 193.222656 C 291.941406 193.910156 290.878906 194.558594 289.796875 195.175781 C 288.714844 195.792969 287.609375 196.375 286.492188 196.917969 C 285.371094 197.464844 284.234375 197.972656 283.078125 198.445312 C 281.925781 198.917969 280.757812 199.351562 279.574219 199.75 C 278.394531 200.148438 277.199219 200.507812 275.996094 200.824219 C 274.792969 201.144531 273.578125 201.425781 272.355469 201.667969 C 271.132812 201.910156 269.902344 202.113281 268.664062 202.277344 C 267.429688 202.4375 266.191406 202.5625 264.945312 202.644531 C 263.703125 202.726562 262.457031 202.769531 261.210938 202.773438 Z M 261.210938 202.773438 " fill-opacity="1" fill-rule="nonzero"/><path fill="#b3404a" d="M 302.539062 92.484375 C 302.472656 91.714844 302.246094 90.992188 301.859375 90.320312 C 301.472656 89.648438 300.960938 89.085938 300.328125 88.640625 C 298.691406 87.507812 297.011719 86.449219 295.285156 85.464844 C 293.558594 84.480469 291.792969 83.570312 289.988281 82.738281 C 288.183594 81.90625 286.347656 81.15625 284.476562 80.484375 C 282.605469 79.8125 280.707031 79.222656 278.785156 78.714844 C 276.863281 78.207031 274.925781 77.785156 272.964844 77.445312 C 271.007812 77.109375 269.035156 76.855469 267.054688 76.6875 C 265.074219 76.519531 263.089844 76.441406 261.101562 76.445312 C 259.113281 76.449219 257.128906 76.542969 255.148438 76.71875 C 253.171875 76.898438 251.203125 77.160156 249.246094 77.511719 C 247.289062 77.859375 245.347656 78.292969 243.429688 78.808594 C 241.511719 79.328125 239.617188 79.925781 237.75 80.609375 C 235.882812 81.292969 234.050781 82.054688 232.25 82.894531 C 230.449219 83.738281 228.6875 84.65625 226.964844 85.648438 C 225.246094 86.644531 223.570312 87.710938 221.945312 88.851562 C 220.316406 89.992188 218.742188 91.199219 217.21875 92.476562 C 215.695312 93.753906 214.230469 95.09375 212.824219 96.5 C 211.421875 97.902344 210.078125 99.367188 208.800781 100.886719 C 207.523438 102.410156 206.3125 103.980469 205.171875 105.609375 C 204.03125 107.234375 202.960938 108.90625 201.964844 110.625 C 200.96875 112.347656 200.050781 114.105469 199.207031 115.902344 C 198.367188 117.703125 197.605469 119.535156 196.921875 121.398438 C 196.238281 123.265625 195.636719 125.15625 195.121094 127.074219 C 194.601562 128.992188 194.167969 130.929688 193.820312 132.882812 C 193.46875 134.839844 193.207031 136.804688 193.027344 138.785156 C 192.851562 140.761719 192.757812 142.742188 192.753906 144.730469 C 192.75 146.714844 192.828125 148.699219 192.996094 150.675781 C 193.164062 152.65625 193.417969 154.625 193.753906 156.582031 C 194.09375 158.539062 194.519531 160.476562 195.023438 162.398438 C 195.53125 164.316406 196.125 166.210938 196.796875 168.082031 C 197.46875 169.949219 198.222656 171.785156 199.054688 173.589844 C 199.886719 175.394531 200.796875 177.15625 201.78125 178.882812 C 202.769531 180.605469 203.828125 182.285156 204.960938 183.917969 C 205.40625 184.550781 205.96875 185.0625 206.640625 185.449219 C 207.3125 185.835938 208.035156 186.0625 208.808594 186.128906 L 209.28125 186.128906 C 209.988281 186.125 210.664062 185.988281 211.3125 185.714844 C 211.960938 185.441406 212.53125 185.050781 213.027344 184.550781 L 301.011719 96.699219 C 301.566406 96.144531 301.980469 95.5 302.246094 94.761719 C 302.515625 94.027344 302.613281 93.265625 302.539062 92.484375 Z M 250.667969 129.039062 C 250.667969 128.34375 250.734375 127.660156 250.867188 126.980469 C 251.003906 126.304688 251.203125 125.644531 251.46875 125.007812 C 251.734375 124.367188 252.058594 123.761719 252.441406 123.183594 C 252.828125 122.609375 253.265625 122.078125 253.753906 121.589844 C 254.242188 121.101562 254.777344 120.664062 255.351562 120.277344 C 255.929688 119.894531 256.535156 119.570312 257.175781 119.304688 C 257.816406 119.039062 258.472656 118.839844 259.152344 118.707031 C 259.832031 118.570312 260.515625 118.503906 261.210938 118.503906 C 262.121094 118.519531 263.015625 118.640625 263.898438 118.871094 L 251.035156 131.722656 C 250.808594 130.84375 250.6875 129.945312 250.667969 129.039062 Z M 271.753906 110.917969 C 270.09375 109.953125 268.335938 109.214844 266.480469 108.707031 L 266.480469 97.4375 L 255.9375 97.4375 L 255.9375 108.707031 C 255.160156 108.914062 254.394531 109.164062 253.644531 109.460938 C 252.894531 109.753906 252.164062 110.089844 251.449219 110.46875 C 250.738281 110.847656 250.050781 111.265625 249.386719 111.722656 C 248.722656 112.179688 248.089844 112.671875 247.480469 113.203125 C 246.875 113.730469 246.300781 114.292969 245.757812 114.890625 C 245.214844 115.484375 244.707031 116.109375 244.238281 116.765625 C 243.765625 117.417969 243.335938 118.097656 242.941406 118.800781 C 242.546875 119.503906 242.199219 120.226562 241.886719 120.96875 C 241.578125 121.714844 241.3125 122.472656 241.089844 123.246094 C 240.867188 124.019531 240.6875 124.804688 240.554688 125.597656 C 240.421875 126.394531 240.335938 127.191406 240.292969 127.996094 C 240.253906 128.800781 240.257812 129.605469 240.308594 130.410156 C 240.363281 131.210938 240.457031 132.011719 240.601562 132.804688 C 240.746094 133.59375 240.933594 134.378906 241.164062 135.148438 C 241.398438 135.917969 241.671875 136.675781 241.992188 137.414062 C 242.3125 138.152344 242.671875 138.871094 243.074219 139.570312 L 210.285156 172.332031 C 209.554688 170.96875 208.882812 169.582031 208.261719 168.167969 C 207.644531 166.753906 207.082031 165.316406 206.578125 163.855469 C 206.074219 162.398438 205.632812 160.921875 205.246094 159.425781 C 204.859375 157.929688 204.535156 156.421875 204.269531 154.902344 C 204.007812 153.382812 203.800781 151.851562 203.660156 150.316406 C 203.515625 148.78125 203.4375 147.238281 203.417969 145.695312 C 203.398438 144.152344 203.441406 142.609375 203.542969 141.070312 C 203.648438 139.53125 203.8125 137.996094 204.042969 136.46875 C 204.269531 134.945312 204.554688 133.429688 204.902344 131.925781 C 205.25 130.421875 205.660156 128.933594 206.125 127.460938 C 206.59375 125.992188 207.117188 124.539062 207.699219 123.109375 C 208.285156 121.679688 208.921875 120.277344 209.617188 118.898438 C 210.3125 117.519531 211.0625 116.171875 211.867188 114.855469 C 212.671875 113.535156 213.523438 112.25 214.429688 111 C 215.335938 109.75 216.292969 108.539062 217.292969 107.363281 C 218.296875 106.191406 219.34375 105.058594 220.4375 103.96875 C 221.53125 102.878906 222.667969 101.832031 223.84375 100.832031 C 225.023438 99.832031 226.238281 98.882812 227.492188 97.980469 C 228.746094 97.078125 230.03125 96.226562 231.351562 95.425781 C 232.675781 94.625 234.027344 93.878906 235.40625 93.1875 C 236.789062 92.496094 238.195312 91.859375 239.625 91.28125 C 241.058594 90.699219 242.511719 90.179688 243.984375 89.714844 C 245.457031 89.25 246.949219 88.847656 248.453125 88.503906 C 249.960938 88.160156 251.476562 87.875 253.003906 87.652344 C 254.535156 87.425781 256.070312 87.265625 257.609375 87.164062 C 259.152344 87.0625 260.695312 87.023438 262.242188 87.046875 C 263.785156 87.070312 265.328125 87.152344 266.867188 87.296875 C 268.402344 87.441406 269.933594 87.648438 271.457031 87.917969 C 272.976562 88.183594 274.484375 88.511719 275.980469 88.902344 C 277.476562 89.289062 278.953125 89.734375 280.414062 90.242188 C 281.871094 90.746094 283.308594 91.3125 284.722656 91.933594 C 286.140625 92.550781 287.527344 93.230469 288.886719 93.960938 Z M 271.753906 110.917969 " fill-opacity="1" fill-rule="nonzero"/><path fill="#b3404a" d="M 72.96875 106.398438 L 80.421875 98.949219 L 101.523438 120.027344 L 94.066406 127.476562 Z M 72.96875 106.398438 " fill-opacity="1" fill-rule="nonzero"/><path fill="#b3404a" d="M 125.691406 120.074219 L 146.789062 98.996094 L 154.246094 106.445312 L 133.148438 127.523438 Z M 125.691406 120.074219 " fill-opacity="1" fill-rule="nonzero"/><path fill="#b3404a" d="M 108.328125 86.902344 L 118.871094 86.902344 L 118.871094 118.503906 L 108.328125 118.503906 Z M 108.328125 86.902344 " fill-opacity="1" fill-rule="nonzero"/></svg>