<svg xmlns="http://www.w3.org/2000/svg" xmlns:xlink="http://www.w3.org/1999/xlink" width="500" zoomAndPan="magnify" viewBox="0 0 375.12 383.03998" height="500" preserveAspectRatio="xMidYMid meet" version="1.0"><defs><clipPath id="ef9923bbdc"><path d="M 14.492188 8.4375 L 199 8.4375 L 199 365.292969 L 14.492188 365.292969 Z M 14.492188 8.4375 " clip-rule="nonzero"/></clipPath><clipPath id="36417fbbc8"><path d="M 115 85 L 359.378906 85 L 359.378906 288 L 115 288 Z M 115 85 " clip-rule="nonzero"/></clipPath></defs><path fill="#000000" d="M 186.578125 161.003906 C 185.6875 158.683594 183.488281 157.140625 180.992188 157.140625 C 178.492188 157.140625 176.292969 158.683594 175.402344 161.003906 L 157.5625 208.5625 C 156.433594 211.65625 157.976562 215.042969 161.070312 216.234375 C 164.164062 217.363281 167.550781 215.816406 168.742188 212.726562 L 171.773438 204.699219 L 190.265625 204.699219 L 193.300781 212.726562 C 194.191406 215.101562 196.449219 216.589844 198.890625 216.589844 C 199.601562 216.589844 200.316406 216.472656 200.96875 216.234375 C 204.0625 215.101562 205.609375 211.65625 204.417969 208.5625 Z M 176.234375 192.808594 L 181.050781 180.027344 L 185.867188 192.808594 Z M 176.234375 192.808594 " fill-opacity="1" fill-rule="nonzero"/><path fill="#000000" d="M 216.667969 157.140625 C 213.398438 157.140625 210.722656 159.8125 210.722656 163.082031 L 210.722656 210.644531 C 210.722656 213.914062 213.398438 216.589844 216.667969 216.589844 C 219.9375 216.589844 222.613281 213.914062 222.613281 210.644531 L 222.613281 163.082031 C 222.613281 159.8125 219.9375 157.140625 216.667969 157.140625 Z M 216.667969 157.140625 " fill-opacity="1" fill-rule="nonzero"/><g clip-path="url(#ef9923bbdc)"><path fill="#000000" d="M 192.882812 287.929688 C 137.167969 287.929688 91.796875 242.570312 91.796875 186.863281 C 91.796875 131.160156 137.167969 85.796875 192.882812 85.796875 C 196.152344 85.796875 198.828125 83.121094 198.828125 79.851562 L 198.828125 14.457031 C 198.828125 11.1875 196.152344 8.511719 192.882812 8.511719 L 161.546875 8.511719 C 158.8125 8.511719 156.433594 10.355469 155.777344 13.03125 L 147.273438 47.15625 C 140.019531 49.53125 133.003906 52.386719 126.34375 55.773438 L 96.195312 37.703125 C 93.878906 36.273438 90.84375 36.691406 88.941406 38.59375 L 44.640625 82.882812 C 42.738281 84.789062 42.324219 87.820312 43.75 90.136719 L 61.828125 120.277344 C 58.4375 126.9375 55.523438 133.953125 53.203125 141.207031 L 19.074219 149.707031 C 16.398438 150.363281 14.554688 152.738281 14.554688 155.472656 L 14.554688 218.136719 C 14.554688 220.871094 16.398438 223.25 19.074219 223.902344 L 53.203125 232.402344 C 55.582031 239.65625 58.4375 246.671875 61.828125 253.332031 L 43.75 283.472656 C 42.324219 285.789062 42.738281 288.824219 44.640625 290.726562 L 88.941406 335.015625 C 90.84375 336.917969 93.878906 337.335938 96.195312 335.90625 L 126.34375 317.835938 C 133.003906 321.222656 140.019531 324.136719 147.273438 326.453125 L 155.777344 360.578125 C 156.433594 363.253906 158.8125 365.097656 161.546875 365.097656 L 192.882812 365.097656 C 196.152344 365.097656 198.828125 362.421875 198.828125 359.152344 L 198.828125 293.757812 C 198.828125 290.488281 196.152344 287.8125 192.882812 287.8125 Z M 186.9375 353.328125 L 166.183594 353.328125 L 157.976562 320.449219 C 157.441406 318.429688 155.898438 316.824219 153.933594 316.167969 C 145.195312 313.554688 136.75 310.105469 128.960938 305.882812 C 127.117188 304.875 124.855469 304.933594 123.074219 306.003906 L 94.054688 323.421875 L 56.296875 285.671875 L 73.71875 256.660156 C 74.789062 254.875 74.847656 252.617188 73.839844 250.773438 C 69.617188 242.984375 66.167969 234.542969 63.550781 225.804688 C 62.957031 223.78125 61.351562 222.238281 59.269531 221.761719 L 26.386719 213.558594 L 26.386719 160.171875 L 59.269531 151.964844 C 61.292969 151.429688 62.898438 149.886719 63.550781 147.925781 C 66.167969 139.183594 69.617188 130.742188 73.839844 122.953125 C 74.847656 121.113281 74.789062 118.851562 73.71875 117.070312 L 56.296875 88.058594 L 94.054688 50.304688 L 123.074219 67.726562 C 124.855469 68.792969 127.117188 68.855469 128.960938 67.84375 C 136.75 63.621094 145.195312 60.175781 153.933594 57.558594 C 155.957031 56.964844 157.503906 55.359375 157.976562 53.277344 L 166.183594 20.402344 L 186.9375 20.402344 L 186.9375 74.085938 C 127.414062 77.175781 79.902344 126.582031 79.902344 186.863281 C 79.902344 247.148438 127.414062 296.550781 186.9375 299.640625 Z M 186.9375 353.328125 " fill-opacity="1" fill-rule="nonzero"/></g><g clip-path="url(#36417fbbc8)"><path fill="#000000" d="M 335.59375 163.082031 C 324.535156 163.082031 315.316406 170.695312 312.640625 180.917969 L 252.347656 180.917969 L 252.347656 157.140625 L 276.132812 157.140625 C 277.796875 157.140625 279.402344 156.425781 280.53125 155.175781 L 302.296875 131.335938 C 305.207031 132.585938 308.417969 133.359375 311.808594 133.359375 C 324.949219 133.359375 335.59375 122.714844 335.59375 109.578125 C 335.59375 96.441406 324.949219 85.796875 311.808594 85.796875 C 298.667969 85.796875 288.023438 96.441406 288.023438 109.578125 C 288.023438 114.988281 289.925781 119.921875 292.960938 123.90625 L 273.515625 145.25 L 252.347656 145.25 L 252.347656 133.359375 C 252.347656 130.089844 249.671875 127.414062 246.398438 127.414062 L 234.507812 127.414062 L 234.507812 115.523438 C 234.507812 112.253906 231.832031 109.578125 228.5625 109.578125 C 225.289062 109.578125 222.613281 112.253906 222.613281 115.523438 L 222.613281 127.414062 L 198.828125 127.414062 L 198.828125 115.523438 C 198.828125 112.253906 196.152344 109.578125 192.882812 109.578125 C 189.613281 109.578125 186.9375 112.253906 186.9375 115.523438 L 186.9375 127.414062 L 163.152344 127.414062 L 163.152344 115.523438 C 163.152344 112.253906 160.476562 109.578125 157.207031 109.578125 C 153.933594 109.578125 151.257812 112.253906 151.257812 115.523438 L 151.257812 127.414062 L 139.367188 127.414062 C 136.097656 127.414062 133.421875 130.089844 133.421875 133.359375 L 133.421875 145.25 L 121.527344 145.25 C 118.257812 145.25 115.582031 147.925781 115.582031 151.195312 C 115.582031 154.464844 118.257812 157.140625 121.527344 157.140625 L 133.421875 157.140625 L 133.421875 180.917969 L 121.527344 180.917969 C 118.257812 180.917969 115.582031 183.59375 115.582031 186.863281 C 115.582031 190.132812 118.257812 192.808594 121.527344 192.808594 L 133.421875 192.808594 L 133.421875 216.589844 L 121.527344 216.589844 C 118.257812 216.589844 115.582031 219.265625 115.582031 222.535156 C 115.582031 225.804688 118.257812 228.480469 121.527344 228.480469 L 133.421875 228.480469 L 133.421875 240.371094 C 133.421875 243.640625 136.097656 246.316406 139.367188 246.316406 L 151.257812 246.316406 L 151.257812 258.207031 C 151.257812 261.476562 153.933594 264.148438 157.207031 264.148438 C 160.476562 264.148438 163.152344 261.476562 163.152344 258.207031 L 163.152344 246.316406 L 186.9375 246.316406 L 186.9375 258.207031 C 186.9375 261.476562 189.613281 264.148438 192.882812 264.148438 C 196.152344 264.148438 198.828125 261.476562 198.828125 258.207031 L 198.828125 246.316406 L 222.613281 246.316406 L 222.613281 258.207031 C 222.613281 261.476562 225.289062 264.148438 228.5625 264.148438 C 231.832031 264.148438 234.507812 261.476562 234.507812 258.207031 L 234.507812 246.316406 L 246.398438 246.316406 C 249.671875 246.316406 252.347656 243.640625 252.347656 240.371094 L 252.347656 228.480469 L 273.515625 228.480469 L 292.960938 249.824219 C 289.925781 253.804688 288.023438 258.742188 288.023438 264.148438 C 288.023438 277.289062 298.667969 287.929688 311.808594 287.929688 C 324.949219 287.929688 335.59375 277.289062 335.59375 264.148438 C 335.59375 251.011719 324.949219 240.371094 311.808594 240.371094 C 308.417969 240.371094 305.207031 241.082031 302.296875 242.390625 L 280.53125 218.550781 C 279.402344 217.304688 277.796875 216.589844 276.132812 216.589844 L 252.347656 216.589844 L 252.347656 192.808594 L 312.640625 192.808594 C 315.316406 203.035156 324.535156 210.644531 335.59375 210.644531 C 348.734375 210.644531 359.378906 200.003906 359.378906 186.863281 C 359.378906 173.726562 348.734375 163.082031 335.59375 163.082031 Z M 311.808594 97.6875 C 318.351562 97.6875 323.703125 103.039062 323.703125 109.578125 C 323.703125 116.117188 318.351562 121.46875 311.808594 121.46875 C 305.269531 121.46875 299.917969 116.117188 299.917969 109.578125 C 299.917969 103.039062 305.269531 97.6875 311.808594 97.6875 Z M 323.703125 264.148438 C 323.703125 270.691406 318.351562 276.039062 311.808594 276.039062 C 305.269531 276.039062 299.917969 270.691406 299.917969 264.148438 C 299.917969 257.609375 305.269531 252.261719 311.808594 252.261719 C 318.351562 252.261719 323.703125 257.609375 323.703125 264.148438 Z M 240.453125 234.425781 L 145.3125 234.425781 L 145.3125 139.304688 L 240.453125 139.304688 Z M 335.59375 198.753906 C 329.054688 198.753906 323.703125 193.402344 323.703125 186.863281 C 323.703125 180.324219 329.054688 174.972656 335.59375 174.972656 C 342.136719 174.972656 347.488281 180.324219 347.488281 186.863281 C 347.488281 193.402344 342.136719 198.753906 335.59375 198.753906 Z M 335.59375 198.753906 " fill-opacity="1" fill-rule="nonzero"/></g></svg>