<svg xmlns="http://www.w3.org/2000/svg" xmlns:xlink="http://www.w3.org/1999/xlink" width="500" zoomAndPan="magnify" viewBox="0 0 375.12 383.03998" height="500" preserveAspectRatio="xMidYMid meet" version="1.0"><defs><clipPath id="606ab668a8"><path d="M 16.199219 16.171875 L 358.09375 16.171875 L 358.09375 358.0625 L 16.199219 358.0625 Z M 16.199219 16.171875 " clip-rule="nonzero"/></clipPath></defs><path fill="#000000" d="M 238.363281 206.710938 C 234.492188 206.710938 230.808594 207.875 227.679688 210.015625 C 224.433594 207.621094 220.5625 206.269531 216.453125 206.269531 C 211.371094 206.269531 206.597656 208.246094 203.003906 211.839844 C 201.335938 213.511719 201.335938 216.21875 203.003906 217.882812 C 204.675781 219.554688 207.382812 219.554688 209.046875 217.882812 C 213.003906 213.929688 219.898438 213.925781 223.859375 217.882812 C 225.835938 219.863281 226.925781 222.492188 226.925781 225.289062 C 226.925781 228.085938 225.835938 230.714844 223.859375 232.695312 C 222.1875 234.363281 222.1875 237.066406 223.859375 238.738281 C 224.691406 239.570312 225.785156 239.988281 226.878906 239.988281 C 227.972656 239.988281 229.066406 239.570312 229.902344 238.738281 C 233.496094 235.144531 235.472656 230.371094 235.472656 225.289062 C 235.472656 222.222656 234.671875 219.304688 233.308594 216.652344 C 237.273438 214.535156 242.511719 215.066406 245.769531 218.328125 C 246.605469 219.160156 247.699219 219.578125 248.792969 219.578125 C 249.886719 219.578125 250.980469 219.160156 251.8125 218.328125 C 253.484375 216.660156 253.484375 213.953125 251.8125 212.285156 C 248.222656 208.691406 243.445312 206.710938 238.363281 206.710938 Z M 238.363281 206.710938 " fill-opacity="1" fill-rule="nonzero"/><path fill="#000000" d="M 272.503906 194.398438 C 271.457031 193.304688 270.324219 192.285156 269.128906 191.355469 C 274.429688 187.558594 277.855469 181.355469 277.855469 174.53125 C 277.855469 165.191406 271.621094 157.253906 263.09375 154.675781 C 265.0625 147.949219 264.71875 140.710938 262.035156 133.804688 C 258.902344 125.734375 252.171875 119.210938 244.039062 116.359375 C 237.375 114.019531 230.566406 113.800781 224.28125 115.59375 C 224.566406 112.253906 224.039062 108.800781 222.660156 105.453125 C 220.535156 100.296875 216.304688 96.269531 211.046875 94.402344 C 204.339844 92.019531 197.273438 92.929688 191.664062 96.886719 C 189.914062 98.125 188.414062 99.628906 187.148438 101.296875 C 185.878906 99.628906 184.382812 98.125 182.628906 96.886719 C 177.023438 92.929688 169.957031 92.019531 163.246094 94.402344 C 157.992188 96.269531 153.757812 100.296875 151.636719 105.453125 C 150.257812 108.800781 149.730469 112.253906 150.015625 115.59375 C 143.738281 113.800781 136.921875 114.019531 130.253906 116.359375 C 122.121094 119.210938 115.394531 125.734375 112.257812 133.804688 C 109.574219 140.710938 109.234375 147.949219 111.199219 154.675781 C 102.675781 157.253906 96.4375 165.191406 96.4375 174.53125 C 96.4375 181.355469 99.863281 187.558594 105.167969 191.355469 C 103.96875 192.285156 102.839844 193.304688 101.792969 194.398438 C 101.789062 194.398438 101.789062 194.398438 101.789062 194.398438 C 96.160156 200.277344 93.058594 207.992188 93.058594 216.128906 C 93.058594 229.773438 101.761719 241.609375 114.335938 245.882812 C 113.152344 251.117188 113.722656 256.546875 116.046875 261.824219 C 118.476562 267.339844 123.105469 271.835938 128.746094 274.15625 C 135.40625 276.910156 142.320312 276.867188 148.570312 274.109375 C 153.34375 278.6875 159.523438 281.125 166.003906 281.121094 C 169.273438 281.121094 172.625 280.5 175.902344 279.222656 C 180.546875 277.414062 184.429688 274.144531 187.148438 270.019531 C 189.867188 274.144531 193.746094 277.414062 198.390625 279.222656 C 201.671875 280.5 205.019531 281.121094 208.292969 281.121094 C 214.773438 281.121094 220.953125 278.6875 225.726562 274.109375 C 231.976562 276.867188 238.894531 276.90625 245.546875 274.160156 C 251.1875 271.835938 255.816406 267.339844 258.246094 261.824219 C 260.570312 256.546875 261.144531 251.117188 259.960938 245.882812 C 272.535156 241.609375 281.234375 229.773438 281.234375 216.128906 C 281.234375 207.992188 278.132812 200.277344 272.507812 194.398438 C 272.507812 194.398438 272.507812 194.398438 272.503906 194.398438 Z M 172.804688 271.257812 C 163.851562 274.746094 156.625 270.902344 152.851562 266.136719 C 152.011719 265.085938 150.765625 264.523438 149.5 264.523438 C 148.730469 264.523438 147.957031 264.730469 147.257812 265.160156 C 143.984375 267.179688 138.683594 269.011719 132.003906 266.253906 C 128.382812 264.765625 125.417969 261.890625 123.867188 258.378906 C 121.296875 252.535156 122.367188 247.671875 123.722656 244.617188 C 124.253906 243.417969 124.203125 242.035156 123.585938 240.875 C 122.964844 239.714844 121.847656 238.902344 120.550781 238.675781 C 109.574219 236.753906 101.609375 227.273438 101.609375 216.128906 C 101.609375 210.207031 103.863281 204.59375 107.960938 200.3125 C 110.292969 197.878906 113.183594 195.957031 116.3125 194.75 C 118.125 194.054688 119.238281 192.222656 119.027344 190.292969 C 118.8125 188.363281 117.324219 186.820312 115.402344 186.535156 C 109.367188 185.640625 104.984375 180.59375 104.984375 174.53125 C 104.984375 167.839844 110.433594 162.367188 117.132812 162.339844 C 118.613281 162.332031 119.984375 161.5625 120.757812 160.300781 C 121.53125 159.039062 121.597656 157.46875 120.933594 156.144531 C 118.828125 151.957031 116.996094 145.214844 120.226562 136.898438 C 122.46875 131.125 127.277344 126.460938 133.085938 124.421875 C 141.058594 121.621094 149.269531 122.902344 155.609375 127.921875 C 157.339844 129.292969 159.828125 129.121094 161.347656 127.527344 C 162.875 125.9375 162.9375 123.445312 161.496094 121.777344 C 158.339844 118.125 157.625 113.363281 159.539062 108.710938 C 160.722656 105.835938 163.175781 103.496094 166.105469 102.457031 C 170.164062 101.011719 174.386719 101.53125 177.699219 103.867188 C 180.941406 106.15625 182.875 109.886719 182.875 113.84375 L 182.875 229.1875 C 179.105469 226.226562 174.421875 224.386719 169.269531 224.386719 C 157.050781 224.386719 147.117188 234.324219 147.117188 246.539062 C 147.117188 248.898438 149.027344 250.8125 151.390625 250.8125 C 153.75 250.8125 155.664062 248.898438 155.664062 246.539062 C 155.664062 239.035156 161.765625 232.933594 169.269531 232.933594 C 176.769531 232.933594 182.875 239.035156 182.875 246.539062 L 182.875 255.699219 C 182.875 262.660156 178.824219 268.910156 172.804688 271.257812 Z M 253.742188 238.675781 C 252.449219 238.902344 251.328125 239.714844 250.710938 240.875 C 250.089844 242.035156 250.039062 243.417969 250.574219 244.617188 C 251.925781 247.671875 253 252.535156 250.425781 258.378906 C 248.878906 261.890625 245.914062 264.765625 242.289062 266.257812 C 235.617188 269.011719 230.3125 267.179688 227.035156 265.160156 C 225.191406 264.027344 222.792969 264.445312 221.445312 266.136719 C 217.667969 270.898438 210.449219 274.746094 201.492188 271.257812 C 195.46875 268.910156 191.421875 262.660156 191.421875 255.699219 L 191.421875 170.289062 C 195.1875 173.25 199.875 175.089844 205.027344 175.089844 C 217.242188 175.089844 227.179688 165.152344 227.179688 152.9375 C 227.179688 150.578125 225.265625 148.664062 222.90625 148.664062 C 220.546875 148.664062 218.632812 150.578125 218.632812 152.9375 C 218.632812 160.4375 212.527344 166.542969 205.027344 166.542969 C 197.523438 166.542969 191.421875 160.4375 191.421875 152.9375 L 191.421875 113.84375 C 191.421875 109.886719 193.355469 106.15625 196.59375 103.867188 C 198.671875 102.402344 201.105469 101.65625 203.628906 101.65625 C 205.136719 101.65625 206.671875 101.917969 208.1875 102.457031 C 211.117188 103.496094 213.570312 105.835938 214.753906 108.710938 C 216.671875 113.363281 215.957031 118.125 212.800781 121.777344 C 211.359375 123.445312 211.421875 125.9375 212.945312 127.527344 C 214.46875 129.121094 216.957031 129.292969 218.6875 127.921875 C 225.023438 122.898438 233.230469 121.625 241.210938 124.421875 C 247.019531 126.460938 251.828125 131.125 254.070312 136.898438 C 257.300781 145.214844 255.46875 151.957031 253.363281 156.144531 C 252.699219 157.46875 252.765625 159.039062 253.539062 160.300781 C 254.3125 161.5625 255.683594 162.332031 257.164062 162.339844 C 263.859375 162.367188 269.308594 167.839844 269.308594 174.53125 C 269.308594 180.59375 264.929688 185.640625 258.890625 186.535156 C 256.972656 186.820312 255.484375 188.363281 255.269531 190.292969 C 255.058594 192.222656 256.171875 194.054688 257.980469 194.75 C 261.113281 195.957031 264 197.878906 266.335938 200.3125 C 270.433594 204.59375 272.6875 210.207031 272.6875 216.128906 C 272.6875 227.273438 264.71875 236.753906 253.742188 238.675781 Z M 253.742188 238.675781 " fill-opacity="1" fill-rule="nonzero"/><path fill="#000000" d="M 155.335938 187.328125 C 155.335938 189.6875 157.25 191.601562 159.609375 191.601562 C 161.96875 191.601562 163.882812 189.6875 163.882812 187.328125 C 163.882812 180.632812 160.386719 174.761719 155.144531 171.371094 C 155.167969 171.351562 155.191406 171.335938 155.214844 171.316406 C 162.628906 163.902344 162.628906 151.835938 155.214844 144.417969 C 153.542969 142.75 150.839844 142.75 149.171875 144.417969 C 147.5 146.085938 147.5 148.792969 149.171875 150.460938 C 153.253906 154.546875 153.253906 161.191406 149.171875 165.273438 C 145.089844 169.355469 138.441406 169.355469 134.359375 165.273438 C 132.691406 163.605469 129.980469 163.605469 128.316406 165.273438 C 126.644531 166.941406 126.644531 169.648438 128.316406 171.316406 C 132.023438 175.023438 136.894531 176.878906 141.765625 176.878906 C 142.496094 176.878906 143.222656 176.753906 143.949219 176.667969 C 144.253906 176.738281 144.539062 176.851562 144.863281 176.851562 C 150.636719 176.851562 155.335938 181.550781 155.335938 187.328125 Z M 155.335938 187.328125 " fill-opacity="1" fill-rule="nonzero"/><g clip-path="url(#606ab668a8)"><path fill="#000000" d="M 353.820312 191.390625 C 356.179688 191.390625 358.09375 189.476562 358.09375 187.117188 C 358.09375 184.757812 356.179688 182.84375 353.820312 182.84375 L 315.359375 182.84375 L 315.359375 123.011719 L 337.628906 123.011719 C 339.277344 126.78125 343.03125 129.421875 347.410156 129.421875 C 353.308594 129.421875 358.09375 124.640625 358.09375 118.738281 C 358.09375 112.839844 353.308594 108.054688 347.410156 108.054688 C 343.03125 108.054688 339.277344 110.695312 337.628906 114.464844 L 315.359375 114.464844 L 315.359375 80.277344 C 315.359375 68.496094 305.769531 58.90625 293.988281 58.90625 L 259.820312 58.90625 L 259.820312 20.445312 C 259.820312 18.085938 257.90625 16.171875 255.546875 16.171875 C 253.183594 16.171875 251.269531 18.085938 251.269531 20.445312 L 251.269531 58.90625 L 191.441406 58.90625 L 191.441406 20.445312 C 191.441406 18.085938 189.527344 16.171875 187.167969 16.171875 C 184.804688 16.171875 182.894531 18.085938 182.894531 20.445312 L 182.894531 58.90625 L 123.0625 58.90625 L 123.0625 36.636719 C 126.832031 34.988281 129.472656 31.234375 129.472656 26.855469 C 129.472656 20.953125 124.6875 16.171875 118.789062 16.171875 C 112.886719 16.171875 108.105469 20.953125 108.105469 26.855469 C 108.105469 31.234375 110.742188 34.988281 114.515625 36.636719 L 114.515625 58.90625 L 80.304688 58.90625 C 68.523438 58.90625 58.9375 68.496094 58.9375 80.277344 L 58.9375 114.464844 L 20.476562 114.464844 C 18.113281 114.464844 16.199219 116.378906 16.199219 118.738281 C 16.199219 121.097656 18.113281 123.011719 20.476562 123.011719 L 58.9375 123.011719 L 58.9375 182.84375 L 20.476562 182.84375 C 18.113281 182.84375 16.199219 184.757812 16.199219 187.117188 C 16.199219 189.476562 18.113281 191.390625 20.476562 191.390625 L 58.9375 191.390625 L 58.9375 251.222656 L 36.667969 251.222656 C 35.015625 247.453125 31.265625 244.8125 26.886719 244.8125 C 20.984375 244.8125 16.199219 249.59375 16.199219 255.496094 C 16.199219 261.398438 20.984375 266.179688 26.886719 266.179688 C 31.265625 266.179688 35.015625 263.539062 36.667969 259.769531 L 58.9375 259.769531 L 58.9375 293.960938 C 58.9375 305.742188 68.523438 315.328125 80.304688 315.328125 L 114.496094 315.328125 L 114.496094 337.644531 C 110.734375 339.296875 108.105469 343.042969 108.105469 347.414062 C 108.105469 353.316406 112.886719 358.101562 118.789062 358.101562 C 124.6875 358.101562 129.472656 353.316406 129.472656 347.414062 C 129.472656 343.027344 126.824219 339.269531 123.042969 337.625 L 123.042969 315.328125 L 182.875 315.328125 L 182.875 353.789062 C 182.875 356.152344 184.789062 358.0625 187.148438 358.0625 C 189.507812 358.0625 191.421875 356.152344 191.421875 353.789062 L 191.421875 315.328125 L 251.253906 315.328125 L 251.253906 353.789062 C 251.253906 356.152344 253.167969 358.0625 255.527344 358.0625 C 257.886719 358.0625 259.800781 356.152344 259.800781 353.789062 L 259.800781 315.328125 L 293.988281 315.328125 C 305.769531 315.328125 315.359375 305.742188 315.359375 293.960938 L 315.359375 259.769531 L 353.820312 259.769531 C 356.179688 259.769531 358.09375 257.855469 358.09375 255.496094 C 358.09375 253.136719 356.179688 251.222656 353.820312 251.222656 L 315.359375 251.222656 L 315.359375 191.390625 Z M 306.808594 293.960938 C 306.808594 301.027344 301.058594 306.78125 293.988281 306.78125 L 80.304688 306.78125 C 73.234375 306.78125 67.484375 301.027344 67.484375 293.960938 L 67.484375 80.277344 C 67.484375 73.207031 73.234375 67.453125 80.304688 67.453125 L 293.988281 67.453125 C 301.058594 67.453125 306.808594 73.207031 306.808594 80.277344 Z M 306.808594 293.960938 " fill-opacity="1" fill-rule="nonzero"/></g></svg>