<svg xmlns="http://www.w3.org/2000/svg" xmlns:xlink="http://www.w3.org/1999/xlink" width="500" zoomAndPan="magnify" viewBox="0 0 375.12 383.03998" height="500" preserveAspectRatio="xMidYMid meet" version="1.0"><defs><clipPath id="75422e5034"><path d="M 3.414062 17.15625 L 367 17.15625 L 367 356.804688 L 3.414062 356.804688 Z M 3.414062 17.15625 " clip-rule="nonzero"/></clipPath></defs><g clip-path="url(#75422e5034)"><path fill="#231f20" d="M 3.449219 356.910156 L 44.566406 276.304688 L 48.5 267.785156 C 46.761719 265.027344 45.105469 262.222656 43.539062 259.363281 C 41.972656 256.507812 40.496094 253.605469 39.105469 250.660156 C 37.714844 247.714844 36.414062 244.726562 35.207031 241.699219 C 34 238.675781 32.882812 235.613281 31.863281 232.519531 C 30.839844 229.425781 29.914062 226.304688 29.085938 223.15625 C 28.253906 220.003906 27.519531 216.832031 26.882812 213.636719 C 26.246094 210.441406 25.707031 207.230469 25.265625 204 C 24.820312 200.773438 24.480469 197.535156 24.234375 194.285156 C 23.992188 191.035156 23.847656 187.78125 23.800781 184.523438 C 23.753906 181.265625 23.808594 178.011719 23.960938 174.753906 C 24.117188 171.5 24.367188 168.253906 24.71875 165.015625 C 25.070312 161.777344 25.519531 158.550781 26.066406 155.339844 C 26.617188 152.125 27.261719 148.933594 28.003906 145.761719 C 28.746094 142.589844 29.585938 139.441406 30.519531 136.320312 C 31.453125 133.199219 32.480469 130.109375 33.605469 127.050781 C 34.726562 123.992188 35.941406 120.972656 37.25 117.988281 C 45.878906 98.320312 58.226562 80.664062 73.953125 65.5 C 81.8125 57.921875 90.316406 51.160156 99.46875 45.210938 C 108.621094 39.261719 118.257812 34.234375 128.371094 30.128906 C 149.472656 21.523438 171.886719 17.164062 194.988281 17.164062 C 218.089844 17.164062 240.503906 21.523438 261.605469 30.128906 C 271.71875 34.234375 281.351562 39.261719 290.503906 45.210938 C 299.65625 51.160156 308.160156 57.925781 316.019531 65.5 C 331.746094 80.664062 344.097656 98.324219 352.722656 117.988281 C 354.9375 123.042969 356.886719 128.199219 358.566406 133.453125 C 360.25 138.710938 361.65625 144.039062 362.785156 149.441406 C 363.917969 154.839844 364.765625 160.285156 365.335938 165.773438 C 365.90625 171.265625 366.1875 176.765625 366.1875 182.285156 C 366.1875 187.804688 365.90625 193.308594 365.335938 198.796875 C 364.765625 204.285156 363.917969 209.730469 362.785156 215.132812 C 361.65625 220.535156 360.25 225.863281 358.566406 231.117188 C 356.886719 236.375 354.9375 241.527344 352.722656 246.582031 C 344.097656 266.246094 331.746094 283.90625 316.019531 299.070312 C 308.160156 306.648438 299.65625 313.410156 290.503906 319.359375 C 281.351562 325.308594 271.71875 330.335938 261.605469 334.441406 C 240.503906 343.046875 218.089844 347.410156 194.988281 347.410156 C 176.140625 347.433594 157.765625 344.515625 139.851562 338.65625 C 123.042969 333.15625 107.449219 325.257812 93.066406 314.96875 L 87.214844 317.460938 Z M 194.988281 21.046875 C 102.726562 21.046875 27.667969 93.378906 27.667969 182.285156 C 27.671875 189.71875 28.199219 197.113281 29.257812 204.46875 C 30.3125 211.828125 31.882812 219.074219 33.96875 226.207031 C 36.058594 233.339844 38.640625 240.289062 41.71875 247.054688 C 44.796875 253.820312 48.335938 260.332031 52.34375 266.59375 L 52.914062 267.488281 L 48.042969 278.035156 L 12.066406 348.558594 L 85.625 313.917969 L 93.5625 310.535156 L 94.453125 311.179688 C 123.617188 332.339844 158.382812 343.523438 194.988281 343.523438 C 287.246094 343.523438 362.304688 271.191406 362.304688 182.285156 C 362.304688 93.378906 287.246094 21.046875 194.988281 21.046875 Z M 194.988281 21.046875 " fill-opacity="1" fill-rule="nonzero"/></g><path fill="#000000" d="M 330.546875 175.390625 L 330.546875 216.878906 C 330.546875 232.675781 317.621094 245.597656 301.828125 245.597656 L 300.492188 245.597656 C 297.515625 245.601562 294.609375 245.148438 291.777344 244.238281 C 278.378906 265.820312 257.226562 282.398438 232.035156 290.386719 C 223.835938 291.925781 220.054688 291.84375 218.636719 290.976562 C 217.648438 291.910156 216.527344 292.625 215.265625 293.125 C 214.003906 293.625 212.695312 293.875 211.339844 293.878906 L 179.992188 293.878906 C 179.582031 293.875 179.171875 293.835938 178.769531 293.753906 C 178.367188 293.671875 177.976562 293.554688 177.597656 293.394531 C 177.214844 293.238281 176.855469 293.042969 176.515625 292.816406 C 176.171875 292.585938 175.855469 292.328125 175.566406 292.035156 C 175.273438 291.746094 175.015625 291.429688 174.785156 291.085938 C 174.558594 290.746094 174.363281 290.386719 174.207031 290.003906 C 174.046875 289.625 173.929688 289.234375 173.847656 288.832031 C 173.765625 288.429688 173.726562 288.023438 173.726562 287.609375 L 173.726562 281.300781 C 173.726562 280.597656 173.796875 279.90625 173.933594 279.21875 C 174.074219 278.53125 174.277344 277.863281 174.546875 277.21875 C 174.816406 276.570312 175.144531 275.957031 175.535156 275.375 C 175.925781 274.789062 176.367188 274.25 176.863281 273.757812 C 177.359375 273.261719 177.898438 272.816406 178.480469 272.429688 C 179.0625 272.039062 179.675781 271.710938 180.324219 271.441406 C 180.96875 271.171875 181.636719 270.96875 182.324219 270.828125 C 183.011719 270.691406 183.707031 270.621094 184.40625 270.617188 L 211.339844 270.617188 C 212.359375 270.621094 213.355469 270.765625 214.335938 271.054688 C 215.3125 271.339844 216.230469 271.757812 217.089844 272.308594 C 217.945312 272.859375 218.710938 273.515625 219.382812 274.285156 C 220.050781 275.050781 220.601562 275.898438 221.03125 276.820312 C 222.738281 275.816406 226.183594 275.097656 232.527344 274.980469 C 259.308594 264.375 268.742188 253.390625 279.070312 235.949219 C 286.957031 222.640625 291.558594 207.292969 291.558594 190.902344 C 291.5625 184.300781 290.828125 177.785156 289.355469 171.355469 C 287.878906 164.921875 285.703125 158.738281 282.824219 152.800781 C 267.777344 121.699219 234.875 100.125 196.710938 100.125 C 159.292969 100.125 126.933594 120.863281 111.5 150.984375 C 109.761719 154.375 108.25 157.867188 106.96875 161.453125 C 105.683594 165.042969 104.640625 168.699219 103.835938 172.421875 C 103.03125 176.148438 102.472656 179.910156 102.15625 183.707031 C 101.84375 187.503906 101.777344 191.308594 101.960938 195.113281 C 102.144531 198.921875 102.574219 202.699219 103.253906 206.449219 C 103.929688 210.199219 104.847656 213.890625 106.007812 217.519531 C 107.164062 221.152344 108.554688 224.691406 110.175781 228.136719 C 111.800781 231.585938 113.636719 234.914062 115.695312 238.125 C 117.558594 241.046875 119.585938 243.855469 121.769531 246.546875 C 117.542969 248.800781 113.984375 251.488281 111.257812 254.542969 C 108.695312 251.34375 106.328125 248.007812 104.15625 244.53125 C 101.628906 245.246094 99.050781 245.601562 96.421875 245.597656 L 95.082031 245.597656 C 79.289062 245.597656 66.367188 232.675781 66.367188 216.878906 L 66.367188 175.390625 C 66.367188 159.597656 79.289062 146.675781 95.082031 146.675781 L 96.417969 146.675781 C 96.972656 146.675781 97.519531 146.691406 98.066406 146.726562 C 114.300781 111.902344 149.511719 87.109375 190.984375 84.621094 L 190.984375 57.160156 C 182.800781 55.972656 176.925781 52.730469 176.925781 48.917969 C 176.925781 44.097656 186.304688 40.1875 197.875 40.1875 C 209.441406 40.1875 218.820312 44.097656 218.820312 48.917969 C 218.820312 52.792969 212.757812 56.078125 204.367188 57.21875 L 204.367188 84.597656 C 246.042969 86.949219 281.453125 111.832031 297.71875 146.8125 C 298.632812 146.722656 299.554688 146.675781 300.492188 146.675781 L 301.828125 146.675781 C 317.621094 146.675781 330.546875 159.597656 330.546875 175.390625 Z M 330.546875 175.390625 " fill-opacity="1" fill-rule="nonzero"/><path fill="#231f20" d="M 211.339844 295.164062 L 179.992188 295.164062 C 179.496094 295.164062 179.003906 295.113281 178.519531 295.015625 C 178.03125 294.917969 177.558594 294.777344 177.101562 294.585938 C 176.644531 294.394531 176.210938 294.164062 175.796875 293.886719 C 175.386719 293.613281 175.003906 293.296875 174.652344 292.949219 C 174.304688 292.597656 173.988281 292.214844 173.714844 291.804688 C 173.4375 291.390625 173.207031 290.957031 173.015625 290.5 C 172.824219 290.042969 172.683594 289.570312 172.585938 289.082031 C 172.488281 288.597656 172.4375 288.105469 172.4375 287.609375 L 172.4375 281.300781 C 172.441406 280.515625 172.515625 279.734375 172.671875 278.964844 C 172.824219 278.195312 173.050781 277.449219 173.351562 276.722656 C 173.65625 275.996094 174.023438 275.308594 174.460938 274.652344 C 174.894531 274 175.390625 273.398438 175.949219 272.839844 C 176.503906 272.285156 177.109375 271.789062 177.761719 271.351562 C 178.414062 270.917969 179.101562 270.546875 179.828125 270.246094 C 180.554688 269.945312 181.300781 269.71875 182.074219 269.5625 C 182.84375 269.410156 183.621094 269.332031 184.40625 269.332031 L 211.339844 269.332031 C 212.371094 269.335938 213.386719 269.46875 214.382812 269.734375 C 215.378906 270 216.328125 270.386719 217.222656 270.894531 C 218.121094 271.402344 218.941406 272.015625 219.679688 272.738281 C 220.417969 273.457031 221.054688 274.257812 221.589844 275.140625 C 223.835938 274.277344 227.351562 273.804688 232.265625 273.699219 C 257.785156 263.558594 267.347656 253.21875 277.964844 235.292969 C 286.015625 221.699219 290.273438 206.347656 290.273438 190.898438 C 290.285156 184.398438 289.5625 177.976562 288.109375 171.636719 C 286.65625 165.300781 284.507812 159.207031 281.664062 153.359375 C 266.394531 121.800781 233.050781 101.410156 196.710938 101.410156 C 160.710938 101.410156 128.496094 120.628906 112.644531 151.570312 C 109.507812 157.652344 107.140625 164.015625 105.53125 170.664062 C 103.925781 177.316406 103.132812 184.058594 103.144531 190.902344 C 103.148438 195.003906 103.441406 199.085938 104.023438 203.144531 C 104.609375 207.207031 105.476562 211.207031 106.628906 215.144531 C 107.785156 219.078125 109.210938 222.914062 110.910156 226.648438 C 112.609375 230.382812 114.566406 233.976562 116.777344 237.433594 C 118.617188 240.3125 120.613281 243.082031 122.769531 245.734375 L 123.75 246.945312 L 122.375 247.679688 C 118.230469 249.890625 114.8125 252.488281 112.214844 255.398438 L 111.203125 256.535156 L 110.253906 255.347656 C 107.859375 252.355469 105.632812 249.246094 103.570312 246.019531 C 101.222656 246.597656 98.839844 246.886719 96.417969 246.886719 L 95.082031 246.886719 C 94.101562 246.882812 93.121094 246.835938 92.144531 246.738281 C 91.167969 246.640625 90.195312 246.496094 89.234375 246.304688 C 88.269531 246.109375 87.316406 245.871094 86.378906 245.585938 C 85.4375 245.300781 84.515625 244.96875 83.605469 244.59375 C 82.699219 244.214844 81.8125 243.796875 80.945312 243.332031 C 80.082031 242.867188 79.238281 242.363281 78.421875 241.816406 C 77.605469 241.273438 76.816406 240.6875 76.058594 240.0625 C 75.300781 239.441406 74.574219 238.78125 73.878906 238.085938 C 73.183594 237.390625 72.523438 236.664062 71.902344 235.90625 C 71.277344 235.148438 70.691406 234.359375 70.148438 233.542969 C 69.601562 232.726562 69.097656 231.882812 68.632812 231.015625 C 68.167969 230.152344 67.75 229.265625 67.375 228.355469 C 66.996094 227.449219 66.664062 226.527344 66.378906 225.585938 C 66.09375 224.644531 65.855469 223.695312 65.664062 222.730469 C 65.46875 221.769531 65.324219 220.796875 65.226562 219.820312 C 65.132812 218.84375 65.082031 217.863281 65.082031 216.878906 L 65.082031 175.394531 C 65.082031 174.410156 65.132812 173.429688 65.226562 172.453125 C 65.324219 171.476562 65.46875 170.503906 65.664062 169.542969 C 65.855469 168.578125 66.09375 167.625 66.378906 166.6875 C 66.667969 165.746094 66.996094 164.824219 67.375 163.917969 C 67.75 163.007812 68.171875 162.121094 68.632812 161.257812 C 69.097656 160.390625 69.601562 159.546875 70.148438 158.730469 C 70.695312 157.914062 71.277344 157.128906 71.902344 156.367188 C 72.523438 155.609375 73.183594 154.882812 73.878906 154.1875 C 74.574219 153.492188 75.300781 152.832031 76.058594 152.210938 C 76.820312 151.585938 77.605469 151.003906 78.421875 150.457031 C 79.238281 149.910156 80.082031 149.40625 80.945312 148.941406 C 81.8125 148.480469 82.699219 148.058594 83.609375 147.683594 C 84.515625 147.304688 85.4375 146.976562 86.378906 146.6875 C 87.316406 146.402344 88.269531 146.164062 89.234375 145.972656 C 90.195312 145.777344 91.167969 145.632812 92.144531 145.535156 C 93.121094 145.441406 94.101562 145.390625 95.082031 145.390625 L 96.417969 145.390625 C 96.707031 145.390625 96.988281 145.394531 97.265625 145.402344 C 105.449219 128.21875 118.253906 113.390625 134.335938 102.480469 C 138.433594 99.714844 142.691406 97.226562 147.113281 95.019531 C 151.535156 92.8125 156.085938 90.902344 160.757812 89.292969 C 165.429688 87.683594 170.191406 86.386719 175.035156 85.402344 C 179.878906 84.417969 184.765625 83.757812 189.695312 83.414062 L 189.695312 58.261719 C 181.117188 56.792969 175.640625 53.183594 175.640625 48.917969 C 175.640625 46.03125 178.097656 43.417969 182.566406 41.558594 C 186.675781 39.84375 192.113281 38.902344 197.871094 38.902344 C 203.632812 38.902344 209.070312 39.84375 213.179688 41.558594 C 217.648438 43.417969 220.105469 46.03125 220.105469 48.917969 C 220.105469 53.269531 214.472656 56.90625 205.652344 58.328125 L 205.652344 83.386719 C 210.605469 83.714844 215.515625 84.363281 220.382812 85.335938 C 225.253906 86.3125 230.035156 87.601562 234.734375 89.207031 C 239.429688 90.8125 244.003906 92.71875 248.449219 94.929688 C 252.894531 97.136719 257.175781 99.628906 261.292969 102.402344 C 277.449219 113.332031 290.300781 128.207031 298.5 145.457031 C 299.164062 145.410156 299.832031 145.390625 300.492188 145.390625 L 301.828125 145.390625 C 302.808594 145.390625 303.789062 145.441406 304.765625 145.535156 C 305.746094 145.632812 306.714844 145.777344 307.679688 145.972656 C 308.640625 146.164062 309.59375 146.402344 310.53125 146.6875 C 311.472656 146.972656 312.398438 147.304688 313.304688 147.683594 C 314.210938 148.058594 315.097656 148.480469 315.964844 148.941406 C 316.832031 149.40625 317.671875 149.910156 318.488281 150.457031 C 319.304688 151.003906 320.09375 151.585938 320.851562 152.210938 C 321.613281 152.832031 322.339844 153.492188 323.03125 154.1875 C 323.726562 154.882812 324.386719 155.609375 325.011719 156.367188 C 325.632812 157.128906 326.21875 157.914062 326.761719 158.730469 C 327.308594 159.546875 327.8125 160.390625 328.277344 161.253906 C 328.742188 162.121094 329.160156 163.007812 329.539062 163.917969 C 329.914062 164.824219 330.246094 165.746094 330.53125 166.6875 C 330.816406 167.625 331.054688 168.578125 331.25 169.542969 C 331.441406 170.503906 331.585938 171.476562 331.683594 172.453125 C 331.78125 173.429688 331.828125 174.410156 331.832031 175.390625 L 331.832031 216.878906 C 331.828125 217.863281 331.78125 218.84375 331.683594 219.820312 C 331.585938 220.796875 331.441406 221.769531 331.25 222.730469 C 331.054688 223.695312 330.816406 224.644531 330.53125 225.585938 C 330.246094 226.527344 329.914062 227.449219 329.539062 228.355469 C 329.160156 229.265625 328.742188 230.152344 328.277344 231.015625 C 327.816406 231.882812 327.308594 232.726562 326.765625 233.542969 C 326.21875 234.359375 325.632812 235.144531 325.011719 235.90625 C 324.386719 236.664062 323.726562 237.390625 323.035156 238.085938 C 322.339844 238.78125 321.613281 239.441406 320.851562 240.0625 C 320.09375 240.6875 319.304688 241.273438 318.488281 241.816406 C 317.671875 242.363281 316.832031 242.867188 315.964844 243.332031 C 315.097656 243.796875 314.210938 244.214844 313.304688 244.59375 C 312.398438 244.96875 311.472656 245.300781 310.535156 245.585938 C 309.59375 245.871094 308.640625 246.109375 307.679688 246.304688 C 306.714844 246.496094 305.746094 246.640625 304.765625 246.738281 C 303.789062 246.835938 302.808594 246.882812 301.828125 246.886719 L 300.492188 246.886719 C 297.722656 246.886719 295.007812 246.511719 292.34375 245.753906 C 278.601562 267.441406 257.359375 283.707031 232.425781 291.613281 L 232.273438 291.652344 C 223.945312 293.214844 220.546875 293.042969 218.863281 292.488281 C 217.800781 293.351562 216.625 294.015625 215.332031 294.476562 C 214.042969 294.933594 212.710938 295.164062 211.339844 295.164062 Z M 184.40625 271.902344 C 183.789062 271.90625 183.179688 271.964844 182.574219 272.085938 C 181.96875 272.207031 181.382812 272.386719 180.8125 272.621094 C 180.242188 272.859375 179.703125 273.148438 179.1875 273.492188 C 178.675781 273.832031 178.203125 274.222656 177.765625 274.660156 C 177.328125 275.09375 176.941406 275.570312 176.597656 276.082031 C 176.253906 276.59375 175.964844 277.136719 175.730469 277.707031 C 175.492188 278.277344 175.3125 278.863281 175.191406 279.46875 C 175.070312 280.070312 175.011719 280.683594 175.011719 281.300781 L 175.011719 287.609375 C 175.011719 287.9375 175.042969 288.261719 175.105469 288.582031 C 175.171875 288.902344 175.265625 289.214844 175.390625 289.515625 C 175.515625 289.816406 175.671875 290.105469 175.851562 290.375 C 176.035156 290.648438 176.238281 290.898438 176.472656 291.128906 C 176.703125 291.359375 176.953125 291.566406 177.226562 291.75 C 177.496094 291.929688 177.785156 292.085938 178.085938 292.210938 C 178.386719 292.335938 178.699219 292.429688 179.019531 292.492188 C 179.339844 292.558594 179.664062 292.589844 179.992188 292.589844 L 211.339844 292.589844 C 212.53125 292.589844 213.683594 292.371094 214.792969 291.929688 C 215.902344 291.488281 216.890625 290.859375 217.757812 290.039062 L 218.472656 289.371094 L 219.308594 289.878906 C 219.90625 290.242188 222.308594 290.898438 231.722656 289.136719 C 256.363281 281.304688 277.300781 265.121094 290.683594 243.558594 L 291.214844 242.703125 L 292.171875 243.011719 C 294.875 243.882812 297.648438 244.316406 300.492188 244.3125 L 301.828125 244.3125 C 302.726562 244.3125 303.621094 244.265625 304.515625 244.175781 C 305.410156 244.089844 306.296875 243.957031 307.175781 243.78125 C 308.058594 243.605469 308.929688 243.386719 309.789062 243.125 C 310.648438 242.863281 311.492188 242.558594 312.320312 242.214844 C 313.152344 241.871094 313.960938 241.488281 314.753906 241.0625 C 315.546875 240.640625 316.3125 240.179688 317.0625 239.679688 C 317.808594 239.179688 318.527344 238.644531 319.222656 238.074219 C 319.917969 237.503906 320.582031 236.902344 321.214844 236.269531 C 321.851562 235.632812 322.453125 234.96875 323.023438 234.273438 C 323.59375 233.578125 324.128906 232.859375 324.628906 232.113281 C 325.125 231.367188 325.585938 230.597656 326.011719 229.804688 C 326.433594 229.011719 326.820312 228.203125 327.164062 227.371094 C 327.507812 226.542969 327.808594 225.699219 328.070312 224.839844 C 328.332031 223.980469 328.550781 223.109375 328.726562 222.226562 C 328.902344 221.347656 329.035156 220.460938 329.125 219.566406 C 329.214844 218.671875 329.257812 217.777344 329.257812 216.878906 L 329.257812 175.390625 C 329.257812 174.492188 329.214844 173.597656 329.125 172.703125 C 329.035156 171.808594 328.902344 170.921875 328.726562 170.042969 C 328.550781 169.160156 328.332031 168.292969 328.070312 167.433594 C 327.808594 166.574219 327.507812 165.726562 327.164062 164.898438 C 326.820312 164.070312 326.433594 163.257812 326.011719 162.464844 C 325.585938 161.675781 325.125 160.90625 324.625 160.160156 C 324.128906 159.410156 323.59375 158.691406 323.023438 157.996094 C 322.453125 157.304688 321.851562 156.636719 321.214844 156.003906 C 320.582031 155.367188 319.914062 154.765625 319.222656 154.195312 C 318.527344 153.625 317.808594 153.089844 317.0625 152.59375 C 316.3125 152.09375 315.542969 151.632812 314.753906 151.207031 C 313.960938 150.785156 313.148438 150.402344 312.320312 150.054688 C 311.492188 149.710938 310.648438 149.410156 309.789062 149.148438 C 308.929688 148.886719 308.058594 148.667969 307.175781 148.492188 C 306.296875 148.316406 305.410156 148.183594 304.515625 148.09375 C 303.621094 148.007812 302.726562 147.960938 301.828125 147.960938 L 300.492188 147.960938 C 299.613281 147.960938 298.71875 148.003906 297.84375 148.089844 L 296.9375 148.179688 L 296.550781 147.351562 C 279.980469 111.710938 244.628906 88.15625 204.292969 85.878906 L 203.082031 85.8125 L 203.082031 56.09375 L 204.195312 55.945312 C 211.925781 54.894531 217.535156 51.9375 217.535156 48.917969 C 217.535156 45.394531 209.460938 41.472656 197.875 41.472656 C 186.285156 41.472656 178.210938 45.394531 178.210938 48.917969 C 178.210938 51.867188 183.660156 54.800781 191.167969 55.890625 L 192.269531 56.046875 L 192.269531 85.832031 L 191.058594 85.90625 C 150.941406 88.3125 115.753906 111.824219 99.230469 147.269531 L 98.859375 148.0625 L 97.988281 148.007812 C 97.484375 147.976562 96.957031 147.960938 96.417969 147.960938 L 95.082031 147.960938 C 94.1875 147.964844 93.289062 148.007812 92.394531 148.097656 C 91.503906 148.1875 90.617188 148.320312 89.734375 148.496094 C 88.855469 148.671875 87.984375 148.890625 87.125 149.152344 C 86.265625 149.410156 85.421875 149.714844 84.589844 150.058594 C 83.761719 150.402344 82.953125 150.785156 82.160156 151.210938 C 81.367188 151.632812 80.597656 152.097656 79.851562 152.59375 C 79.105469 153.09375 78.382812 153.628906 77.691406 154.199219 C 76.996094 154.769531 76.332031 155.371094 75.695312 156.003906 C 75.0625 156.640625 74.460938 157.304688 73.890625 158 C 73.320312 158.695312 72.785156 159.414062 72.285156 160.160156 C 71.785156 160.90625 71.324219 161.675781 70.902344 162.46875 C 70.476562 163.261719 70.09375 164.070312 69.75 164.898438 C 69.40625 165.730469 69.101562 166.574219 68.839844 167.433594 C 68.578125 168.292969 68.359375 169.164062 68.183594 170.042969 C 68.007812 170.925781 67.875 171.8125 67.789062 172.703125 C 67.699219 173.597656 67.652344 174.496094 67.652344 175.390625 L 67.652344 216.878906 C 67.652344 217.777344 67.699219 218.675781 67.789062 219.566406 C 67.875 220.460938 68.007812 221.347656 68.183594 222.230469 C 68.359375 223.109375 68.578125 223.980469 68.839844 224.839844 C 69.101562 225.699219 69.40625 226.542969 69.75 227.371094 C 70.09375 228.203125 70.476562 229.011719 70.902344 229.804688 C 71.324219 230.597656 71.785156 231.367188 72.285156 232.113281 C 72.785156 232.859375 73.320312 233.578125 73.886719 234.273438 C 74.457031 234.96875 75.0625 235.632812 75.695312 236.269531 C 76.332031 236.902344 76.996094 237.503906 77.691406 238.074219 C 78.382812 238.644531 79.105469 239.179688 79.851562 239.679688 C 80.597656 240.179688 81.367188 240.640625 82.160156 241.0625 C 82.949219 241.488281 83.761719 241.871094 84.589844 242.214844 C 85.421875 242.558594 86.265625 242.863281 87.125 243.125 C 87.984375 243.386719 88.855469 243.605469 89.734375 243.78125 C 90.613281 243.957031 91.503906 244.089844 92.394531 244.175781 C 93.289062 244.265625 94.1875 244.3125 95.082031 244.3125 L 96.417969 244.3125 C 98.929688 244.316406 101.390625 243.976562 103.804688 243.292969 L 104.734375 243.03125 L 105.246094 243.851562 C 107.128906 246.863281 109.160156 249.769531 111.339844 252.574219 C 113.875 250.050781 116.699219 247.910156 119.816406 246.15625 C 117.953125 243.789062 116.207031 241.324219 114.609375 238.816406 C 112.332031 235.257812 110.320312 231.554688 108.570312 227.710938 C 106.820312 223.867188 105.347656 219.917969 104.160156 215.863281 C 102.972656 211.808594 102.078125 207.691406 101.480469 203.507812 C 100.878906 199.328125 100.578125 195.125 100.574219 190.902344 C 100.558594 183.855469 101.378906 176.910156 103.03125 170.0625 C 104.6875 163.214844 107.128906 156.660156 110.355469 150.398438 C 118.160156 135.164062 130.207031 122.285156 145.191406 113.160156 C 160.578125 103.792969 178.390625 98.839844 196.710938 98.839844 C 215.402344 98.839844 233.523438 103.980469 249.117188 113.707031 C 264.316406 123.191406 276.371094 136.515625 283.980469 152.238281 C 286.910156 158.261719 289.121094 164.535156 290.617188 171.0625 C 292.113281 177.589844 292.855469 184.203125 292.84375 190.898438 C 292.84375 206.808594 288.464844 222.613281 280.175781 236.605469 C 269.226562 255.09375 259.375 265.730469 233 276.171875 L 232.78125 276.257812 L 232.550781 276.261719 C 225.683594 276.394531 222.851562 277.242188 221.683594 277.929688 L 220.464844 278.648438 L 219.867188 277.363281 C 219.488281 276.550781 219.003906 275.808594 218.414062 275.132812 C 217.824219 274.457031 217.152344 273.878906 216.394531 273.394531 C 215.640625 272.910156 214.832031 272.542969 213.972656 272.289062 C 213.113281 272.035156 212.238281 271.90625 211.339844 271.902344 Z M 184.40625 271.902344 " fill-opacity="1" fill-rule="nonzero"/><path fill="#000000" d="M 246.75 140.242188 L 147.789062 139.535156 L 115.828125 189.144531 L 135.03125 236.871094 L 264.421875 235.777344 L 279.921875 188.917969 Z M 157.773438 203.699219 C 156.816406 203.699219 155.867188 203.605469 154.925781 203.417969 C 153.988281 203.234375 153.074219 202.957031 152.1875 202.589844 C 151.300781 202.222656 150.460938 201.773438 149.664062 201.238281 C 148.867188 200.707031 148.128906 200.101562 147.453125 199.425781 C 146.773438 198.746094 146.167969 198.007812 145.636719 197.210938 C 145.105469 196.414062 144.65625 195.574219 144.289062 194.6875 C 143.921875 193.804688 143.644531 192.890625 143.457031 191.949219 C 143.269531 191.011719 143.175781 190.0625 143.175781 189.101562 C 143.175781 188.144531 143.269531 187.195312 143.457031 186.253906 C 143.644531 185.3125 143.921875 184.402344 144.289062 183.515625 C 144.65625 182.628906 145.105469 181.789062 145.636719 180.992188 C 146.167969 180.195312 146.773438 179.457031 147.453125 178.78125 C 148.128906 178.101562 148.867188 177.496094 149.664062 176.964844 C 150.460938 176.429688 151.300781 175.980469 152.1875 175.613281 C 153.074219 175.25 153.988281 174.972656 154.925781 174.785156 C 155.867188 174.597656 156.816406 174.503906 157.773438 174.503906 C 158.734375 174.503906 159.683594 174.597656 160.621094 174.785156 C 161.5625 174.972656 162.476562 175.25 163.359375 175.613281 C 164.246094 175.980469 165.089844 176.429688 165.886719 176.964844 C 166.683594 177.496094 167.417969 178.101562 168.097656 178.78125 C 168.773438 179.457031 169.378906 180.195312 169.914062 180.992188 C 170.445312 181.789062 170.894531 182.628906 171.261719 183.515625 C 171.628906 184.402344 171.90625 185.3125 172.09375 186.253906 C 172.28125 187.195312 172.371094 188.144531 172.371094 189.101562 C 172.371094 190.0625 172.28125 191.011719 172.09375 191.949219 C 171.90625 192.890625 171.628906 193.804688 171.261719 194.6875 C 170.894531 195.574219 170.445312 196.414062 169.914062 197.210938 C 169.378906 198.007812 168.773438 198.746094 168.097656 199.425781 C 167.417969 200.101562 166.683594 200.707031 165.886719 201.238281 C 165.089844 201.773438 164.246094 202.222656 163.359375 202.589844 C 162.476562 202.957031 161.5625 203.234375 160.621094 203.417969 C 159.683594 203.605469 158.734375 203.699219 157.773438 203.699219 Z M 237.734375 203.742188 C 236.777344 203.742188 235.828125 203.648438 234.886719 203.460938 C 233.945312 203.273438 233.035156 202.996094 232.148438 202.628906 C 231.261719 202.265625 230.421875 201.8125 229.625 201.28125 C 228.828125 200.75 228.089844 200.144531 227.410156 199.464844 C 226.734375 198.789062 226.128906 198.050781 225.597656 197.253906 C 225.0625 196.457031 224.613281 195.617188 224.246094 194.730469 C 223.878906 193.84375 223.605469 192.933594 223.417969 191.992188 C 223.230469 191.050781 223.136719 190.101562 223.136719 189.144531 C 223.136719 188.183594 223.230469 187.234375 223.417969 186.296875 C 223.605469 185.355469 223.878906 184.441406 224.246094 183.558594 C 224.613281 182.671875 225.0625 181.832031 225.597656 181.035156 C 226.128906 180.234375 226.734375 179.5 227.410156 178.820312 C 228.089844 178.144531 228.828125 177.539062 229.625 177.003906 C 230.421875 176.472656 231.261719 176.023438 232.148438 175.65625 C 233.035156 175.289062 233.945312 175.011719 234.886719 174.824219 C 235.828125 174.640625 236.777344 174.546875 237.734375 174.546875 C 238.691406 174.546875 239.640625 174.640625 240.582031 174.824219 C 241.523438 175.011719 242.433594 175.289062 243.320312 175.65625 C 244.207031 176.023438 245.046875 176.472656 245.84375 177.003906 C 246.640625 177.539062 247.378906 178.144531 248.058594 178.820312 C 248.734375 179.5 249.339844 180.238281 249.871094 181.035156 C 250.40625 181.832031 250.855469 182.671875 251.222656 183.558594 C 251.589844 184.441406 251.867188 185.355469 252.050781 186.296875 C 252.238281 187.234375 252.332031 188.183594 252.332031 189.144531 C 252.332031 190.101562 252.238281 191.050781 252.050781 191.992188 C 251.867188 192.933594 251.589844 193.84375 251.222656 194.730469 C 250.855469 195.617188 250.40625 196.457031 249.871094 197.253906 C 249.339844 198.050781 248.734375 198.789062 248.058594 199.464844 C 247.378906 200.144531 246.640625 200.75 245.84375 201.28125 C 245.046875 201.816406 244.207031 202.265625 243.320312 202.632812 C 242.4375 202.996094 241.523438 203.273438 240.582031 203.460938 C 239.644531 203.648438 238.695312 203.742188 237.734375 203.742188 Z M 237.734375 203.742188 " fill-opacity="1" fill-rule="nonzero"/><path fill="#231f20" d="M 134.546875 237.589844 L 115.023438 189.066406 L 147.398438 138.816406 L 247.128906 139.527344 L 280.710938 188.804688 L 264.941406 236.488281 L 264.429688 236.492188 Z M 116.628906 189.222656 L 135.511719 236.148438 L 263.902344 235.0625 L 279.132812 189.027344 L 246.371094 140.953125 L 148.175781 140.253906 Z M 237.734375 204.457031 C 236.730469 204.457031 235.734375 204.359375 234.746094 204.164062 C 233.761719 203.96875 232.804688 203.675781 231.875 203.292969 C 230.945312 202.90625 230.0625 202.4375 229.226562 201.878906 C 228.390625 201.320312 227.617188 200.683594 226.90625 199.972656 C 226.195312 199.261719 225.558594 198.488281 225 197.652344 C 224.441406 196.816406 223.96875 195.933594 223.585938 195.003906 C 223.199219 194.074219 222.910156 193.117188 222.714844 192.132812 C 222.519531 191.144531 222.417969 190.148438 222.417969 189.144531 C 222.417969 188.136719 222.519531 187.140625 222.714844 186.15625 C 222.910156 185.167969 223.199219 184.210938 223.585938 183.28125 C 223.96875 182.351562 224.441406 181.472656 225 180.636719 C 225.558594 179.796875 226.195312 179.023438 226.90625 178.3125 C 227.617188 177.601562 228.390625 176.96875 229.226562 176.410156 C 230.0625 175.851562 230.945312 175.378906 231.875 174.996094 C 232.804688 174.609375 233.761719 174.320312 234.746094 174.121094 C 235.734375 173.925781 236.730469 173.828125 237.734375 173.828125 C 238.742188 173.828125 239.734375 173.925781 240.722656 174.121094 C 241.707031 174.320312 242.667969 174.609375 243.59375 174.996094 C 244.523438 175.378906 245.40625 175.851562 246.242188 176.410156 C 247.078125 176.96875 247.851562 177.601562 248.5625 178.3125 C 249.273438 179.023438 249.910156 179.796875 250.46875 180.636719 C 251.027344 181.472656 251.5 182.351562 251.882812 183.28125 C 252.269531 184.210938 252.558594 185.167969 252.753906 186.15625 C 252.953125 187.140625 253.050781 188.136719 253.050781 189.144531 C 253.046875 190.148438 252.949219 191.144531 252.753906 192.128906 C 252.554688 193.117188 252.265625 194.074219 251.878906 195 C 251.496094 195.929688 251.023438 196.8125 250.464844 197.648438 C 249.90625 198.484375 249.269531 199.257812 248.558594 199.96875 C 247.847656 200.679688 247.074219 201.3125 246.238281 201.871094 C 245.402344 202.429688 244.523438 202.902344 243.59375 203.289062 C 242.664062 203.671875 241.707031 203.964844 240.722656 204.160156 C 239.734375 204.359375 238.738281 204.457031 237.734375 204.457031 Z M 237.734375 175.261719 C 236.824219 175.261719 235.921875 175.351562 235.027344 175.527344 C 234.132812 175.707031 233.265625 175.96875 232.421875 176.320312 C 231.578125 176.667969 230.78125 177.09375 230.023438 177.601562 C 229.265625 178.109375 228.5625 178.683594 227.917969 179.328125 C 227.273438 179.972656 226.699219 180.675781 226.191406 181.433594 C 225.683594 182.191406 225.257812 182.988281 224.910156 183.832031 C 224.558594 184.675781 224.296875 185.542969 224.117188 186.4375 C 223.941406 187.332031 223.851562 188.234375 223.851562 189.144531 C 223.851562 190.054688 223.941406 190.957031 224.117188 191.851562 C 224.296875 192.746094 224.558594 193.613281 224.910156 194.457031 C 225.257812 195.300781 225.683594 196.097656 226.191406 196.855469 C 226.699219 197.613281 227.273438 198.316406 227.917969 198.960938 C 228.5625 199.605469 229.265625 200.179688 230.023438 200.6875 C 230.78125 201.195312 231.578125 201.621094 232.421875 201.96875 C 233.265625 202.320312 234.132812 202.582031 235.027344 202.761719 C 235.921875 202.9375 236.824219 203.027344 237.734375 203.027344 C 238.644531 203.027344 239.550781 202.9375 240.441406 202.761719 C 241.335938 202.582031 242.203125 202.320312 243.046875 201.96875 C 243.890625 201.621094 244.6875 201.195312 245.445312 200.6875 C 246.207031 200.179688 246.90625 199.605469 247.550781 198.960938 C 248.195312 198.316406 248.769531 197.613281 249.277344 196.855469 C 249.785156 196.097656 250.210938 195.300781 250.558594 194.457031 C 250.910156 193.613281 251.171875 192.746094 251.351562 191.851562 C 251.527344 190.957031 251.617188 190.054688 251.617188 189.144531 C 251.617188 188.234375 251.527344 187.332031 251.347656 186.4375 C 251.167969 185.542969 250.90625 184.675781 250.554688 183.835938 C 250.207031 182.992188 249.777344 182.191406 249.273438 181.433594 C 248.765625 180.679688 248.191406 179.976562 247.546875 179.332031 C 246.902344 178.6875 246.199219 178.113281 245.445312 177.605469 C 244.6875 177.101562 243.886719 176.671875 243.042969 176.324219 C 242.203125 175.972656 241.335938 175.710938 240.441406 175.53125 C 239.546875 175.351562 238.644531 175.261719 237.734375 175.261719 Z M 157.773438 204.417969 C 156.769531 204.417969 155.773438 204.320312 154.785156 204.121094 C 153.800781 203.925781 152.84375 203.636719 151.914062 203.25 C 150.984375 202.867188 150.101562 202.394531 149.265625 201.835938 C 148.429688 201.277344 147.65625 200.640625 146.945312 199.929688 C 146.234375 199.21875 145.597656 198.445312 145.039062 197.609375 C 144.480469 196.773438 144.011719 195.890625 143.625 194.960938 C 143.242188 194.035156 142.949219 193.074219 142.753906 192.089844 C 142.558594 191.101562 142.460938 190.105469 142.460938 189.101562 C 142.460938 188.097656 142.558594 187.101562 142.753906 186.113281 C 142.949219 185.128906 143.242188 184.171875 143.625 183.242188 C 144.011719 182.3125 144.480469 181.429688 145.039062 180.59375 C 145.597656 179.757812 146.234375 178.984375 146.945312 178.273438 C 147.65625 177.5625 148.429688 176.925781 149.265625 176.367188 C 150.101562 175.808594 150.984375 175.335938 151.914062 174.953125 C 152.84375 174.566406 153.800781 174.277344 154.785156 174.082031 C 155.773438 173.886719 156.769531 173.785156 157.773438 173.785156 C 158.78125 173.785156 159.777344 173.886719 160.761719 174.082031 C 161.75 174.277344 162.707031 174.566406 163.636719 174.953125 C 164.566406 175.335938 165.445312 175.808594 166.285156 176.367188 C 167.121094 176.925781 167.894531 177.5625 168.605469 178.273438 C 169.316406 178.984375 169.949219 179.757812 170.507812 180.59375 C 171.066406 181.429688 171.539062 182.3125 171.925781 183.242188 C 172.308594 184.171875 172.597656 185.128906 172.796875 186.113281 C 172.992188 187.101562 173.089844 188.097656 173.089844 189.101562 C 173.089844 190.105469 172.988281 191.101562 172.792969 192.089844 C 172.597656 193.074219 172.304688 194.03125 171.917969 194.960938 C 171.535156 195.886719 171.0625 196.769531 170.503906 197.605469 C 169.945312 198.441406 169.308594 199.214844 168.597656 199.925781 C 167.886719 200.636719 167.113281 201.273438 166.28125 201.832031 C 165.445312 202.390625 164.5625 202.863281 163.632812 203.246094 C 162.703125 203.632812 161.746094 203.921875 160.761719 204.121094 C 159.777344 204.316406 158.78125 204.414062 157.773438 204.417969 Z M 157.773438 175.222656 C 156.863281 175.222656 155.960938 175.308594 155.066406 175.488281 C 154.171875 175.664062 153.304688 175.929688 152.460938 176.277344 C 151.621094 176.625 150.820312 177.054688 150.0625 177.558594 C 149.304688 178.066406 148.601562 178.640625 147.957031 179.285156 C 147.3125 179.929688 146.738281 180.632812 146.230469 181.390625 C 145.726562 182.148438 145.296875 182.949219 144.949219 183.789062 C 144.601562 184.632812 144.335938 185.5 144.160156 186.394531 C 143.980469 187.289062 143.890625 188.191406 143.890625 189.101562 C 143.890625 190.015625 143.980469 190.917969 144.160156 191.8125 C 144.335938 192.707031 144.601562 193.574219 144.949219 194.414062 C 145.296875 195.257812 145.726562 196.058594 146.230469 196.816406 C 146.738281 197.574219 147.3125 198.273438 147.957031 198.917969 C 148.601562 199.5625 149.304688 200.140625 150.0625 200.644531 C 150.820312 201.152344 151.621094 201.578125 152.460938 201.929688 C 153.304688 202.277344 154.171875 202.539062 155.066406 202.71875 C 155.960938 202.894531 156.863281 202.984375 157.773438 202.984375 C 158.6875 202.984375 159.589844 202.894531 160.484375 202.71875 C 161.378906 202.539062 162.246094 202.277344 163.085938 201.929688 C 163.929688 201.578125 164.730469 201.152344 165.488281 200.644531 C 166.246094 200.140625 166.945312 199.5625 167.589844 198.917969 C 168.234375 198.273438 168.8125 197.574219 169.316406 196.816406 C 169.824219 196.058594 170.25 195.257812 170.601562 194.414062 C 170.949219 193.574219 171.210938 192.707031 171.390625 191.8125 C 171.566406 190.917969 171.65625 190.015625 171.65625 189.101562 C 171.65625 188.191406 171.566406 187.289062 171.386719 186.394531 C 171.210938 185.503906 170.945312 184.632812 170.597656 183.792969 C 170.246094 182.949219 169.820312 182.152344 169.3125 181.394531 C 168.804688 180.636719 168.230469 179.933594 167.585938 179.292969 C 166.941406 178.648438 166.242188 178.070312 165.484375 177.566406 C 164.726562 177.058594 163.925781 176.628906 163.085938 176.28125 C 162.242188 175.933594 161.375 175.667969 160.480469 175.488281 C 159.589844 175.3125 158.6875 175.222656 157.773438 175.222656 Z M 157.773438 175.222656 " fill-opacity="1" fill-rule="nonzero"/></svg>