<svg xmlns="http://www.w3.org/2000/svg" xmlns:xlink="http://www.w3.org/1999/xlink" width="500" zoomAndPan="magnify" viewBox="0 0 375.12 383.03998" height="500" preserveAspectRatio="xMidYMid meet" version="1.0"><path fill="#000000" d="M 337.777344 234.855469 L 340.964844 244.597656 L 332.667969 238.558594 C 330.695312 237.125 328.109375 237.125 326.128906 238.558594 L 317.839844 244.597656 L 321.03125 234.855469 C 321.785156 232.5625 320.960938 230.035156 319.011719 228.628906 L 310.699219 222.589844 L 320.96875 222.636719 C 323.375 222.636719 325.511719 221.089844 326.25 218.796875 L 329.398438 209.007812 L 332.550781 218.796875 C 333.289062 221.09375 335.4375 222.640625 337.847656 222.636719 L 348.105469 222.589844 L 339.792969 228.628906 C 337.839844 230.035156 337.023438 232.5625 337.777344 234.855469 Z M 370.566406 215.285156 C 369.828125 212.984375 367.691406 211.441406 365.28125 211.445312 L 341.878906 211.492188 L 334.683594 189.203125 C 333.042969 184.109375 325.769531 184.097656 324.121094 189.203125 L 316.929688 211.492188 L 293.515625 211.445312 C 288.15625 211.445312 285.929688 218.375 290.261719 221.511719 L 309.226562 235.277344 L 301.953125 257.523438 C 300.28125 262.609375 306.179688 266.882812 310.492188 263.75 L 329.398438 249.9375 L 348.3125 263.75 C 352.671875 266.925781 358.519531 262.613281 356.863281 257.523438 L 349.578125 235.277344 L 368.542969 221.511719 C 370.492188 220.105469 371.3125 217.578125 370.566406 215.285156 Z M 54.332031 234.855469 L 57.523438 244.644531 L 49.234375 238.554688 C 47.273438 237.125 44.664062 237.125 42.691406 238.554688 L 34.40625 244.644531 L 37.59375 234.855469 C 38.351562 232.5625 37.527344 230.035156 35.574219 228.628906 L 27.265625 222.589844 L 37.539062 222.636719 C 39.941406 222.636719 42.078125 221.089844 42.820312 218.796875 L 45.964844 209.007812 L 49.121094 218.796875 C 49.859375 221.097656 52.003906 222.640625 54.417969 222.636719 L 64.675781 222.589844 L 56.363281 228.628906 C 54.410156 230.035156 53.589844 232.5625 54.332031 234.855469 Z M 81.855469 211.445312 L 58.445312 211.492188 L 51.25 189.203125 C 49.605469 184.109375 42.335938 184.097656 40.691406 189.203125 L 33.496094 211.492188 L 10.082031 211.445312 C 4.726562 211.445312 2.496094 218.375 6.828125 221.511719 L 25.792969 235.277344 L 18.511719 257.523438 C 16.847656 262.613281 22.746094 266.878906 27.054688 263.75 L 45.964844 249.9375 L 64.878906 263.75 C 69.238281 266.921875 75.089844 262.613281 73.421875 257.523438 L 66.144531 235.277344 L 85.105469 221.511719 C 89.441406 218.378906 87.214844 211.445312 81.855469 211.445312 Z M 283.015625 116.105469 C 285.433594 116.105469 287.566406 114.566406 288.304688 112.265625 L 292.539062 99.109375 L 296.78125 112.265625 C 297.523438 114.566406 299.660156 116.109375 302.070312 116.105469 L 315.851562 116.058594 L 304.679688 124.160156 C 302.730469 125.566406 301.917969 128.09375 302.664062 130.386719 L 306.949219 143.5 L 295.8125 135.398438 C 293.882812 133.953125 291.207031 133.953125 289.269531 135.398438 L 278.136719 143.5 L 282.421875 130.386719 C 283.167969 128.09375 282.347656 125.566406 280.394531 124.160156 L 269.226562 116.058594 Z M 248.796875 114.980469 L 270.613281 130.808594 L 262.246094 156.421875 C 260.582031 161.484375 266.46875 165.792969 270.785156 162.652344 L 292.539062 146.730469 L 314.296875 162.652344 C 318.539062 165.726562 324.523438 161.574219 322.839844 156.421875 L 314.472656 130.808594 L 336.289062 114.980469 C 340.636719 111.84375 338.386719 104.910156 333.023438 104.914062 L 306.097656 104.960938 L 297.824219 79.347656 C 296.175781 74.183594 288.914062 74.175781 287.261719 79.347656 L 278.988281 104.960938 L 252.042969 104.914062 C 246.691406 104.914062 244.449219 111.859375 248.796875 114.980469 Z M 73.300781 116.105469 C 75.71875 116.105469 77.851562 114.570312 78.59375 112.265625 L 82.832031 99.109375 L 87.0625 112.265625 C 87.804688 114.5625 89.941406 116.109375 92.359375 116.105469 L 106.140625 116.058594 L 94.976562 124.160156 C 93.023438 125.566406 92.199219 128.09375 92.949219 130.386719 L 97.230469 143.5 L 86.105469 135.398438 C 84.148438 133.945312 81.507812 133.945312 79.5625 135.398438 L 68.425781 143.5 L 72.710938 130.386719 C 73.457031 128.09375 72.640625 125.566406 70.6875 124.160156 L 59.519531 116.058594 Z M 39.082031 114.980469 L 60.898438 130.808594 L 52.527344 156.421875 C 50.847656 161.570312 56.835938 165.730469 61.078125 162.652344 L 82.832031 146.730469 L 104.589844 162.652344 C 108.917969 165.804688 114.792969 161.5 113.128906 156.421875 L 104.757812 130.808594 L 126.578125 114.980469 C 130.921875 111.839844 128.679688 104.910156 123.3125 104.914062 L 96.382812 104.960938 L 88.109375 79.347656 C 86.460938 74.179688 79.203125 74.175781 77.550781 79.347656 L 69.277344 104.960938 L 42.34375 104.914062 C 36.984375 104.914062 34.738281 111.851562 39.082031 114.980469 Z M 177.371094 62.816406 C 179.789062 62.816406 181.921875 61.273438 182.664062 58.976562 L 187.683594 43.382812 L 192.714844 58.976562 C 193.457031 61.277344 195.589844 62.820312 198.003906 62.816406 L 214.355469 62.769531 L 201.109375 72.371094 C 199.148438 73.773438 198.335938 76.304688 199.085938 78.597656 L 204.167969 94.144531 L 190.960938 84.5 C 189.0625 83.125 186.316406 83.125 184.417969 84.5 L 171.207031 94.144531 L 176.292969 78.597656 C 177.035156 76.304688 176.214844 73.773438 174.261719 72.371094 L 161.015625 62.769531 Z M 140.574219 61.695312 L 164.480469 79.019531 L 155.308594 107.070312 C 153.640625 112.164062 159.496094 116.46875 163.847656 113.296875 L 187.683594 95.878906 L 211.515625 113.296875 C 215.828125 116.429688 221.722656 112.15625 220.058594 107.070312 L 210.894531 79.019531 L 234.796875 61.695312 C 239.136719 58.554688 236.890625 51.621094 231.523438 51.625 L 202.023438 51.671875 L 192.96875 23.578125 C 191.332031 18.492188 184.050781 18.464844 182.40625 23.578125 L 173.34375 51.671875 L 143.832031 51.625 C 138.476562 51.625 136.242188 58.5625 140.574219 61.695312 Z M 187.683594 201.65625 C 176.578125 201.65625 167.546875 192.621094 167.546875 181.476562 C 167.546875 170.378906 176.578125 161.339844 187.683594 161.339844 C 198.792969 161.339844 207.828125 170.375 207.828125 181.476562 C 207.828125 192.621094 198.792969 201.65625 187.683594 201.65625 Z M 187.683594 150.195312 C 170.457031 150.195312 156.441406 164.242188 156.441406 181.476562 C 156.441406 198.753906 170.457031 212.753906 187.683594 212.753906 C 204.914062 212.753906 218.929688 198.753906 218.929688 181.476562 C 218.929688 164.242188 204.914062 150.195312 187.683594 150.195312 Z M 187.683594 332.023438 C 197.34375 332.023438 206.875 330.945312 216.132812 328.886719 L 216.132812 261.269531 C 216.132812 250.074219 220.980469 240.101562 229.785156 233.171875 L 271.871094 200.113281 C 273.246094 199.035156 274.121094 197.492188 274.335938 195.710938 C 275.03125 190.003906 268.359375 186.136719 263.734375 189.765625 L 215.789062 227.414062 C 207.496094 233.921875 198.335938 237.058594 187.792969 237.058594 C 177.109375 237.058594 167.992188 234.015625 159.578125 227.414062 L 111.632812 189.765625 C 108.773438 187.515625 104.628906 187.984375 102.378906 190.886719 C 100.136719 193.742188 100.636719 197.863281 103.5 200.113281 L 145.585938 233.171875 C 154.394531 240.101562 159.238281 250.074219 159.238281 261.269531 L 159.238281 328.886719 C 168.5 330.945312 178.023438 332.023438 187.683594 332.023438 Z M 236.632812 241.929688 C 230.480469 246.75 227.230469 253.449219 227.230469 261.269531 L 227.230469 325.886719 C 245.265625 320.128906 261.953125 310.433594 276.128906 297.277344 C 278.375 295.171875 281.886719 295.3125 283.972656 297.558594 C 286.054688 299.804688 285.929688 303.316406 283.683594 305.425781 C 229.855469 355.660156 145.523438 355.621094 91.691406 305.425781 C 89.441406 303.316406 89.3125 299.804688 91.394531 297.558594 C 93.480469 295.3125 96.996094 295.171875 99.238281 297.277344 C 113.417969 310.433594 130.105469 320.128906 148.140625 325.886719 L 148.140625 261.269531 C 148.140625 253.449219 144.890625 246.75 138.734375 241.929688 L 96.648438 208.871094 C 88.976562 202.875 87.632812 191.683594 93.644531 184.003906 C 99.671875 176.324219 110.804688 174.96875 118.484375 181.007812 L 166.429688 218.65625 C 172.785156 223.621094 179.5 225.960938 187.582031 225.960938 C 195.777344 225.960938 202.484375 223.714844 208.9375 218.65625 L 256.882812 181.007812 C 264.5625 174.96875 275.707031 176.324219 281.730469 184.003906 C 287.742188 191.664062 286.398438 202.847656 278.722656 208.871094 Z M 236.632812 241.929688 " fill-opacity="1" fill-rule="evenodd"/></svg>