<svg xmlns="http://www.w3.org/2000/svg" xmlns:xlink="http://www.w3.org/1999/xlink" width="500" zoomAndPan="magnify" viewBox="0 0 375.12 383.03998" height="500" preserveAspectRatio="xMidYMid meet" version="1.0"><defs><clipPath id="5d2c4ce417"><path d="M 17 12 L 364 12 L 364 374.0625 L 17 374.0625 Z M 17 12 " clip-rule="nonzero"/></clipPath></defs><g clip-path="url(#5d2c4ce417)"><path fill="#000000" d="M 362.550781 226.402344 C 361.527344 222.574219 359.078125 219.375 355.648438 217.394531 C 352.222656 215.414062 348.230469 214.890625 344.40625 215.914062 L 341.609375 216.664062 C 353.4375 186.96875 355.441406 154.183594 347.140625 123.171875 C 336.878906 84.828125 312.3125 52.78125 277.972656 32.933594 C 243.632812 13.085938 203.625 7.808594 165.324219 18.085938 C 149.578125 22.308594 134.160156 29.328125 120.746094 38.382812 C 113.953125 42.957031 112.148438 52.210938 116.714844 59.011719 C 118.929688 62.304688 122.292969 64.539062 126.183594 65.300781 C 130.078125 66.0625 134.03125 65.261719 137.328125 63.042969 C 148.195312 55.707031 160.199219 50.242188 173.011719 46.808594 C 236.261719 29.839844 301.503906 67.550781 318.449219 130.867188 C 324.375 153.007812 323.769531 176.304688 316.890625 197.859375 C 315.609375 195.226562 313.574219 193.03125 310.980469 191.535156 C 307.542969 189.550781 303.542969 189.023438 299.710938 190.050781 C 291.800781 192.171875 287.089844 200.339844 289.210938 208.265625 L 298.6875 243.53125 C 299.710938 247.359375 302.164062 250.558594 305.589844 252.539062 C 307.875 253.859375 310.40625 254.53125 312.972656 254.53125 C 314.261719 254.53125 315.554688 254.363281 316.832031 254.019531 L 352.078125 244.566406 C 359.96875 242.449219 364.667969 234.300781 362.550781 226.402344 Z M 351.875 232.339844 C 351.316406 233.3125 350.410156 234.007812 349.328125 234.296875 L 314.082031 243.75 C 313 244.042969 311.871094 243.894531 310.898438 243.332031 C 309.925781 242.769531 309.234375 241.867188 308.941406 240.777344 L 299.464844 205.507812 C 298.859375 203.25 300.203125 200.921875 302.457031 200.316406 C 302.824219 200.21875 303.191406 200.171875 303.558594 200.171875 C 304.292969 200.171875 305.019531 200.363281 305.671875 200.738281 C 306.648438 201.304688 307.351562 202.21875 307.644531 203.3125 L 310.972656 215.753906 C 311.550781 217.910156 313.410156 219.472656 315.628906 219.671875 C 317.847656 219.875 319.957031 218.660156 320.90625 216.640625 C 333.84375 189.101562 336.613281 157.664062 328.707031 128.117188 C 310.242188 59.140625 239.167969 18.058594 170.265625 36.539062 C 156.3125 40.28125 143.234375 46.234375 131.394531 54.226562 C 130.457031 54.859375 129.332031 55.085938 128.222656 54.871094 C 127.113281 54.652344 126.15625 54.015625 125.527344 53.078125 C 124.898438 52.140625 124.667969 51.011719 124.886719 49.902344 C 125.101562 48.792969 125.738281 47.835938 126.679688 47.199219 C 139.132812 38.792969 153.445312 32.277344 168.070312 28.351562 C 203.636719 18.8125 240.777344 23.710938 272.664062 42.136719 C 304.546875 60.566406 327.355469 90.324219 336.882812 125.921875 C 345.496094 158.101562 342.160156 192.34375 327.488281 222.339844 C 326.574219 224.210938 326.835938 226.445312 328.160156 228.050781 C 329.480469 229.660156 331.621094 230.347656 333.632812 229.808594 L 347.15625 226.183594 C 348.238281 225.890625 349.371094 226.039062 350.339844 226.601562 C 351.3125 227.164062 352.003906 228.066406 352.296875 229.152344 C 352.585938 230.238281 352.4375 231.367188 351.875 232.339844 Z M 292.578125 250.203125 C 286.507812 248.574219 280.1875 249.398438 274.777344 252.527344 L 222.28125 282.867188 C 222.335938 280.402344 222.054688 277.890625 221.386719 275.390625 C 217.585938 261.199219 202.964844 252.75 188.792969 256.550781 L 167.035156 262.386719 C 158.800781 264.597656 151.207031 263.59375 143.824219 259.328125 L 119.117188 245.046875 C 104.765625 230.480469 94.367188 212.292969 89.042969 192.402344 C 83.125 170.28125 83.730469 146.992188 90.609375 125.425781 C 91.890625 128.054688 93.925781 130.242188 96.511719 131.738281 C 99.945312 133.722656 103.949219 134.25 107.78125 133.222656 C 115.691406 131.101562 120.402344 122.933594 118.28125 115.007812 L 108.804688 79.738281 C 106.691406 71.839844 98.550781 67.136719 90.660156 69.25 L 55.414062 78.707031 C 47.523438 80.824219 42.824219 88.972656 44.9375 96.871094 C 45.964844 100.695312 48.414062 103.894531 51.839844 105.875 C 55.269531 107.855469 59.261719 108.382812 63.082031 107.355469 L 65.851562 106.613281 C 54.027344 136.253906 52.035156 169.035156 60.347656 200.097656 C 64.605469 215.992188 71.328125 230.847656 80.363281 244.351562 C 79.546875 244.65625 78.722656 244.964844 77.894531 245.277344 C 70.320312 248.121094 61.855469 251.300781 51.894531 253.222656 L 51.375 251.28125 C 50.734375 248.886719 49.195312 246.882812 47.046875 245.640625 C 44.894531 244.398438 42.394531 244.066406 40.003906 244.707031 L 24.007812 249 C 21.617188 249.640625 19.617188 251.179688 18.375 253.332031 C 17.132812 255.484375 16.800781 257.988281 17.441406 260.382812 L 46.113281 367.503906 C 47.222656 371.652344 50.984375 374.394531 55.082031 374.394531 C 55.875 374.394531 56.683594 374.292969 57.484375 374.078125 L 73.484375 369.785156 C 75.875 369.144531 77.875 367.605469 79.113281 365.453125 C 80.328125 363.347656 80.664062 360.90625 80.082031 358.5625 C 103.429688 353.421875 118.113281 357.609375 137.921875 363.265625 C 141.515625 364.292969 145.238281 365.355469 149.210938 366.421875 C 152.660156 367.347656 156.066406 367.808594 159.414062 367.808594 C 165.910156 367.808594 172.199219 366.070312 178.203125 362.601562 L 298.242188 293.214844 C 303.652344 290.089844 307.527344 285.023438 309.152344 278.949219 C 310.777344 272.871094 309.953125 266.542969 306.828125 261.125 C 303.707031 255.710938 298.648438 251.832031 292.578125 250.203125 Z M 70.609375 197.347656 C 61.976562 165.101562 65.304688 130.867188 79.980469 100.945312 C 80.898438 99.074219 80.640625 96.835938 79.316406 95.226562 C 77.996094 93.617188 75.855469 92.929688 73.839844 93.46875 L 60.335938 97.089844 C 59.253906 97.378906 58.125 97.230469 57.152344 96.671875 C 56.179688 96.109375 55.488281 95.203125 55.195312 94.121094 C 54.597656 91.882812 55.929688 89.574219 58.164062 88.972656 L 93.410156 79.519531 C 95.644531 78.921875 97.949219 80.253906 98.550781 82.496094 L 108.027344 117.761719 C 108.632812 120.019531 107.289062 122.351562 105.035156 122.953125 C 103.941406 123.246094 102.800781 123.097656 101.820312 122.53125 C 100.839844 121.964844 100.140625 121.050781 99.847656 119.957031 L 96.523438 107.527344 C 95.945312 105.371094 94.085938 103.808594 91.863281 103.609375 C 89.640625 103.414062 87.535156 104.625 86.589844 106.644531 C 73.65625 134.203125 70.886719 165.636719 78.785156 195.15625 C 83.054688 211.109375 90.332031 226.050781 100.109375 239.164062 C 97.074219 239.339844 93.992188 239.949219 90.828125 240.828125 C 81.613281 227.664062 74.8125 213.058594 70.609375 197.347656 Z M 56.027344 363.464844 L 28.046875 258.921875 L 41.464844 255.320312 L 69.449219 359.863281 Z M 298.898438 276.199219 C 298.007812 279.53125 295.890625 282.304688 292.9375 284.011719 L 172.894531 353.394531 C 166.234375 357.246094 159.390625 358.148438 151.960938 356.15625 C 148.070312 355.109375 144.390625 354.058594 140.835938 353.042969 C 120.15625 347.140625 103.558594 342.40625 77.339844 348.285156 L 54.652344 263.515625 C 65.117188 261.429688 73.824219 258.160156 81.625 255.230469 C 95.113281 250.160156 102.480469 247.707031 109.515625 251.773438 L 138.515625 268.535156 C 148.324219 274.203125 158.847656 275.589844 169.785156 272.65625 L 191.539062 266.820312 C 200.058594 264.535156 208.847656 269.613281 211.128906 278.140625 C 213.410156 286.671875 208.339844 295.46875 199.820312 297.753906 L 168.007812 306.285156 C 162.628906 307.726562 157.378906 307.777344 152.402344 306.433594 C 149.570312 305.667969 146.65625 307.34375 145.894531 310.179688 C 145.128906 313.015625 146.804688 315.929688 149.636719 316.695312 C 152.953125 317.589844 156.339844 318.039062 159.777344 318.039062 C 163.390625 318.039062 167.0625 317.542969 170.753906 316.550781 L 202.570312 308.019531 C 208.578125 306.40625 213.554688 302.839844 217.003906 298.191406 L 280.085938 261.730469 C 283.039062 260.023438 286.5 259.574219 289.832031 260.46875 C 293.160156 261.363281 295.929688 263.484375 297.636719 266.441406 C 299.34375 269.398438 299.789062 272.863281 298.898438 276.199219 Z M 203.746094 239.730469 C 246.761719 239.730469 281.757812 204.699219 281.757812 161.636719 C 281.757812 118.574219 246.761719 83.539062 203.746094 83.539062 C 160.730469 83.539062 125.734375 118.574219 125.734375 161.636719 C 125.734375 204.699219 160.730469 239.730469 203.746094 239.730469 Z M 203.746094 94.167969 C 240.90625 94.167969 271.140625 124.433594 271.140625 161.636719 C 271.140625 198.839844 240.90625 229.101562 203.746094 229.101562 C 166.585938 229.101562 136.351562 198.839844 136.351562 161.636719 C 136.351562 124.433594 166.585938 94.167969 203.746094 94.167969 Z M 203.746094 217.964844 C 234.773438 217.964844 260.015625 192.695312 260.015625 161.636719 C 260.015625 130.574219 234.773438 105.304688 203.746094 105.304688 C 172.71875 105.304688 147.476562 130.574219 147.476562 161.636719 C 147.476562 192.695312 172.71875 217.964844 203.746094 217.964844 Z M 203.746094 115.9375 C 228.917969 115.9375 249.398438 136.4375 249.398438 161.636719 C 249.398438 186.835938 228.917969 207.335938 203.746094 207.335938 C 178.574219 207.335938 158.097656 186.835938 158.097656 161.636719 C 158.097656 136.4375 178.574219 115.9375 203.746094 115.9375 Z M 184.9375 149.273438 C 184.9375 140.78125 190.371094 134.222656 198.4375 132.222656 L 198.4375 128.535156 C 198.4375 125.597656 200.816406 123.21875 203.746094 123.21875 C 206.679688 123.21875 209.054688 125.597656 209.054688 128.535156 L 209.054688 132.410156 C 216.207031 134.671875 221.40625 141.375 221.40625 149.273438 C 221.40625 152.207031 219.027344 154.585938 216.097656 154.585938 C 213.164062 154.585938 210.789062 152.207031 210.789062 149.273438 C 210.789062 145.386719 207.628906 142.222656 203.746094 142.222656 C 199.96875 142.222656 195.554688 144.070312 195.554688 149.273438 C 195.554688 154.476562 199.96875 156.320312 203.746094 156.320312 C 214.644531 156.320312 222.554688 163.757812 222.554688 174 C 222.554688 182.488281 217.121094 189.050781 209.054688 191.046875 L 209.054688 194.738281 C 209.054688 197.671875 206.679688 200.050781 203.746094 200.050781 C 200.8125 200.050781 198.4375 197.671875 198.4375 194.738281 L 198.4375 190.863281 C 191.285156 188.601562 186.085938 181.898438 186.085938 174 C 186.085938 171.066406 188.464844 168.683594 191.394531 168.683594 C 194.328125 168.683594 196.703125 171.066406 196.703125 174 C 196.703125 177.886719 199.863281 181.050781 203.746094 181.050781 C 207.523438 181.050781 211.9375 179.203125 211.9375 174 C 211.9375 168.796875 207.523438 166.953125 203.746094 166.953125 C 192.847656 166.949219 184.9375 159.515625 184.9375 149.273438 Z M 184.9375 149.273438 " fill-opacity="1" fill-rule="nonzero"/></g></svg>