<svg xmlns="http://www.w3.org/2000/svg" xmlns:xlink="http://www.w3.org/1999/xlink" width="500" zoomAndPan="magnify" viewBox="0 0 375.12 383.03998" height="500" preserveAspectRatio="xMidYMid meet" version="1.0"><defs><clipPath id="699332b9d6"><path d="M 133 302 L 230 302 L 230 354.640625 L 133 354.640625 Z M 133 302 " clip-rule="nonzero"/></clipPath><clipPath id="ccb795a240"><path d="M 0.03125 116 L 90 116 L 90 275 L 0.03125 275 Z M 0.03125 116 " clip-rule="nonzero"/></clipPath><clipPath id="61439a43f5"><path d="M 126 19.484375 L 248 19.484375 L 248 147 L 126 147 Z M 126 19.484375 " clip-rule="nonzero"/></clipPath></defs><path fill="#000000" d="M 279.316406 276.351562 C 276.726562 276.351562 274.574219 274.296875 274.480469 271.679688 C 274.378906 269.007812 276.472656 266.761719 279.140625 266.667969 C 279.339844 266.660156 299.816406 265.761719 317.21875 255.238281 C 319.503906 253.847656 322.480469 254.589844 323.871094 256.878906 C 325.257812 259.164062 324.515625 262.144531 322.230469 263.53125 C 302.617188 275.390625 280.425781 276.316406 279.492188 276.351562 C 279.433594 276.351562 279.375 276.351562 279.316406 276.351562 Z M 279.316406 276.351562 " fill-opacity="1" fill-rule="nonzero"/><path fill="#000000" d="M 68.621094 270.933594 C 67.382812 270.933594 66.136719 270.460938 65.195312 269.511719 L 53.0625 257.375 C 51.167969 255.480469 51.167969 252.410156 53.0625 250.519531 C 54.953125 248.625 58.023438 248.625 59.914062 250.519531 L 72.050781 262.65625 C 73.941406 264.546875 73.941406 267.617188 72.050781 269.511719 C 71.101562 270.460938 69.855469 270.933594 68.621094 270.933594 Z M 68.621094 270.933594 " fill-opacity="1" fill-rule="nonzero"/><g clip-path="url(#699332b9d6)"><path fill="#000000" d="M 160.277344 354.667969 C 154.136719 354.667969 148 352.332031 143.324219 347.652344 L 135.359375 339.6875 C 133.464844 337.796875 133.464844 334.726562 135.359375 332.832031 C 137.25 330.941406 140.320312 330.941406 142.210938 332.832031 L 150.175781 340.796875 C 155.742188 346.375 164.808594 346.367188 170.386719 340.796875 C 173.085938 338.105469 174.574219 334.523438 174.574219 330.695312 C 174.574219 328.835938 174.21875 327.027344 173.523438 325.3125 C 172.816406 323.546875 171.753906 321.957031 170.386719 320.585938 C 168.492188 318.691406 168.492188 315.621094 170.386719 313.730469 C 172.277344 311.835938 175.347656 311.835938 177.238281 313.730469 L 194.976562 331.460938 C 197.675781 334.160156 201.265625 335.652344 205.074219 335.652344 C 208.882812 335.652344 212.476562 334.160156 215.175781 331.460938 C 217.875 328.761719 219.363281 325.167969 219.363281 321.351562 C 219.363281 317.53125 217.875 313.941406 215.183594 311.25 C 213.292969 309.355469 213.292969 306.285156 215.183594 304.394531 C 217.074219 302.5 220.144531 302.5 222.035156 304.394531 C 226.5625 308.917969 229.050781 314.941406 229.050781 321.351562 C 229.050781 327.761719 226.554688 333.78125 222.027344 338.316406 C 217.496094 342.84375 211.484375 345.339844 205.074219 345.339844 C 198.667969 345.339844 192.652344 342.84375 188.121094 338.316406 L 184.007812 334.203125 C 183.269531 339.292969 180.929688 343.976562 177.230469 347.660156 C 172.554688 352.339844 166.414062 354.667969 160.277344 354.667969 Z M 160.277344 354.667969 " fill-opacity="1" fill-rule="nonzero"/></g><path fill="#000000" d="M 239.917969 326.054688 C 233.777344 326.054688 227.636719 323.714844 222.960938 319.039062 L 179.398438 275.464844 C 177.507812 273.574219 177.507812 270.503906 179.398438 268.609375 C 181.292969 266.71875 184.363281 266.71875 186.253906 268.609375 L 229.816406 312.183594 C 235.382812 317.757812 244.449219 317.757812 250.023438 312.183594 C 255.601562 306.613281 255.601562 297.546875 250.023438 291.96875 L 206.460938 248.398438 C 204.570312 246.507812 204.570312 243.4375 206.460938 241.542969 C 208.355469 239.652344 211.425781 239.652344 213.316406 241.542969 L 256.878906 285.113281 C 266.230469 294.46875 266.230469 309.683594 256.878906 319.03125 C 252.195312 323.714844 246.054688 326.054688 239.917969 326.054688 Z M 239.917969 326.054688 " fill-opacity="1" fill-rule="nonzero"/><path fill="#000000" d="M 260.4375 292.457031 C 254.296875 292.457031 248.15625 290.121094 243.488281 285.449219 C 241.597656 283.558594 241.597656 280.488281 243.488281 278.59375 C 245.382812 276.703125 248.453125 276.703125 250.34375 278.59375 C 255.917969 284.164062 264.976562 284.164062 270.542969 278.59375 C 272.679688 276.449219 274.066406 273.734375 274.539062 270.757812 C 274.546875 270.722656 274.546875 270.699219 274.554688 270.664062 C 274.671875 270 274.730469 269.265625 274.730469 268.484375 C 274.730469 264.675781 273.242188 261.082031 270.542969 258.375 L 201.375 189.191406 C 196.386719 184.195312 189.070312 182.285156 182.277344 184.195312 C 178.785156 185.179688 175.648438 187.105469 173.210938 189.761719 L 151.648438 213.179688 C 151.605469 213.230469 151.554688 213.273438 151.511719 213.324219 C 146.570312 218.269531 139.992188 220.996094 133.003906 220.996094 C 126.015625 220.996094 119.429688 218.269531 114.484375 213.324219 C 106.285156 205.121094 104.425781 192.738281 109.867188 182.527344 C 116.796875 169.5 128.78125 151.617188 146.542969 140.429688 C 146.609375 140.386719 146.667969 140.355469 146.738281 140.3125 C 161.34375 131.167969 177.347656 128.089844 194.300781 131.167969 C 196.875 131.546875 232.019531 136.945312 259.628906 155.847656 L 287.917969 143.609375 C 290.375 142.550781 293.226562 143.675781 294.285156 146.132812 C 295.34375 148.589844 294.21875 151.441406 291.761719 152.5 L 260.980469 165.816406 C 259.417969 166.496094 257.601562 166.292969 256.222656 165.292969 C 229.800781 146.183594 193.207031 140.800781 192.839844 140.75 C 192.769531 140.742188 192.710938 140.730469 192.652344 140.714844 C 178.054688 138.050781 164.289062 140.707031 151.722656 148.621094 C 151.664062 148.65625 151.605469 148.699219 151.546875 148.730469 C 135.679688 158.800781 124.789062 175.136719 118.429688 187.078125 C 115.007812 193.515625 116.175781 201.304688 121.339844 206.46875 C 124.449219 209.578125 128.597656 211.296875 133.003906 211.296875 C 137.375 211.296875 141.496094 209.605469 144.601562 206.527344 L 166.085938 183.191406 C 169.738281 179.214844 174.429688 176.335938 179.652344 174.867188 C 189.820312 171.996094 200.769531 174.867188 208.226562 182.335938 L 277.398438 251.519531 C 281.929688 256.0625 284.421875 262.085938 284.421875 268.484375 C 284.421875 269.8125 284.3125 271.101562 284.101562 272.3125 C 283.300781 277.300781 280.988281 281.84375 277.398438 285.441406 C 272.722656 290.121094 266.574219 292.457031 260.4375 292.457031 Z M 260.4375 292.457031 " fill-opacity="1" fill-rule="nonzero"/><path fill="#000000" d="M 84.109375 155.292969 C 81.898438 155.292969 79.90625 153.769531 79.390625 151.523438 C 78.796875 148.917969 80.425781 146.316406 83.042969 145.71875 C 113.402344 138.796875 147.652344 139.628906 149.242188 139.679688 C 151.867188 139.738281 153.976562 141.882812 153.976562 144.527344 C 153.976562 147.242188 151.722656 149.453125 149 149.371094 C 147.59375 149.335938 114.445312 148.503906 85.195312 155.175781 C 84.832031 155.25 84.472656 155.292969 84.109375 155.292969 Z M 84.109375 155.292969 " fill-opacity="1" fill-rule="nonzero"/><path fill="#000000" d="M 79.476562 289.496094 C 75.042969 289.496094 70.613281 287.804688 67.238281 284.433594 C 63.96875 281.160156 62.167969 276.8125 62.167969 272.195312 C 62.167969 267.578125 63.96875 263.21875 67.238281 259.957031 L 81.980469 245.210938 C 85.253906 241.9375 89.59375 240.136719 94.21875 240.136719 C 98.84375 240.136719 103.191406 241.9375 106.453125 245.210938 C 113.199219 251.957031 113.199219 262.941406 106.453125 269.6875 C 104.5625 271.582031 101.492188 271.582031 99.601562 269.6875 C 97.707031 267.796875 97.707031 264.726562 99.601562 262.832031 C 102.570312 259.863281 102.570312 255.027344 99.601562 252.058594 C 98.164062 250.621094 96.246094 249.828125 94.210938 249.828125 C 92.175781 249.828125 90.265625 250.621094 88.820312 252.058594 L 74.078125 266.804688 C 72.640625 268.242188 71.847656 270.152344 71.847656 272.1875 C 71.847656 274.222656 72.640625 276.140625 74.078125 277.578125 C 77.046875 280.546875 81.882812 280.546875 84.851562 277.578125 C 86.742188 275.683594 89.8125 275.683594 91.703125 277.578125 C 93.597656 279.46875 93.597656 282.539062 91.703125 284.433594 C 88.339844 287.804688 83.90625 289.496094 79.476562 289.496094 Z M 79.476562 289.496094 " fill-opacity="1" fill-rule="nonzero"/><path fill="#000000" d="M 91.855469 312.367188 C 87.421875 312.367188 82.992188 310.675781 79.621094 307.304688 C 76.347656 304.03125 74.546875 299.691406 74.546875 295.066406 C 74.546875 290.4375 76.347656 286.089844 79.621094 282.828125 L 99.609375 262.832031 C 102.878906 259.5625 107.21875 257.761719 111.84375 257.761719 C 116.46875 257.761719 120.816406 259.5625 124.082031 262.832031 C 130.824219 269.578125 130.824219 280.5625 124.082031 287.308594 C 122.1875 289.203125 119.121094 289.203125 117.226562 287.308594 C 115.335938 285.417969 115.335938 282.347656 117.226562 280.453125 C 120.195312 277.484375 120.195312 272.648438 117.226562 269.679688 C 115.789062 268.242188 113.871094 267.449219 111.835938 267.449219 C 109.800781 267.449219 107.890625 268.242188 106.445312 269.679688 L 86.457031 289.671875 C 85.019531 291.113281 84.226562 293.03125 84.226562 295.066406 C 84.226562 297.101562 85.019531 299.011719 86.457031 300.457031 C 89.425781 303.425781 94.261719 303.425781 97.230469 300.457031 C 99.121094 298.566406 102.191406 298.566406 104.082031 300.457031 C 105.976562 302.351562 105.976562 305.417969 104.082031 307.3125 C 100.71875 310.683594 96.277344 312.367188 91.855469 312.367188 Z M 91.855469 312.367188 " fill-opacity="1" fill-rule="nonzero"/><path fill="#000000" d="M 103.664062 335.800781 C 99.230469 335.800781 94.796875 334.109375 91.425781 330.738281 C 84.683594 323.992188 84.683594 313.007812 91.425781 306.261719 L 117.226562 280.464844 C 123.972656 273.71875 134.953125 273.71875 141.699219 280.464844 C 144.972656 283.734375 146.769531 288.074219 146.769531 292.703125 C 146.769531 297.328125 144.972656 301.675781 141.699219 304.941406 L 115.90625 330.738281 C 112.527344 334.109375 108.09375 335.800781 103.664062 335.800781 Z M 129.464844 285.082031 C 127.511719 285.082031 125.5625 285.820312 124.074219 287.308594 L 98.273438 313.109375 C 95.304688 316.078125 95.304688 320.914062 98.273438 323.882812 C 101.242188 326.851562 106.074219 326.851562 109.042969 323.882812 L 134.835938 298.085938 C 136.273438 296.648438 137.066406 294.730469 137.066406 292.691406 C 137.066406 290.65625 136.273438 288.738281 134.835938 287.300781 C 133.367188 285.820312 131.414062 285.082031 129.464844 285.082031 Z M 129.464844 285.082031 " fill-opacity="1" fill-rule="nonzero"/><path fill="#000000" d="M 128.78125 345.945312 C 124.351562 345.945312 119.917969 344.253906 116.546875 340.882812 C 109.792969 334.128906 109.792969 323.144531 116.546875 316.398438 C 118.4375 314.503906 121.507812 314.503906 123.398438 316.398438 C 125.292969 318.289062 125.292969 321.359375 123.398438 323.253906 C 120.429688 326.222656 120.429688 331.058594 123.410156 334.035156 C 126.378906 337.003906 131.210938 337.003906 134.179688 334.035156 L 152.488281 315.722656 C 153.925781 314.285156 154.71875 312.367188 154.71875 310.332031 C 154.71875 308.296875 153.925781 306.386719 152.488281 304.949219 C 151.050781 303.511719 149.132812 302.710938 147.097656 302.710938 C 147.097656 302.710938 147.097656 302.710938 147.089844 302.710938 C 145.054688 302.710938 143.144531 303.503906 141.714844 304.941406 C 139.824219 306.832031 136.753906 306.832031 134.863281 304.941406 C 132.96875 303.046875 132.96875 299.976562 134.863281 298.085938 C 138.125 294.820312 142.472656 293.019531 147.089844 293.019531 C 147.097656 293.019531 147.097656 293.019531 147.105469 293.019531 C 151.730469 293.019531 156.070312 294.828125 159.34375 298.09375 C 162.613281 301.367188 164.414062 305.707031 164.414062 310.332031 C 164.414062 314.957031 162.613281 319.308594 159.34375 322.570312 L 141.035156 340.882812 C 137.644531 344.253906 133.214844 345.945312 128.78125 345.945312 Z M 128.78125 345.945312 " fill-opacity="1" fill-rule="nonzero"/><path fill="#000000" d="M 336.957031 274.179688 C 326.03125 274.179688 316.007812 266.878906 313.046875 255.835938 L 285.824219 154.214844 C 284.117188 147.847656 285 141.1875 288.3125 135.449219 C 291.628906 129.714844 296.957031 125.609375 303.316406 123.910156 L 329.890625 116.785156 C 332.472656 116.09375 335.128906 117.625 335.820312 120.207031 L 373.34375 260.285156 C 374.035156 262.867188 372.503906 265.523438 369.921875 266.214844 L 343.347656 273.339844 C 341.21875 273.910156 339.074219 274.179688 336.957031 274.179688 Z M 305.832031 133.261719 C 301.972656 134.296875 298.726562 136.796875 296.707031 140.292969 C 294.6875 143.792969 294.148438 147.847656 295.183594 151.710938 L 322.40625 253.328125 C 324.558594 261.351562 332.835938 266.128906 340.847656 263.976562 L 362.738281 258.105469 L 327.722656 127.390625 Z M 304.578125 128.585938 Z M 304.578125 128.585938 " fill-opacity="1" fill-rule="nonzero"/><g clip-path="url(#ccb795a240)"><path fill="#000000" d="M 37.101562 274.136719 C 34.988281 274.136719 32.835938 273.867188 30.699219 273.289062 L 4.125 266.164062 C 1.542969 265.472656 0.00390625 262.816406 0.703125 260.234375 L 38.226562 120.15625 C 38.5625 118.914062 39.371094 117.863281 40.480469 117.214844 C 41.589844 116.574219 42.917969 116.398438 44.15625 116.726562 L 70.730469 123.851562 C 83.90625 127.382812 91.761719 140.984375 88.230469 154.164062 L 61.007812 255.785156 C 58.046875 266.828125 48.023438 274.136719 37.101562 274.136719 Z M 33.207031 263.925781 C 41.21875 266.070312 49.496094 261.292969 51.648438 253.277344 L 78.871094 151.660156 C 81.023438 143.632812 76.246094 135.367188 68.222656 133.210938 L 46.324219 127.339844 L 11.308594 258.054688 Z M 33.207031 263.925781 " fill-opacity="1" fill-rule="nonzero"/></g><g clip-path="url(#61439a43f5)"><path fill="#000000" d="M 216.839844 146.273438 C 215.644531 146.273438 214.453125 145.839844 213.519531 144.953125 C 211.566406 143.121094 211.484375 140.050781 213.316406 138.109375 C 229.234375 121.21875 238.007812 99.8125 238.007812 77.804688 C 238.007812 68.914062 236.609375 60.140625 233.859375 51.6875 C 215.5625 52.496094 198.078125 45.09375 187.035156 32.367188 C 175.992188 45.09375 158.542969 52.503906 140.210938 51.6875 C 137.453125 60.140625 136.054688 68.914062 136.054688 77.804688 C 136.054688 99.40625 144.542969 120.527344 159.957031 137.257812 C 161.765625 139.226562 161.648438 142.289062 159.679688 144.105469 C 157.710938 145.921875 154.648438 145.789062 152.832031 143.828125 C 135.769531 125.296875 126.367188 101.847656 126.367188 77.804688 C 126.367188 66.550781 128.371094 55.480469 132.324219 44.890625 C 133.097656 42.824219 135.171875 41.542969 137.367188 41.773438 C 139.21875 41.964844 141.09375 42.066406 142.945312 42.066406 C 159.417969 42.066406 174.757812 34.269531 182.984375 21.710938 C 183.875 20.339844 185.40625 19.523438 187.035156 19.523438 C 188.667969 19.523438 190.191406 20.347656 191.089844 21.710938 C 199.304688 34.269531 214.644531 42.066406 231.128906 42.066406 C 232.976562 42.066406 234.851562 41.964844 236.703125 41.773438 C 238.898438 41.542969 240.976562 42.824219 241.75 44.890625 C 245.703125 55.472656 247.703125 66.550781 247.703125 77.804688 C 247.703125 102.285156 238 126.0625 220.378906 144.753906 C 219.414062 145.761719 218.125 146.273438 216.839844 146.273438 Z M 216.839844 146.273438 " fill-opacity="1" fill-rule="nonzero"/></g><path fill="#000000" d="M 175.765625 118.761719 C 174.480469 118.761719 173.253906 118.25 172.34375 117.339844 L 155.085938 100.078125 C 153.195312 98.1875 153.195312 95.117188 155.085938 93.222656 C 156.980469 91.332031 160.050781 91.332031 161.941406 93.222656 L 175.765625 107.054688 L 212.113281 70.699219 C 214.003906 68.804688 217.074219 68.804688 218.96875 70.699219 C 220.859375 72.589844 220.859375 75.660156 218.96875 77.554688 L 179.199219 117.332031 C 178.28125 118.25 177.054688 118.761719 175.765625 118.761719 Z M 175.765625 118.761719 " fill-opacity="1" fill-rule="nonzero"/></svg>