<svg xmlns="http://www.w3.org/2000/svg" xmlns:xlink="http://www.w3.org/1999/xlink" width="500" zoomAndPan="magnify" viewBox="0 0 375 374.999991" height="500" preserveAspectRatio="xMidYMid meet" version="1.0"><defs><clipPath id="063f36b9d2"><path d="M 15.195312 42 L 133 42 L 133 155 L 15.195312 155 Z M 15.195312 42 " clip-rule="nonzero"/></clipPath></defs><rect x="-37.5" width="450" fill="#ffffff" y="-37.499999" height="449.999989" fill-opacity="1"/><rect x="-37.5" width="450" fill="#ffffff" y="-37.499999" height="449.999989" fill-opacity="1"/><path fill="#000000" d="M 131.578125 49.769531 L 159.679688 70.207031 L 148.945312 103.277344 C 148.050781 106.03125 149.03125 109.046875 151.371094 110.746094 C 153.710938 112.449219 156.878906 112.449219 159.21875 110.746094 L 187.320312 90.3125 L 215.421875 110.746094 C 216.59375 111.597656 217.96875 112.023438 219.347656 112.023438 C 220.722656 112.023438 222.101562 111.597656 223.269531 110.746094 C 225.609375 109.046875 226.589844 106.03125 225.695312 103.277344 L 214.960938 70.207031 L 243.0625 49.769531 C 245.402344 48.070312 246.382812 45.050781 245.488281 42.296875 C 244.59375 39.546875 242.03125 37.679688 239.140625 37.679688 L 204.402344 37.679688 L 193.671875 4.613281 C 192.777344 1.859375 190.214844 -0.00390625 187.320312 -0.00390625 C 184.429688 -0.00390625 181.863281 1.859375 180.972656 4.613281 L 170.238281 37.679688 L 135.503906 37.679688 C 132.609375 37.679688 130.046875 39.546875 129.152344 42.296875 C 128.257812 45.050781 129.238281 48.070312 131.578125 49.769531 Z M 175.085938 51.046875 C 177.980469 51.046875 180.542969 49.183594 181.4375 46.429688 L 187.320312 28.304688 L 193.203125 46.429688 C 194.097656 49.183594 196.660156 51.046875 199.550781 51.046875 L 218.589844 51.046875 L 203.1875 62.246094 C 200.847656 63.949219 199.867188 66.964844 200.761719 69.71875 L 206.644531 87.84375 L 191.242188 76.644531 C 190.074219 75.792969 188.695312 75.367188 187.320312 75.367188 C 185.941406 75.367188 184.566406 75.792969 183.394531 76.644531 L 167.996094 87.84375 L 173.878906 69.71875 C 174.769531 66.964844 173.792969 63.949219 171.453125 62.246094 L 156.050781 51.046875 Z M 175.085938 51.046875 " fill-opacity="1" fill-rule="nonzero"/><path fill="#000000" d="M 242.179688 84.734375 C 241.285156 87.488281 242.265625 90.503906 244.605469 92.207031 L 272.707031 112.644531 L 261.972656 145.710938 C 261.078125 148.464844 262.058594 151.480469 264.398438 153.183594 C 266.738281 154.886719 269.90625 154.886719 272.246094 153.183594 L 300.347656 132.746094 L 328.449219 153.183594 C 329.617188 154.035156 330.996094 154.460938 332.371094 154.460938 C 333.75 154.460938 335.125 154.035156 336.296875 153.183594 C 338.636719 151.480469 339.617188 148.464844 338.722656 145.710938 L 327.988281 112.644531 L 356.089844 92.207031 C 358.429688 90.503906 359.410156 87.488281 358.515625 84.734375 C 357.621094 81.980469 355.058594 80.117188 352.164062 80.117188 L 317.429688 80.117188 L 306.695312 47.046875 C 305.804688 44.292969 303.238281 42.429688 300.347656 42.429688 C 297.457031 42.429688 294.890625 44.292969 294 47.046875 L 283.265625 80.117188 L 248.53125 80.117188 C 245.636719 80.117188 243.074219 81.980469 242.179688 84.734375 Z M 288.113281 93.484375 C 291.007812 93.484375 293.570312 91.617188 294.464844 88.863281 L 300.347656 70.742188 L 306.230469 88.863281 C 307.121094 91.617188 309.6875 93.484375 312.578125 93.484375 L 331.617188 93.484375 L 316.214844 104.683594 C 313.875 106.386719 312.894531 109.402344 313.789062 112.15625 L 319.671875 130.28125 L 304.269531 119.078125 C 303.101562 118.226562 301.722656 117.800781 300.347656 117.800781 C 298.96875 117.800781 297.59375 118.226562 296.421875 119.078125 L 281.023438 130.28125 L 286.90625 112.15625 C 287.796875 109.402344 286.820312 106.386719 284.480469 104.683594 L 269.078125 93.484375 Z M 288.113281 93.484375 " fill-opacity="1" fill-rule="nonzero"/><g clip-path="url(#063f36b9d2)"><path fill="#000000" d="M 102.394531 153.183594 C 103.5625 154.035156 104.941406 154.460938 106.316406 154.460938 C 107.695312 154.460938 109.070312 154.035156 110.242188 153.183594 C 112.582031 151.480469 113.5625 148.464844 112.667969 145.710938 L 101.933594 112.644531 L 130.035156 92.207031 C 132.375 90.503906 133.355469 87.488281 132.460938 84.734375 C 131.566406 81.980469 129.003906 80.117188 126.109375 80.117188 L 91.375 80.117188 L 80.640625 47.046875 C 79.75 44.296875 77.183594 42.429688 74.292969 42.429688 C 71.402344 42.429688 68.835938 44.296875 67.941406 47.046875 L 57.210938 80.117188 L 22.476562 80.117188 C 19.582031 80.117188 17.019531 81.980469 16.125 84.734375 C 15.230469 87.488281 16.210938 90.503906 18.550781 92.207031 L 46.652344 112.644531 L 35.917969 145.710938 C 35.023438 148.464844 36.003906 151.484375 38.34375 153.183594 C 40.683594 154.886719 43.851562 154.886719 46.191406 153.183594 L 74.292969 132.746094 Z M 54.96875 130.277344 L 60.851562 112.15625 C 61.742188 109.402344 60.765625 106.382812 58.425781 104.683594 L 43.023438 93.480469 L 62.058594 93.480469 C 64.953125 93.480469 67.515625 91.617188 68.410156 88.863281 L 74.292969 70.738281 L 80.175781 88.863281 C 81.070312 91.617188 83.632812 93.480469 86.523438 93.480469 L 105.5625 93.480469 L 90.160156 104.683594 C 87.820312 106.386719 86.839844 109.402344 87.734375 112.15625 L 93.617188 130.277344 L 78.21875 119.078125 C 77.046875 118.226562 75.671875 117.800781 74.292969 117.800781 C 72.917969 117.800781 71.539062 118.226562 70.371094 119.078125 Z M 54.96875 130.277344 " fill-opacity="1" fill-rule="nonzero"/></g><path fill="#000000" d="M 286.300781 282.222656 C 284.667969 279.867188 282.957031 277.574219 281.167969 275.347656 L 268.667969 262 C 266.574219 260.078125 264.414062 258.222656 262.183594 256.449219 C 255.128906 250.832031 247.5 246.046875 239.421875 242.160156 C 244.316406 236.554688 248.261719 230.253906 251.167969 223.375 C 254.820312 214.726562 256.671875 205.550781 256.671875 196.089844 C 256.671875 186.632812 254.820312 177.453125 251.167969 168.808594 C 247.640625 160.460938 242.59375 152.964844 236.167969 146.53125 C 229.738281 140.097656 222.253906 135.046875 213.914062 131.515625 C 205.277344 127.859375 196.109375 126.003906 186.660156 126.003906 C 177.210938 126.003906 168.039062 127.859375 159.402344 131.515625 C 151.066406 135.046875 143.578125 140.097656 137.148438 146.53125 C 130.722656 152.964844 125.675781 160.460938 122.148438 168.808594 C 118.496094 177.453125 116.644531 186.632812 116.644531 196.089844 C 116.644531 205.550781 118.496094 214.726562 122.148438 223.375 C 125.136719 230.441406 129.214844 236.894531 134.296875 242.613281 C 126.554688 246.421875 119.234375 251.054688 112.441406 256.460938 C 103.183594 263.835938 95.070312 272.507812 88.332031 282.234375 C 74.34375 302.429688 66.949219 326.144531 66.949219 350.808594 L 66.949219 350.980469 C 66.949219 364.222656 77.710938 374.996094 90.941406 374.996094 L 283.699219 374.996094 C 296.929688 374.996094 307.691406 364.222656 307.691406 350.980469 L 307.691406 350.808594 C 307.691406 344.183594 307.15625 337.628906 306.105469 331.1875 L 303.300781 318.421875 C 301.863281 313.257812 300.085938 308.199219 297.964844 303.269531 L 291.25 289.976562 C 289.703125 287.339844 288.054688 284.753906 286.300781 282.222656 Z M 131.332031 196.089844 C 131.332031 181.296875 137.085938 167.390625 147.539062 156.929688 C 157.988281 146.46875 171.878906 140.707031 186.660156 140.707031 C 201.4375 140.707031 215.332031 146.46875 225.78125 156.929688 C 236.230469 167.390625 241.984375 181.296875 241.984375 196.089844 C 241.984375 210.882812 236.230469 224.792969 225.78125 235.25 C 215.332031 245.710938 201.4375 251.472656 186.660156 251.472656 C 171.878906 251.472656 157.988281 245.710938 147.539062 235.25 C 137.085938 224.792969 131.332031 210.882812 131.332031 196.089844 Z M 293.003906 350.980469 C 293.003906 356.113281 288.828125 360.292969 283.699219 360.292969 L 90.941406 360.292969 C 85.8125 360.292969 81.636719 356.113281 81.636719 350.980469 L 81.636719 350.808594 C 81.636719 329.152344 88.125 308.335938 100.402344 290.609375 C 106.320312 282.0625 113.449219 274.445312 121.585938 267.96875 C 129.121094 261.96875 137.398438 257.050781 146.222656 253.320312 C 150.324219 256.230469 154.726562 258.6875 159.402344 260.664062 C 168.039062 264.324219 177.207031 266.175781 186.65625 266.175781 C 196.105469 266.175781 205.277344 264.324219 213.914062 260.664062 C 218.769531 258.609375 223.339844 256.03125 227.578125 252.96875 C 236.710938 256.738281 245.269531 261.773438 253.039062 267.957031 C 261.179688 274.4375 268.308594 282.054688 274.230469 290.601562 C 286.511719 308.328125 293.003906 329.148438 293.003906 350.808594 Z M 293.003906 350.980469 " fill-opacity="1" fill-rule="nonzero"/><path fill="#231f20" d="M 220.230469 283.808594 C 215.824219 279.402344 209.96875 276.976562 203.742188 276.976562 C 197.542969 276.976562 191.710938 279.382812 187.316406 283.746094 C 182.914062 279.382812 177.085938 276.976562 170.890625 276.976562 C 164.664062 276.976562 158.808594 279.40625 154.40625 283.8125 C 150.003906 288.21875 147.582031 294.078125 147.582031 300.3125 C 147.582031 306.550781 150.003906 312.414062 154.40625 316.820312 L 182.710938 345.152344 C 183.921875 346.363281 185.601562 347.058594 187.316406 347.058594 C 189.035156 347.058594 190.714844 346.363281 191.925781 345.152344 L 220.234375 316.820312 C 224.636719 312.414062 227.0625 306.554688 227.0625 300.320312 C 227.058594 294.078125 224.636719 288.21875 220.230469 283.808594 Z M 214.042969 300.3125 C 214.042969 303.0625 212.96875 305.648438 211.023438 307.59375 L 187.324219 331.320312 L 163.621094 307.59375 C 161.675781 305.652344 160.605469 303.066406 160.605469 300.3125 C 160.605469 297.5625 161.679688 294.976562 163.625 293.027344 C 165.566406 291.082031 168.152344 290.007812 170.898438 290.007812 C 173.640625 290.007812 176.234375 291.082031 178.1875 293.027344 L 182.722656 297.570312 C 183.933594 298.78125 185.613281 299.476562 187.332031 299.476562 C 189.050781 299.476562 190.726562 298.78125 191.941406 297.570312 L 196.476562 293.027344 C 198.414062 291.082031 201 290.007812 203.75 290.007812 C 206.496094 290.007812 209.078125 291.082031 211.027344 293.03125 C 212.96875 294.96875 214.042969 297.554688 214.042969 300.3125 Z M 214.042969 300.3125 " fill-opacity="1" fill-rule="nonzero"/></svg>