<svg xmlns="http://www.w3.org/2000/svg" xmlns:xlink="http://www.w3.org/1999/xlink" width="500" zoomAndPan="magnify" viewBox="0 0 375.12 383.03998" height="500" preserveAspectRatio="xMidYMid meet" version="1.0"><defs><clipPath id="0f7979e191"><path d="M 0.03125 97 L 233 97 L 233 374.0625 L 0.03125 374.0625 Z M 0.03125 97 " clip-rule="nonzero"/></clipPath><clipPath id="a5ae85e8c4"><path d="M 162 0 L 374.09375 0 L 374.09375 374.0625 L 162 374.0625 Z M 162 0 " clip-rule="nonzero"/></clipPath></defs><g clip-path="url(#0f7979e191)"><path fill="#000000" d="M 138.269531 113.84375 C 70.90625 113.84375 16.292969 168.457031 16.292969 235.820312 C 16.292969 303.1875 70.90625 357.800781 138.269531 357.800781 C 169.210938 357.800781 197.445312 346.289062 218.949219 327.304688 C 222.316406 324.335938 227.457031 324.65625 230.429688 328.023438 C 233.402344 331.390625 233.082031 336.527344 229.710938 339.5 C 205.347656 361.003906 173.324219 374.0625 138.269531 374.0625 C 61.921875 374.0625 0.03125 312.167969 0.03125 235.820312 C 0.03125 159.472656 61.921875 97.582031 138.269531 97.582031 C 159.324219 97.582031 179.296875 102.292969 197.179688 110.726562 C 201.242188 112.644531 202.980469 117.488281 201.0625 121.550781 C 199.148438 125.613281 194.304688 127.351562 190.242188 125.4375 C 174.484375 118.003906 156.875 113.84375 138.269531 113.84375 Z M 138.269531 113.84375 " fill-opacity="1" fill-rule="evenodd"/></g><path fill="#000000" d="M 138.269531 146.371094 C 88.867188 146.371094 48.820312 186.417969 48.820312 235.820312 C 48.820312 285.222656 88.867188 325.273438 138.269531 325.273438 C 171.367188 325.273438 200.28125 307.296875 215.757812 280.539062 C 218.007812 276.652344 222.980469 275.324219 226.871094 277.574219 C 230.757812 279.824219 232.085938 284.796875 229.835938 288.683594 C 211.570312 320.261719 177.410156 341.535156 138.269531 341.535156 C 79.886719 341.535156 32.558594 294.207031 32.558594 235.820312 C 32.558594 177.4375 79.886719 130.109375 138.269531 130.109375 C 150.613281 130.109375 162.476562 132.226562 173.507812 136.125 C 177.742188 137.621094 179.960938 142.269531 178.464844 146.503906 C 176.96875 150.738281 172.320312 152.957031 168.089844 151.460938 C 158.773438 148.167969 148.738281 146.371094 138.269531 146.371094 Z M 138.269531 146.371094 " fill-opacity="1" fill-rule="evenodd"/><path fill="#000000" d="M 120.085938 187.03125 C 131.535156 181.308594 145.007812 181.308594 156.453125 187.03125 L 174.433594 196.023438 C 178.453125 198.03125 180.078125 202.914062 178.070312 206.929688 C 176.0625 210.949219 171.179688 212.578125 167.160156 210.566406 L 149.179688 201.578125 C 142.3125 198.144531 134.226562 198.144531 127.359375 201.578125 L 120.492188 205.011719 C 116.4375 207.039062 113.875 211.183594 113.875 215.71875 C 113.875 222.332031 119.234375 227.691406 125.847656 227.691406 L 150.695312 227.691406 C 166.289062 227.691406 178.929688 240.332031 178.929688 255.925781 C 178.929688 266.617188 172.886719 276.394531 163.320312 281.179688 L 156.453125 284.613281 C 145.007812 290.335938 131.535156 290.335938 120.085938 284.613281 L 102.105469 275.621094 C 98.089844 273.613281 96.460938 268.730469 98.46875 264.710938 C 100.476562 260.695312 105.363281 259.066406 109.378906 261.074219 L 127.359375 270.066406 C 134.226562 273.5 142.3125 273.5 149.179688 270.066406 L 156.046875 266.632812 C 160.105469 264.605469 162.664062 260.460938 162.664062 255.925781 C 162.664062 249.3125 157.304688 243.953125 150.695312 243.953125 L 125.847656 243.953125 C 110.253906 243.953125 97.613281 231.3125 97.613281 215.71875 C 97.613281 205.023438 103.652344 195.246094 113.21875 190.464844 Z M 120.085938 187.03125 " fill-opacity="1" fill-rule="evenodd"/><path fill="#000000" d="M 138.269531 162.636719 C 142.761719 162.636719 146.402344 166.277344 146.402344 170.769531 L 146.402344 300.875 C 146.402344 305.367188 142.761719 309.007812 138.269531 309.007812 C 133.78125 309.007812 130.140625 305.367188 130.140625 300.875 L 130.140625 170.769531 C 130.140625 166.277344 133.78125 162.636719 138.269531 162.636719 Z M 138.269531 162.636719 " fill-opacity="1" fill-rule="evenodd"/><g clip-path="url(#a5ae85e8c4)"><path fill="#000000" d="M 268.378906 0 C 271.097656 0 273.636719 1.359375 275.144531 3.621094 L 372.726562 149.992188 C 374.390625 152.488281 374.542969 155.695312 373.128906 158.339844 C 371.714844 160.984375 368.960938 162.636719 365.960938 162.636719 L 320.867188 162.636719 L 320.867188 365.929688 C 320.867188 370.421875 317.226562 374.0625 312.734375 374.0625 L 225.6875 374.0625 C 221.195312 374.0625 217.554688 370.421875 217.554688 365.929688 L 217.554688 162.636719 L 170.796875 162.636719 C 167.796875 162.636719 165.042969 160.984375 163.628906 158.339844 C 162.214844 155.695312 162.367188 152.488281 164.03125 149.992188 L 261.613281 3.621094 C 263.121094 1.359375 265.660156 0 268.378906 0 Z M 185.992188 146.371094 L 225.6875 146.371094 C 230.175781 146.371094 233.820312 150.011719 233.820312 154.503906 L 233.820312 357.800781 L 304.601562 357.800781 L 304.601562 154.503906 C 304.601562 150.011719 308.242188 146.371094 312.734375 146.371094 L 350.765625 146.371094 L 268.378906 22.792969 Z M 185.992188 146.371094 " fill-opacity="1" fill-rule="evenodd"/></g></svg>