<svg xmlns="http://www.w3.org/2000/svg" width="64" height="64" viewBox="0 0 64 64" fill="currentColor">
  <!-- Main gear -->
  <path d="M32 8 L36 12 L40 8 L44 12 L48 8 L52 12 L56 16 L52 20 L56 24 L52 28 L56 32 L52 36 L56 40 L52 44 L56 48 L52 52 L48 56 L44 52 L40 56 L36 52 L32 56 L28 52 L24 56 L20 52 L16 56 L12 52 L8 48 L12 44 L8 40 L12 36 L8 32 L12 28 L8 24 L12 20 L8 16 L12 12 L16 8 L20 12 L24 8 L28 12 Z" stroke="currentColor" stroke-width="1.5" fill="none"/>

  <!-- Inner gear circle -->
  <circle cx="32" cy="32" r="12" stroke="currentColor" stroke-width="2" fill="none"/>

  <!-- Central efficiency symbol (like a lightning bolt for speed/efficiency) -->
  <path d="M28 24 L32 32 L30 32 L34 40 L32 32 L34 32 L28 24 Z" fill="currentColor"/>

  <!-- Gear teeth (simplified) -->
  <circle cx="32" cy="8" r="2" fill="currentColor"/>
  <circle cx="48" cy="16" r="2" fill="currentColor"/>
  <circle cx="56" cy="32" r="2" fill="currentColor"/>
  <circle cx="48" cy="48" r="2" fill="currentColor"/>
  <circle cx="32" cy="56" r="2" fill="currentColor"/>
  <circle cx="16" cy="48" r="2" fill="currentColor"/>
  <circle cx="8" cy="32" r="2" fill="currentColor"/>
  <circle cx="16" cy="16" r="2" fill="currentColor"/>

  <!-- Efficiency indicators (arrows showing smooth flow) -->
  <path d="M40 20 L44 16" stroke="currentColor" stroke-width="1.5" stroke-linecap="round" marker-end="url(#arrowhead)"/>
  <path d="M44 40 L48 44" stroke="currentColor" stroke-width="1.5" stroke-linecap="round" marker-end="url(#arrowhead)"/>
  <path d="M24 44 L20 48" stroke="currentColor" stroke-width="1.5" stroke-linecap="round" marker-end="url(#arrowhead)"/>
  <path d="M20 20 L16 16" stroke="currentColor" stroke-width="1.5" stroke-linecap="round" marker-end="url(#arrowhead)"/>

  <!-- Arrow marker definition -->
  <defs>
    <marker id="arrowhead" markerWidth="6" markerHeight="4" refX="6" refY="2" orient="auto">
      <polygon points="0 0, 6 2, 0 4" fill="currentColor"/>
    </marker>
  </defs>
</svg>