<svg xmlns="http://www.w3.org/2000/svg" width="64" height="64" viewBox="0 0 64 64" fill="currentColor">
  <!-- Main heart shape -->
  <path d="M32 56 C32 56 8 38 8 22 C8 16 12 12 18 12 C22 12 26 14 32 20 C38 14 42 12 46 12 C52 12 56 16 56 22 C56 38 32 56 32 56 Z"
        fill="currentColor" stroke="currentColor" stroke-width="1"/>

  <!-- Central connection node -->
  <circle cx="32" cy="28" r="4" fill="white" stroke="currentColor" stroke-width="2"/>

  <!-- Customer connection points around the heart -->
  <circle cx="20" cy="18" r="2.5" fill="white" stroke="currentColor" stroke-width="1.5"/>
  <circle cx="44" cy="18" r="2.5" fill="white" stroke="currentColor" stroke-width="1.5"/>
  <circle cx="16" cy="32" r="2.5" fill="white" stroke="currentColor" stroke-width="1.5"/>
  <circle cx="48" cy="32" r="2.5" fill="white" stroke="currentColor" stroke-width="1.5"/>
  <circle cx="24" cy="44" r="2.5" fill="white" stroke="currentColor" stroke-width="1.5"/>
  <circle cx="40" cy="44" r="2.5" fill="white" stroke="currentColor" stroke-width="1.5"/>

  <!-- Connection lines from center to customer points -->
  <line x1="32" y1="28" x2="20" y2="18" stroke="white" stroke-width="2" opacity="0.8"/>
  <line x1="32" y1="28" x2="44" y2="18" stroke="white" stroke-width="2" opacity="0.8"/>
  <line x1="32" y1="28" x2="16" y2="32" stroke="white" stroke-width="2" opacity="0.8"/>
  <line x1="32" y1="28" x2="48" y2="32" stroke="white" stroke-width="2" opacity="0.8"/>
  <line x1="32" y1="28" x2="24" y2="44" stroke="white" stroke-width="2" opacity="0.8"/>
  <line x1="32" y1="28" x2="40" y2="44" stroke="white" stroke-width="2" opacity="0.8"/>

  <!-- Satisfaction indicators (small stars around customer points) -->
  <path d="M18 14 L19 17 L22 17 L19.5 19 L20.5 22 L18 20 L15.5 22 L16.5 19 L14 17 L17 17 Z" fill="white" stroke="currentColor" stroke-width="0.5"/>
  <path d="M46 14 L47 17 L50 17 L47.5 19 L48.5 22 L46 20 L43.5 22 L44.5 19 L42 17 L45 17 Z" fill="white" stroke="currentColor" stroke-width="0.5"/>

  <!-- Pulse effect circles (showing active engagement) -->
  <circle cx="32" cy="28" r="8" stroke="white" stroke-width="1" fill="none" opacity="0.3"/>
  <circle cx="32" cy="28" r="12" stroke="white" stroke-width="0.5" fill="none" opacity="0.2"/>
</svg>