<svg xmlns="http://www.w3.org/2000/svg" width="64" height="64" viewBox="0 0 64 64" fill="currentColor">
  <!-- Partnership handshake base structure -->
  <ellipse cx="32" cy="40" rx="24" ry="16" stroke="currentColor" stroke-width="2" fill="none" opacity="0.3"/>

  <!-- Central partnership node (larger) -->
  <circle cx="32" cy="32" r="6" fill="currentColor" stroke="white" stroke-width="2"/>

  <!-- Client business node (left) -->
  <circle cx="16" cy="24" r="5" fill="currentColor" stroke="white" stroke-width="1.5"/>

  <!-- Etherius AI node (right) -->
  <circle cx="48" cy="24" r="5" fill="currentColor" stroke="white" stroke-width="1.5"/>

  <!-- Supporting service nodes -->
  <circle cx="20" cy="48" r="3.5" fill="currentColor" stroke="white" stroke-width="1"/>
  <circle cx="44" cy="48" r="3.5" fill="currentColor" stroke="white" stroke-width="1"/>
  <circle cx="8" cy="36" r="3" fill="currentColor" stroke="white" stroke-width="1"/>
  <circle cx="56" cy="36" r="3" fill="currentColor" stroke="white" stroke-width="1"/>

  <!-- Innovation/growth nodes (top) -->
  <circle cx="24" cy="12" r="2.5" fill="currentColor" stroke="white" stroke-width="0.5"/>
  <circle cx="40" cy="12" r="2.5" fill="currentColor" stroke="white" stroke-width="0.5"/>
  <circle cx="32" cy="8" r="2" fill="currentColor" stroke="white" stroke-width="0.5"/>

  <!-- Strong partnership connections -->
  <line x1="16" y1="24" x2="32" y2="32" stroke="currentColor" stroke-width="4" opacity="0.8"/>
  <line x1="48" y1="24" x2="32" y2="32" stroke="currentColor" stroke-width="4" opacity="0.8"/>

  <!-- Service network connections -->
  <line x1="32" y1="32" x2="20" y2="48" stroke="currentColor" stroke-width="2" opacity="0.6"/>
  <line x1="32" y1="32" x2="44" y2="48" stroke="currentColor" stroke-width="2" opacity="0.6"/>
  <line x1="16" y1="24" x2="8" y2="36" stroke="currentColor" stroke-width="2" opacity="0.6"/>
  <line x1="48" y1="24" x2="56" y2="36" stroke="currentColor" stroke-width="2" opacity="0.6"/>

  <!-- Innovation/growth connections -->
  <line x1="16" y1="24" x2="24" y2="12" stroke="currentColor" stroke-width="1.5" opacity="0.4"/>
  <line x1="32" y1="32" x2="32" y2="8" stroke="currentColor" stroke-width="1.5" opacity="0.4"/>
  <line x1="48" y1="24" x2="40" y2="12" stroke="currentColor" stroke-width="1.5" opacity="0.4"/>

  <!-- Partnership symbols -->
  <text x="13" y="28" font-family="Arial, sans-serif" font-size="6" fill="white" font-weight="bold">YOU</text>
  <text x="44" y="28" font-family="Arial, sans-serif" font-size="6" fill="white" font-weight="bold">AI</text>

  <!-- Success indicators (small plus signs showing growth) -->
  <path d="M30 56 L30 60 M28 58 L32 58" stroke="currentColor" stroke-width="1.5" stroke-linecap="round"/>
  <path d="M34 56 L34 60 M32 58 L36 58" stroke="currentColor" stroke-width="1.5" stroke-linecap="round"/>
</svg>