<svg xmlns="http://www.w3.org/2000/svg" xmlns:xlink="http://www.w3.org/1999/xlink" width="500" zoomAndPan="magnify" viewBox="0 0 375 374.999991" height="500" preserveAspectRatio="xMidYMid meet" version="1.0"><defs><clipPath id="72d4b43411"><path d="M 128 175 L 161 175 L 161 209.839844 L 128 209.839844 Z M 128 175 " clip-rule="nonzero"/></clipPath><clipPath id="f003ceecb4"><path d="M 12.761719 164.839844 L 23 164.839844 L 23 209.839844 L 12.761719 209.839844 Z M 12.761719 164.839844 " clip-rule="nonzero"/></clipPath><clipPath id="73a486bfcc"><path d="M 31 164.839844 L 41 164.839844 L 41 209.839844 L 31 209.839844 Z M 31 164.839844 " clip-rule="nonzero"/></clipPath><clipPath id="75da5ff0a7"><path d="M 49 164.839844 L 78 164.839844 L 78 209.839844 L 49 209.839844 Z M 49 164.839844 " clip-rule="nonzero"/></clipPath><clipPath id="31fc2ae84a"><path d="M 82 164.839844 L 92 164.839844 L 92 209.839844 L 82 209.839844 Z M 82 164.839844 " clip-rule="nonzero"/></clipPath><clipPath id="043bc7171f"><path d="M 96 175 L 127 175 L 127 209.839844 L 96 209.839844 Z M 96 175 " clip-rule="nonzero"/></clipPath><clipPath id="ad1ced9287"><path d="M 161 175 L 192 175 L 192 209.839844 L 161 209.839844 Z M 161 175 " clip-rule="nonzero"/></clipPath><clipPath id="685885bd5f"><path d="M 233 164.839844 L 261 164.839844 L 261 209.839844 L 233 209.839844 Z M 233 164.839844 " clip-rule="nonzero"/></clipPath><clipPath id="816a502e81"><path d="M 262 175 L 294 175 L 294 209.839844 L 262 209.839844 Z M 262 175 " clip-rule="nonzero"/></clipPath><clipPath id="c4ef5cf62e"><path d="M 300 164.839844 L 331 164.839844 L 331 209.839844 L 300 209.839844 Z M 300 164.839844 " clip-rule="nonzero"/></clipPath><clipPath id="a45f01cc77"><path d="M 334 175 L 362.261719 175 L 362.261719 209.839844 L 334 209.839844 Z M 334 175 " clip-rule="nonzero"/></clipPath><clipPath id="3b2db66960"><path d="M 197 175 L 227 175 L 227 209.839844 L 197 209.839844 Z M 197 175 " clip-rule="nonzero"/></clipPath></defs><g clip-path="url(#72d4b43411)"><path fill="#ffffff" d="M 137.789062 175.933594 L 128.828125 175.933594 L 139.65625 209.09375 L 149.300781 209.09375 L 160.128906 175.933594 L 151.167969 175.933594 L 144.390625 200.914062 Z M 137.789062 175.933594 " fill-opacity="1" fill-rule="nonzero"/></g><g clip-path="url(#f003ceecb4)"><path fill="#ffffff" d="M 12.777344 164.839844 L 22.050781 164.839844 L 22.050781 209.09375 L 12.777344 209.09375 Z M 12.777344 164.839844 " fill-opacity="1" fill-rule="nonzero"/></g><g clip-path="url(#73a486bfcc)"><path fill="#ffffff" d="M 31.199219 164.839844 L 40.46875 164.839844 L 40.46875 209.09375 L 31.199219 209.09375 Z M 31.199219 164.839844 " fill-opacity="1" fill-rule="nonzero"/></g><g clip-path="url(#75da5ff0a7)"><path fill="#ffffff" d="M 49.617188 164.839844 L 77.058594 164.839844 L 77.058594 172.214844 L 58.886719 172.214844 L 58.886719 182.753906 L 75.8125 182.753906 L 75.8125 190.128906 L 58.886719 190.128906 L 58.886719 201.71875 L 77.058594 201.71875 L 77.058594 209.09375 L 49.617188 209.09375 Z M 49.617188 164.839844 " fill-opacity="1" fill-rule="nonzero"/></g><g clip-path="url(#31fc2ae84a)"><path fill="#ffffff" d="M 82.71875 164.839844 L 91.492188 164.839844 L 91.492188 209.09375 L 82.71875 209.09375 Z M 82.71875 164.839844 " fill-opacity="1" fill-rule="nonzero"/></g><g clip-path="url(#043bc7171f)"><path fill="#ffffff" d="M 96.78125 192.484375 C 96.78125 180.398438 102.820312 175.191406 112.214844 175.191406 C 121.609375 175.191406 126.964844 180.335938 126.964844 192.609375 L 126.964844 194.589844 L 105.433594 194.589844 C 105.742188 201.78125 107.921875 204.199219 112.089844 204.199219 C 115.386719 204.199219 117.441406 202.277344 117.816406 198.929688 L 126.589844 198.929688 C 126.03125 206.246094 119.929688 209.839844 112.089844 209.839844 C 102.132812 209.839844 96.78125 204.570312 96.78125 192.484375 Z M 118.3125 188.828125 C 117.878906 182.753906 115.761719 180.769531 112.089844 180.769531 C 108.417969 180.769531 106.117188 182.8125 105.496094 188.828125 Z M 118.3125 188.828125 " fill-opacity="1" fill-rule="nonzero"/></g><g clip-path="url(#ad1ced9287)"><path fill="#ffffff" d="M 161.808594 192.484375 C 161.808594 180.398438 167.847656 175.191406 177.242188 175.191406 C 186.636719 175.191406 191.992188 180.335938 191.992188 192.609375 L 191.992188 194.589844 L 170.460938 194.589844 C 170.769531 201.78125 172.949219 204.199219 177.117188 204.199219 C 180.414062 204.199219 182.46875 202.277344 182.84375 198.929688 L 191.617188 198.929688 C 191.058594 206.246094 184.957031 209.839844 177.117188 209.839844 C 167.160156 209.839844 161.808594 204.570312 161.808594 192.484375 Z M 183.339844 188.828125 C 182.90625 182.753906 180.789062 180.769531 177.117188 180.769531 C 173.445312 180.769531 171.144531 182.8125 170.523438 188.828125 Z M 183.339844 188.828125 " fill-opacity="1" fill-rule="nonzero"/></g><g clip-path="url(#685885bd5f)"><path fill="#ffffff" d="M 233.554688 164.839844 L 242.828125 164.839844 L 242.828125 201.71875 L 260.25 201.71875 L 260.25 209.09375 L 233.554688 209.09375 Z M 233.554688 164.839844 " fill-opacity="1" fill-rule="nonzero"/></g><g clip-path="url(#816a502e81)"><path fill="#ffffff" d="M 262.429688 192.484375 C 262.429688 179.839844 268.277344 175.191406 275.808594 175.191406 C 279.542969 175.191406 282.964844 177.296875 284.332031 179.53125 L 284.332031 175.933594 L 293.292969 175.933594 L 293.292969 209.09375 L 284.582031 209.09375 L 284.582031 205.191406 C 283.277344 207.792969 279.605469 209.839844 275.558594 209.839844 C 267.59375 209.839844 262.429688 204.757812 262.429688 192.484375 Z M 278.109375 181.699219 C 282.464844 181.699219 284.832031 184.984375 284.832031 192.484375 C 284.832031 199.984375 282.464844 203.332031 278.109375 203.332031 C 273.753906 203.332031 271.265625 199.984375 271.265625 192.484375 C 271.265625 184.984375 273.753906 181.699219 278.109375 181.699219 Z M 278.109375 181.699219 " fill-opacity="1" fill-rule="evenodd"/></g><g clip-path="url(#c4ef5cf62e)"><path fill="#ffffff" d="M 308.789062 205.191406 L 308.789062 209.09375 L 300.078125 209.09375 L 300.078125 164.839844 L 308.851562 164.839844 L 308.851562 179.53125 C 310.34375 177.234375 313.828125 175.191406 317.5625 175.191406 C 324.90625 175.191406 330.753906 179.839844 330.753906 192.484375 C 330.753906 205.128906 325.03125 209.839844 317.375 209.839844 C 313.332031 209.839844 310.035156 207.792969 308.789062 205.191406 Z M 315.074219 181.761719 C 319.429688 181.761719 321.917969 184.984375 321.917969 192.484375 C 321.917969 199.984375 319.429688 203.332031 315.074219 203.332031 C 310.71875 203.332031 308.351562 199.984375 308.351562 192.484375 C 308.351562 184.984375 310.71875 181.761719 315.074219 181.761719 Z M 315.074219 181.761719 " fill-opacity="1" fill-rule="evenodd"/></g><g clip-path="url(#a45f01cc77)"><path fill="#ffffff" d="M 334.363281 199.238281 L 343.136719 199.238281 C 343.261719 202.710938 345.128906 204.382812 348.425781 204.382812 C 351.726562 204.382812 353.59375 202.898438 353.59375 200.292969 C 353.59375 197.9375 352.160156 197.070312 349.050781 196.328125 L 346.375 195.644531 C 338.78125 193.722656 334.984375 191.679688 334.984375 185.417969 C 334.984375 179.15625 340.835938 175.191406 348.304688 175.191406 C 355.769531 175.191406 361.433594 178.105469 361.683594 184.984375 L 352.90625 184.984375 C 352.722656 181.945312 350.855469 180.644531 348.179688 180.644531 C 345.503906 180.644531 343.636719 181.945312 343.636719 184.425781 C 343.636719 186.71875 345.128906 187.585938 347.742188 188.207031 L 350.480469 188.890625 C 357.699219 190.6875 362.242188 192.484375 362.242188 199.179688 C 362.242188 205.871094 356.269531 209.839844 348.179688 209.839844 C 339.40625 209.839844 334.550781 206.554688 334.363281 199.238281 Z M 334.363281 199.238281 " fill-opacity="1" fill-rule="nonzero"/></g><g clip-path="url(#3b2db66960)"><path fill="#ffffff" d="M 206.179688 189.570312 C 206.179688 184.363281 208.667969 181.511719 212.523438 181.511719 C 215.699219 181.511719 217.503906 183.496094 217.503906 187.773438 L 217.503906 209.09375 L 226.277344 209.09375 L 226.277344 186.410156 C 226.277344 178.722656 221.921875 175.191406 215.574219 175.191406 C 211.28125 175.191406 207.734375 177.359375 206.179688 180.210938 L 206.179688 175.933594 L 197.28125 175.933594 L 197.28125 209.09375 L 206.179688 209.09375 Z M 206.179688 189.570312 " fill-opacity="1" fill-rule="nonzero"/></g></svg>