<svg xmlns="http://www.w3.org/2000/svg" xmlns:xlink="http://www.w3.org/1999/xlink" width="500" zoomAndPan="magnify" viewBox="0 0 375.12 383.03998" height="500" preserveAspectRatio="xMidYMid meet" version="1.0"><defs><clipPath id="876d8e2612"><path d="M 18.347656 153.039062 L 121 153.039062 L 121 221.117188 L 18.347656 221.117188 Z M 18.347656 153.039062 " clip-rule="nonzero"/></clipPath><clipPath id="c38c5e6849"><path d="M 27 153.039062 L 121 153.039062 L 121 221.117188 L 27 221.117188 Z M 27 153.039062 " clip-rule="nonzero"/></clipPath><clipPath id="8ecfd56e2f"><path d="M 27.085938 166.335938 C 32.152344 158.511719 39.464844 153.039062 47.851562 153.039062 C 52.710938 153.039062 57.539062 154.480469 62.582031 158.601562 C 68.097656 163.113281 73.976562 170.535156 81.3125 182.773438 L 83.941406 187.164062 C 90.289062 197.757812 93.902344 203.207031 96.015625 205.777344 C 98.734375 209.078125 100.636719 210.0625 103.109375 210.0625 C 109.386719 210.0625 110.949219 204.289062 110.949219 197.679688 L 120.703125 197.371094 C 120.703125 204.28125 119.34375 209.355469 117.027344 213.367188 C 114.792969 217.242188 110.4375 221.117188 103.109375 221.117188 C 98.554688 221.117188 94.519531 220.128906 90.058594 215.910156 C 86.628906 212.675781 82.617188 206.925781 79.53125 201.757812 L 70.355469 186.402344 C 65.75 178.695312 61.523438 172.949219 59.082031 170.347656 C 56.449219 167.550781 53.070312 164.171875 47.675781 164.171875 C 43.308594 164.171875 39.601562 167.238281 36.496094 171.933594 Z M 27.085938 166.335938 " clip-rule="nonzero"/></clipPath><linearGradient x1="18.688831" gradientTransform="matrix(0.355861, 0, 0, 0.356436, 18.369796, 153.039016)" y1="114.863072" x2="290.711426" gradientUnits="userSpaceOnUse" y2="128.601587" id="66268e16af"><stop stop-opacity="1" stop-color="rgb(0%, 39.219666%, 88.238525%)" offset="0"/><stop stop-opacity="1" stop-color="rgb(0%, 39.219666%, 88.238525%)" offset="0.0353718"/><stop stop-opacity="1" stop-color="rgb(0%, 39.219666%, 88.238525%)" offset="0.25"/><stop stop-opacity="1" stop-color="rgb(0%, 39.219666%, 88.238525%)" offset="0.375"/><stop stop-opacity="1" stop-color="rgb(0%, 39.219666%, 88.238525%)" offset="0.4375"/><stop stop-opacity="1" stop-color="rgb(0%, 39.279175%, 88.290405%)" offset="0.453125"/><stop stop-opacity="1" stop-color="rgb(0%, 39.486694%, 88.470459%)" offset="0.46875"/><stop stop-opacity="1" stop-color="rgb(0%, 39.779663%, 88.725281%)" offset="0.484375"/><stop stop-opacity="1" stop-color="rgb(0%, 40.074158%, 88.978577%)" offset="0.5"/><stop stop-opacity="1" stop-color="rgb(0%, 40.367126%, 89.233398%)" offset="0.515625"/><stop stop-opacity="1" stop-color="rgb(0%, 40.660095%, 89.486694%)" offset="0.53125"/><stop stop-opacity="1" stop-color="rgb(0%, 40.95459%, 89.741516%)" offset="0.546875"/><stop stop-opacity="1" stop-color="rgb(0%, 41.247559%, 89.994812%)" offset="0.5625"/><stop stop-opacity="1" stop-color="rgb(0%, 41.542053%, 90.249634%)" offset="0.578125"/><stop stop-opacity="1" stop-color="rgb(0%, 41.835022%, 90.50293%)" offset="0.59375"/><stop stop-opacity="1" stop-color="rgb(0%, 42.127991%, 90.757751%)" offset="0.609375"/><stop stop-opacity="1" stop-color="rgb(0%, 42.422485%, 91.011047%)" offset="0.625"/><stop stop-opacity="1" stop-color="rgb(0%, 42.715454%, 91.265869%)" offset="0.640625"/><stop stop-opacity="1" stop-color="rgb(0%, 43.008423%, 91.519165%)" offset="0.65625"/><stop stop-opacity="1" stop-color="rgb(0%, 43.302917%, 91.773987%)" offset="0.671875"/><stop stop-opacity="1" stop-color="rgb(0%, 43.595886%, 92.027283%)" offset="0.6875"/><stop stop-opacity="1" stop-color="rgb(0%, 43.890381%, 92.282104%)" offset="0.703125"/><stop stop-opacity="1" stop-color="rgb(0%, 44.18335%, 92.5354%)" offset="0.71875"/><stop stop-opacity="1" stop-color="rgb(0%, 44.476318%, 92.790222%)" offset="0.734375"/><stop stop-opacity="1" stop-color="rgb(0%, 44.770813%, 93.045044%)" offset="0.75"/><stop stop-opacity="1" stop-color="rgb(0%, 44.99054%, 93.234253%)" offset="0.757812"/><stop stop-opacity="1" stop-color="rgb(0%, 45.222473%, 93.435669%)" offset="0.765625"/><stop stop-opacity="1" stop-color="rgb(0%, 45.567322%, 93.734741%)" offset="0.773438"/><stop stop-opacity="1" stop-color="rgb(0%, 45.93811%, 94.056702%)" offset="0.78125"/><stop stop-opacity="1" stop-color="rgb(0%, 46.308899%, 94.378662%)" offset="0.789062"/><stop stop-opacity="1" stop-color="rgb(0%, 46.679688%, 94.700623%)" offset="0.796875"/><stop stop-opacity="1" stop-color="rgb(0%, 47.052002%, 95.022583%)" offset="0.804687"/><stop stop-opacity="1" stop-color="rgb(0%, 47.422791%, 95.344543%)" offset="0.8125"/><stop stop-opacity="1" stop-color="rgb(0%, 47.793579%, 95.666504%)" offset="0.820312"/><stop stop-opacity="1" stop-color="rgb(0%, 48.165894%, 95.988464%)" offset="0.828125"/><stop stop-opacity="1" stop-color="rgb(0%, 48.536682%, 96.310425%)" offset="0.835938"/><stop stop-opacity="1" stop-color="rgb(0%, 48.907471%, 96.632385%)" offset="0.84375"/><stop stop-opacity="1" stop-color="rgb(0%, 49.279785%, 96.954346%)" offset="0.851562"/><stop stop-opacity="1" stop-color="rgb(0%, 49.650574%, 97.276306%)" offset="0.859375"/><stop stop-opacity="1" stop-color="rgb(0%, 50.021362%, 97.598267%)" offset="0.867187"/><stop stop-opacity="1" stop-color="rgb(0%, 50.392151%, 97.920227%)" offset="0.875"/><stop stop-opacity="1" stop-color="rgb(0%, 50.764465%, 98.242188%)" offset="0.882812"/><stop stop-opacity="1" stop-color="rgb(0%, 50.964355%, 98.416138%)" offset="0.890625"/><stop stop-opacity="1" stop-color="rgb(0%, 50.979614%, 98.429871%)" offset="0.90625"/><stop stop-opacity="1" stop-color="rgb(0%, 50.979614%, 98.429871%)" offset="0.9375"/><stop stop-opacity="1" stop-color="rgb(0%, 50.979614%, 98.429871%)" offset="0.964628"/><stop stop-opacity="1" stop-color="rgb(0%, 50.979614%, 98.429871%)" offset="1"/></linearGradient><clipPath id="4d029d6bf2"><path d="M 18.347656 153.039062 L 48 153.039062 L 48 213 L 18.347656 213 Z M 18.347656 153.039062 " clip-rule="nonzero"/></clipPath><clipPath id="cdb01955c7"><path d="M 47.675781 164.171875 C 43.308594 164.171875 39.601562 167.238281 36.496094 171.933594 C 32.109375 178.566406 29.421875 188.449219 29.421875 197.9375 C 29.421875 201.847656 30.28125 204.855469 31.402344 206.671875 L 21.976562 212.886719 C 19.558594 208.855469 18.371094 203.566406 18.371094 197.539062 C 18.371094 186.578125 21.375 175.15625 27.085938 166.335938 C 32.152344 158.511719 39.464844 153.039062 47.851562 153.039062 Z M 47.675781 164.171875 " clip-rule="nonzero"/></clipPath><linearGradient x1="45" gradientTransform="matrix(0.355861, 0, 0, 0.356436, 18.369796, 153.039016)" y1="167.909976" x2="45" gradientUnits="userSpaceOnUse" y2="-0.0000207917" id="4f35cd16c6"><stop stop-opacity="1" stop-color="rgb(0%, 50.979614%, 98.429871%)" offset="0"/><stop stop-opacity="1" stop-color="rgb(0%, 50.979614%, 98.429871%)" offset="0.125"/><stop stop-opacity="1" stop-color="rgb(0%, 50.979614%, 98.429871%)" offset="0.15625"/><stop stop-opacity="1" stop-color="rgb(0%, 50.979614%, 98.429871%)" offset="0.171875"/><stop stop-opacity="1" stop-color="rgb(0%, 50.87738%, 98.338318%)" offset="0.179688"/><stop stop-opacity="1" stop-color="rgb(0%, 50.669861%, 98.150635%)" offset="0.1875"/><stop stop-opacity="1" stop-color="rgb(0%, 50.45929%, 97.9599%)" offset="0.195312"/><stop stop-opacity="1" stop-color="rgb(0%, 50.247192%, 97.770691%)" offset="0.203125"/><stop stop-opacity="1" stop-color="rgb(0%, 50.036621%, 97.579956%)" offset="0.210938"/><stop stop-opacity="1" stop-color="rgb(0%, 49.824524%, 97.389221%)" offset="0.21875"/><stop stop-opacity="1" stop-color="rgb(0%, 49.613953%, 97.198486%)" offset="0.226563"/><stop stop-opacity="1" stop-color="rgb(0%, 49.401855%, 97.009277%)" offset="0.234375"/><stop stop-opacity="1" stop-color="rgb(0%, 49.191284%, 96.818542%)" offset="0.242188"/><stop stop-opacity="1" stop-color="rgb(0%, 48.979187%, 96.627808%)" offset="0.25"/><stop stop-opacity="1" stop-color="rgb(0%, 48.768616%, 96.438599%)" offset="0.257812"/><stop stop-opacity="1" stop-color="rgb(0%, 48.556519%, 96.247864%)" offset="0.265625"/><stop stop-opacity="1" stop-color="rgb(0%, 48.345947%, 96.057129%)" offset="0.273438"/><stop stop-opacity="1" stop-color="rgb(0%, 48.13385%, 95.866394%)" offset="0.28125"/><stop stop-opacity="1" stop-color="rgb(0%, 47.923279%, 95.677185%)" offset="0.289062"/><stop stop-opacity="1" stop-color="rgb(0%, 47.711182%, 95.48645%)" offset="0.296875"/><stop stop-opacity="1" stop-color="rgb(0%, 47.50061%, 95.295715%)" offset="0.304688"/><stop stop-opacity="1" stop-color="rgb(0%, 47.288513%, 95.106506%)" offset="0.3125"/><stop stop-opacity="1" stop-color="rgb(0%, 47.077942%, 94.915771%)" offset="0.320312"/><stop stop-opacity="1" stop-color="rgb(0%, 46.865845%, 94.725037%)" offset="0.328125"/><stop stop-opacity="1" stop-color="rgb(0%, 46.655273%, 94.534302%)" offset="0.335937"/><stop stop-opacity="1" stop-color="rgb(0%, 46.443176%, 94.345093%)" offset="0.34375"/><stop stop-opacity="1" stop-color="rgb(0%, 46.232605%, 94.154358%)" offset="0.351562"/><stop stop-opacity="1" stop-color="rgb(0%, 46.020508%, 93.963623%)" offset="0.359375"/><stop stop-opacity="1" stop-color="rgb(0%, 45.809937%, 93.772888%)" offset="0.367188"/><stop stop-opacity="1" stop-color="rgb(0%, 45.597839%, 93.583679%)" offset="0.375"/><stop stop-opacity="1" stop-color="rgb(0%, 45.387268%, 93.392944%)" offset="0.382812"/><stop stop-opacity="1" stop-color="rgb(0%, 45.175171%, 93.202209%)" offset="0.390625"/><stop stop-opacity="1" stop-color="rgb(0%, 44.9646%, 93.013%)" offset="0.398437"/><stop stop-opacity="1" stop-color="rgb(0%, 44.752502%, 92.822266%)" offset="0.40625"/><stop stop-opacity="1" stop-color="rgb(0%, 44.541931%, 92.631531%)" offset="0.414062"/><stop stop-opacity="1" stop-color="rgb(0%, 44.329834%, 92.440796%)" offset="0.421875"/><stop stop-opacity="1" stop-color="rgb(0%, 44.119263%, 92.251587%)" offset="0.429688"/><stop stop-opacity="1" stop-color="rgb(0%, 43.907166%, 92.060852%)" offset="0.4375"/><stop stop-opacity="1" stop-color="rgb(0%, 43.696594%, 91.870117%)" offset="0.445312"/><stop stop-opacity="1" stop-color="rgb(0%, 43.484497%, 91.680908%)" offset="0.453125"/><stop stop-opacity="1" stop-color="rgb(0%, 43.273926%, 91.490173%)" offset="0.460937"/><stop stop-opacity="1" stop-color="rgb(0%, 43.061829%, 91.299438%)" offset="0.46875"/><stop stop-opacity="1" stop-color="rgb(0%, 42.851257%, 91.108704%)" offset="0.476562"/><stop stop-opacity="1" stop-color="rgb(0%, 42.63916%, 90.919495%)" offset="0.484375"/><stop stop-opacity="1" stop-color="rgb(0%, 42.428589%, 90.72876%)" offset="0.492188"/><stop stop-opacity="1" stop-color="rgb(0%, 42.216492%, 90.538025%)" offset="0.5"/><stop stop-opacity="1" stop-color="rgb(0%, 42.00592%, 90.348816%)" offset="0.507812"/><stop stop-opacity="1" stop-color="rgb(0%, 41.793823%, 90.158081%)" offset="0.515625"/><stop stop-opacity="1" stop-color="rgb(0%, 41.583252%, 89.967346%)" offset="0.523437"/><stop stop-opacity="1" stop-color="rgb(0%, 41.371155%, 89.776611%)" offset="0.53125"/><stop stop-opacity="1" stop-color="rgb(0%, 41.160583%, 89.587402%)" offset="0.539062"/><stop stop-opacity="1" stop-color="rgb(0%, 40.948486%, 89.396667%)" offset="0.546875"/><stop stop-opacity="1" stop-color="rgb(0%, 40.737915%, 89.205933%)" offset="0.554688"/><stop stop-opacity="1" stop-color="rgb(0%, 40.525818%, 89.016724%)" offset="0.5625"/><stop stop-opacity="1" stop-color="rgb(0%, 40.315247%, 88.825989%)" offset="0.570312"/><stop stop-opacity="1" stop-color="rgb(0%, 40.103149%, 88.635254%)" offset="0.578125"/><stop stop-opacity="1" stop-color="rgb(0%, 39.892578%, 88.444519%)" offset="0.585938"/><stop stop-opacity="1" stop-color="rgb(0%, 39.680481%, 88.25531%)" offset="0.59375"/><stop stop-opacity="1" stop-color="rgb(0%, 39.396667%, 87.998962%)" offset="0.625"/><stop stop-opacity="1" stop-color="rgb(0%, 39.219666%, 87.838745%)" offset="0.75"/><stop stop-opacity="1" stop-color="rgb(0%, 39.219666%, 87.838745%)" offset="1"/></linearGradient><clipPath id="1b888c9a27"><path d="M 142 155 L 355.75 155 L 355.75 221.117188 L 142 221.117188 Z M 142 155 " clip-rule="nonzero"/></clipPath></defs><g clip-path="url(#876d8e2612)"><path fill="#0081fb" d="M 29.421875 197.9375 C 29.421875 201.847656 30.28125 204.855469 31.402344 206.671875 C 32.871094 209.054688 35.0625 210.0625 37.296875 210.0625 C 40.179688 210.0625 42.816406 209.34375 47.898438 202.304688 C 51.96875 196.664062 56.765625 188.742188 59.996094 183.777344 L 65.460938 175.367188 C 69.257812 169.523438 73.652344 163.03125 78.691406 158.628906 C 82.804688 155.035156 87.242188 153.039062 91.710938 153.039062 C 99.207031 153.039062 106.347656 157.390625 111.816406 165.554688 C 117.796875 174.492188 120.703125 185.753906 120.703125 197.371094 C 120.703125 204.28125 119.34375 209.355469 117.027344 213.367188 C 114.792969 217.242188 110.4375 221.117188 103.109375 221.117188 L 103.109375 210.0625 C 109.386719 210.0625 110.949219 204.289062 110.949219 197.679688 C 110.949219 188.261719 108.757812 177.8125 103.929688 170.34375 C 100.503906 165.046875 96.0625 161.8125 91.175781 161.8125 C 85.890625 161.8125 81.636719 165.804688 76.859375 172.921875 C 74.316406 176.703125 71.710938 181.3125 68.78125 186.511719 L 65.558594 192.234375 C 59.082031 203.734375 57.441406 206.355469 54.203125 210.679688 C 48.527344 218.25 43.679688 221.117188 37.296875 221.117188 C 29.730469 221.117188 24.941406 217.835938 21.976562 212.886719 C 19.558594 208.855469 18.371094 203.566406 18.371094 197.539062 Z M 29.421875 197.9375 " fill-opacity="1" fill-rule="nonzero"/></g><g clip-path="url(#c38c5e6849)"><g clip-path="url(#8ecfd56e2f)"><path fill="url(#66268e16af)" d="M 27.085938 153.039062 L 27.085938 221.117188 L 120.703125 221.117188 L 120.703125 153.039062 Z M 27.085938 153.039062 " fill-rule="nonzero"/></g></g><g clip-path="url(#4d029d6bf2)"><g clip-path="url(#cdb01955c7)"><path fill="url(#4f35cd16c6)" d="M 18.371094 153.039062 L 18.371094 212.886719 L 47.851562 212.886719 L 47.851562 153.039062 Z M 18.371094 153.039062 " fill-rule="nonzero"/></g></g><g clip-path="url(#1b888c9a27)"><path fill="#192830" d="M 142.1875 155.191406 L 154.972656 155.191406 L 176.714844 194.585938 L 198.457031 155.191406 L 210.964844 155.191406 L 210.964844 219.921875 L 200.535156 219.921875 L 200.535156 170.3125 L 181.46875 204.664062 L 171.683594 204.664062 L 152.617188 170.3125 L 152.617188 219.921875 L 142.1875 219.921875 Z M 243.648438 179.328125 C 236.167969 179.328125 231.664062 184.964844 230.582031 191.949219 L 255.972656 191.949219 C 255.449219 184.753906 251.304688 179.328125 243.648438 179.328125 Z M 220.242188 195.925781 C 220.242188 181.234375 229.722656 170.539062 243.828125 170.539062 C 257.703125 170.539062 265.988281 181.097656 265.988281 196.710938 L 265.988281 199.578125 L 230.582031 199.578125 C 231.839844 207.175781 236.871094 212.292969 244.984375 212.292969 C 251.457031 212.292969 255.503906 210.316406 259.339844 206.695312 L 264.882812 213.496094 C 259.660156 218.300781 253.019531 221.074219 244.617188 221.074219 C 229.34375 221.074219 220.242188 209.921875 220.242188 195.925781 Z M 278.636719 180.253906 L 269.035156 180.253906 L 269.035156 171.699219 L 278.636719 171.699219 L 278.636719 157.550781 L 288.699219 157.550781 L 288.699219 171.699219 L 303.285156 171.699219 L 303.285156 180.253906 L 288.699219 180.253906 L 288.699219 201.933594 C 288.699219 209.339844 291.0625 211.96875 296.871094 211.96875 C 299.519531 211.96875 301.039062 211.742188 303.285156 211.367188 L 303.285156 219.828125 C 300.488281 220.621094 297.820312 220.984375 294.929688 220.984375 C 284.066406 220.984375 278.636719 215.039062 278.636719 203.136719 Z M 345.664062 188.570312 C 343.640625 183.460938 339.132812 179.695312 332.507812 179.695312 C 323.894531 179.695312 318.382812 185.816406 318.382812 195.785156 C 318.382812 205.507812 323.457031 211.921875 332.09375 211.921875 C 338.882812 211.921875 343.730469 207.964844 345.664062 203.042969 Z M 355.726562 219.921875 L 345.847656 219.921875 L 345.847656 213.167969 C 343.085938 217.144531 338.0625 221.074219 329.921875 221.074219 C 316.832031 221.074219 308.085938 210.101562 308.085938 195.785156 C 308.085938 181.335938 317.042969 170.539062 330.476562 170.539062 C 337.117188 170.539062 342.328125 173.199219 345.847656 177.894531 L 345.847656 171.699219 L 355.726562 171.699219 Z M 355.726562 219.921875 " fill-opacity="1" fill-rule="nonzero"/></g></svg>