<svg xmlns="http://www.w3.org/2000/svg" xmlns:xlink="http://www.w3.org/1999/xlink" width="500" zoomAndPan="magnify" viewBox="0 0 375.12 383.03998" height="500" preserveAspectRatio="xMidYMid meet" version="1.0"><path fill="#ffffff" d="M 112.445312 159.050781 C 112.445312 163.257812 112.902344 166.671875 113.699219 169.171875 C 114.605469 171.675781 115.746094 174.40625 117.335938 177.363281 C 117.90625 178.273438 118.132812 179.179688 118.132812 179.976562 C 118.132812 181.113281 117.449219 182.253906 115.972656 183.390625 L 108.804688 188.167969 C 107.78125 188.847656 106.757812 189.191406 105.847656 189.191406 C 104.710938 189.191406 103.574219 188.621094 102.4375 187.597656 C 100.84375 185.890625 99.480469 184.074219 98.34375 182.253906 C 97.203125 180.320312 96.066406 178.15625 94.816406 175.542969 C 85.945312 186.007812 74.796875 191.238281 61.375 191.238281 C 51.824219 191.238281 44.203125 188.507812 38.628906 183.046875 C 33.054688 177.589844 30.210938 170.308594 30.210938 161.210938 C 30.210938 151.542969 33.625 143.695312 40.5625 137.78125 C 47.5 131.867188 56.714844 128.90625 68.429688 128.90625 C 72.296875 128.90625 76.277344 129.25 80.484375 129.816406 C 84.695312 130.386719 89.015625 131.296875 93.566406 132.320312 L 93.566406 124.015625 C 93.566406 115.371094 91.746094 109.34375 88.21875 105.820312 C 84.578125 102.292969 78.4375 100.585938 69.679688 100.585938 C 65.699219 100.585938 61.605469 101.042969 57.394531 102.066406 C 53.1875 103.089844 49.09375 104.339844 45.113281 105.933594 C 43.292969 106.730469 41.925781 107.183594 41.128906 107.410156 C 40.335938 107.636719 39.765625 107.753906 39.3125 107.753906 C 37.71875 107.753906 36.921875 106.613281 36.921875 104.226562 L 36.921875 98.652344 C 36.921875 96.832031 37.148438 95.46875 37.71875 94.671875 C 38.289062 93.875 39.3125 93.078125 40.902344 92.285156 C 44.882812 90.234375 49.660156 88.53125 55.234375 87.164062 C 60.808594 85.6875 66.722656 85.003906 72.976562 85.003906 C 86.511719 85.003906 96.410156 88.074219 102.777344 94.21875 C 109.035156 100.359375 112.21875 109.6875 112.21875 122.199219 L 112.21875 159.050781 Z M 66.265625 176.339844 C 70.019531 176.339844 73.886719 175.65625 77.984375 174.289062 C 82.078125 172.925781 85.71875 170.421875 88.789062 167.011719 C 90.609375 164.851562 91.972656 162.460938 92.65625 159.730469 C 93.335938 157.003906 93.792969 153.703125 93.792969 149.835938 L 93.792969 145.058594 C 90.496094 144.261719 86.96875 143.582031 83.328125 143.125 C 79.6875 142.671875 76.164062 142.441406 72.636719 142.441406 C 65.015625 142.441406 59.441406 143.921875 55.691406 146.992188 C 51.9375 150.0625 50.117188 154.386719 50.117188 160.074219 C 50.117188 165.417969 51.480469 169.398438 54.324219 172.128906 C 57.054688 174.972656 61.035156 176.339844 66.265625 176.339844 Z M 157.601562 188.621094 C 155.554688 188.621094 154.1875 188.28125 153.277344 187.484375 C 152.371094 186.800781 151.574219 185.210938 150.890625 183.046875 L 124.160156 95.128906 C 123.480469 92.851562 123.136719 91.375 123.136719 90.578125 C 123.136719 88.757812 124.046875 87.734375 125.867188 87.734375 L 137.015625 87.734375 C 139.175781 87.734375 140.652344 88.074219 141.449219 88.871094 C 142.359375 89.554688 143.042969 91.144531 143.726562 93.308594 L 162.832031 168.605469 L 180.578125 93.308594 C 181.144531 91.03125 181.828125 89.554688 182.738281 88.871094 C 183.648438 88.1875 185.242188 87.734375 187.289062 87.734375 L 196.386719 87.734375 C 198.546875 87.734375 200.027344 88.074219 200.9375 88.871094 C 201.847656 89.554688 202.644531 91.144531 203.097656 93.308594 L 221.070312 169.511719 L 240.746094 93.308594 C 241.429688 91.03125 242.226562 89.554688 243.019531 88.871094 C 243.929688 88.1875 245.410156 87.734375 247.457031 87.734375 L 258.035156 87.734375 C 259.855469 87.734375 260.878906 88.644531 260.878906 90.578125 C 260.878906 91.144531 260.765625 91.714844 260.652344 92.398438 C 260.535156 93.078125 260.308594 93.988281 259.855469 95.242188 L 232.441406 183.164062 C 231.761719 185.4375 230.964844 186.914062 230.054688 187.597656 C 229.144531 188.28125 227.664062 188.734375 225.730469 188.734375 L 215.949219 188.734375 C 213.789062 188.734375 212.3125 188.394531 211.402344 187.597656 C 210.492188 186.800781 209.695312 185.324219 209.238281 183.046875 L 191.609375 109.6875 L 174.09375 182.933594 C 173.523438 185.210938 172.84375 186.6875 171.933594 187.484375 C 171.023438 188.28125 169.429688 188.621094 167.382812 188.621094 Z M 303.757812 191.691406 C 297.84375 191.691406 291.929688 191.011719 286.242188 189.644531 C 280.554688 188.28125 276.121094 186.800781 273.164062 185.097656 C 271.34375 184.074219 270.089844 182.933594 269.636719 181.910156 C 269.179688 180.886719 268.953125 179.75 268.953125 178.726562 L 268.953125 172.925781 C 268.953125 170.539062 269.863281 169.398438 271.570312 169.398438 C 272.253906 169.398438 272.933594 169.511719 273.617188 169.742188 C 274.300781 169.96875 275.324219 170.421875 276.460938 170.878906 C 280.328125 172.585938 284.535156 173.949219 288.972656 174.859375 C 293.523438 175.769531 297.957031 176.222656 302.507812 176.222656 C 309.671875 176.222656 315.246094 174.972656 319.113281 172.472656 C 322.980469 169.96875 325.027344 166.328125 325.027344 161.664062 C 325.027344 158.480469 324.003906 155.863281 321.957031 153.703125 C 319.910156 151.542969 316.042969 149.609375 310.46875 147.789062 L 293.976562 142.671875 C 285.671875 140.054688 279.53125 136.1875 275.777344 131.070312 C 272.023438 126.066406 270.089844 120.492188 270.089844 114.578125 C 270.089844 109.800781 271.113281 105.589844 273.164062 101.953125 C 275.210938 98.3125 277.9375 95.128906 281.351562 92.625 C 284.765625 90.007812 288.632812 88.074219 293.179688 86.710938 C 297.730469 85.34375 302.507812 84.777344 307.511719 84.777344 C 310.015625 84.777344 312.628906 84.890625 315.132812 85.230469 C 317.75 85.574219 320.136719 86.027344 322.527344 86.484375 C 324.800781 87.050781 326.960938 87.621094 329.007812 88.300781 C 331.054688 88.984375 332.648438 89.667969 333.785156 90.351562 C 335.378906 91.261719 336.515625 92.167969 337.199219 93.195312 C 337.882812 94.101562 338.222656 95.355469 338.222656 96.945312 L 338.222656 102.292969 C 338.222656 104.679688 337.3125 105.933594 335.605469 105.933594 C 334.695312 105.933594 333.21875 105.476562 331.285156 104.566406 C 324.800781 101.609375 317.519531 100.132812 309.445312 100.132812 C 302.960938 100.132812 297.84375 101.15625 294.316406 103.316406 C 290.792969 105.476562 288.972656 108.777344 288.972656 113.4375 C 288.972656 116.625 290.109375 119.355469 292.382812 121.515625 C 294.660156 123.675781 298.867188 125.835938 304.894531 127.769531 L 321.046875 132.890625 C 329.238281 135.503906 335.152344 139.144531 338.675781 143.808594 C 342.203125 148.472656 343.910156 153.816406 343.910156 159.730469 C 343.910156 164.621094 342.886719 169.058594 340.953125 172.925781 C 338.90625 176.792969 336.175781 180.207031 332.648438 182.933594 C 329.121094 185.777344 324.914062 187.824219 320.023438 189.304688 C 314.90625 190.898438 309.558594 191.691406 303.757812 191.691406 Z M 303.757812 191.691406 " fill-opacity="1" fill-rule="nonzero"/><path fill="#ff9900" d="M 325.253906 246.972656 C 287.835938 274.609375 233.464844 289.28125 186.71875 289.28125 C 121.203125 289.28125 62.171875 265.054688 17.585938 224.792969 C 14.058594 221.605469 17.246094 217.285156 21.453125 219.785156 C 69.679688 247.765625 129.167969 264.714844 190.699219 264.714844 C 232.214844 264.714844 277.824219 256.070312 319.796875 238.328125 C 326.050781 235.484375 331.398438 242.421875 325.253906 246.972656 Z M 325.253906 246.972656 " fill-opacity="1" fill-rule="evenodd"/><path fill="#ff9900" d="M 340.839844 229.226562 C 336.0625 223.085938 309.21875 226.269531 297.046875 227.75 C 293.40625 228.203125 292.839844 225.019531 296.136719 222.628906 C 317.519531 207.617188 352.667969 211.9375 356.761719 216.945312 C 360.855469 222.0625 355.625 257.207031 335.605469 274.042969 C 332.535156 276.65625 329.578125 275.292969 330.941406 271.878906 C 335.492188 260.621094 345.613281 235.257812 340.839844 229.226562 Z M 340.839844 229.226562 " fill-opacity="1" fill-rule="evenodd"/></svg>