<svg xmlns="http://www.w3.org/2000/svg" xmlns:xlink="http://www.w3.org/1999/xlink" width="500" zoomAndPan="magnify" viewBox="0 0 375.12 383.03998" height="500" preserveAspectRatio="xMidYMid meet" version="1.0"><path fill="#ea4b71" d="M 168.6875 194.609375 C 159.710938 194.609375 152.167969 188.46875 150.03125 180.164062 L 127.957031 180.164062 C 123.246094 180.164062 119.230469 183.566406 118.457031 188.210938 L 117.664062 192.960938 C 116.914062 197.46875 114.632812 201.394531 111.40625 204.238281 C 114.632812 207.085938 116.914062 211.007812 117.664062 215.519531 L 118.457031 220.269531 C 119.230469 224.914062 123.246094 228.316406 127.957031 228.316406 L 130.769531 228.316406 C 132.910156 220.007812 140.449219 213.871094 149.425781 213.871094 C 160.0625 213.871094 168.6875 222.492188 168.6875 233.132812 C 168.6875 243.769531 160.0625 252.390625 149.425781 252.390625 C 140.449219 252.390625 132.910156 246.253906 130.769531 237.945312 L 127.957031 237.945312 C 118.539062 237.945312 110.503906 231.140625 108.957031 221.851562 L 108.164062 217.101562 C 107.390625 212.457031 103.375 209.054688 98.667969 209.054688 L 91.035156 209.054688 C 88.898438 217.363281 81.355469 223.5 72.382812 223.5 C 63.40625 223.5 55.863281 217.363281 53.726562 209.054688 L 42.882812 209.054688 C 40.746094 217.363281 33.203125 223.5 24.230469 223.5 C 13.589844 223.5 4.96875 214.878906 4.96875 204.238281 C 4.96875 193.601562 13.589844 184.980469 24.230469 184.980469 C 33.203125 184.980469 40.746094 191.117188 42.882812 199.425781 L 53.726562 199.425781 C 55.863281 191.117188 63.40625 184.980469 72.382812 184.980469 C 81.355469 184.980469 88.898438 191.117188 91.035156 199.425781 L 98.667969 199.425781 C 103.375 199.425781 107.390625 196.019531 108.164062 191.378906 L 108.957031 186.628906 C 110.503906 177.339844 118.539062 170.53125 127.957031 170.53125 L 150.03125 170.53125 C 152.167969 162.226562 159.710938 156.085938 168.6875 156.085938 C 179.324219 156.085938 187.945312 164.710938 187.945312 175.347656 C 187.945312 185.984375 179.324219 194.609375 168.6875 194.609375 Z M 168.6875 184.980469 C 174.003906 184.980469 178.316406 180.667969 178.316406 175.347656 C 178.316406 170.03125 174.003906 165.71875 168.6875 165.71875 C 163.367188 165.71875 159.054688 170.03125 159.054688 175.347656 C 159.054688 180.667969 163.367188 184.980469 168.6875 184.980469 Z M 24.230469 213.871094 C 29.546875 213.871094 33.859375 209.558594 33.859375 204.238281 C 33.859375 198.921875 29.546875 194.609375 24.230469 194.609375 C 18.910156 194.609375 14.597656 198.921875 14.597656 204.238281 C 14.597656 209.558594 18.910156 213.871094 24.230469 213.871094 Z M 82.011719 204.238281 C 82.011719 209.558594 77.699219 213.871094 72.382812 213.871094 C 67.0625 213.871094 62.75 209.558594 62.75 204.238281 C 62.75 198.921875 67.0625 194.609375 72.382812 194.609375 C 77.699219 194.609375 82.011719 198.921875 82.011719 204.238281 Z M 159.054688 233.132812 C 159.054688 238.449219 154.742188 242.761719 149.425781 242.761719 C 144.105469 242.761719 139.792969 238.449219 139.792969 233.132812 C 139.792969 227.8125 144.105469 223.5 149.425781 223.5 C 154.742188 223.5 159.054688 227.8125 159.054688 233.132812 Z M 159.054688 233.132812 " fill-opacity="1" fill-rule="evenodd"/><path fill="#ffffff" d="M 303.527344 197.730469 L 303.527344 197.269531 C 306.886719 195.585938 310.246094 192.679688 310.246094 186.945312 C 310.246094 178.683594 303.449219 173.710938 294.058594 173.710938 C 284.433594 173.710938 277.5625 178.988281 277.5625 187.097656 C 277.5625 192.605469 280.769531 195.585938 284.28125 197.269531 L 284.28125 197.730469 C 280.386719 199.105469 275.730469 203.238281 275.730469 210.121094 C 275.730469 218.457031 282.601562 224.269531 293.980469 224.269531 C 305.359375 224.269531 312.003906 218.457031 312.003906 210.121094 C 312.003906 203.238281 307.421875 199.183594 303.527344 197.730469 Z M 293.980469 180.75 C 297.800781 180.75 300.625 183.195312 300.625 187.328125 C 300.625 191.457031 297.722656 193.90625 293.980469 193.90625 C 290.238281 193.90625 287.105469 191.457031 287.105469 187.328125 C 287.105469 183.121094 290.085938 180.75 293.980469 180.75 Z M 293.980469 216.929688 C 289.550781 216.929688 285.960938 214.097656 285.960938 209.277344 C 285.960938 204.917969 288.941406 201.628906 293.902344 201.628906 C 298.792969 201.628906 301.769531 204.84375 301.769531 209.433594 C 301.769531 214.097656 298.332031 216.929688 293.980469 216.929688 Z M 293.980469 216.929688 " fill-opacity="1" fill-rule="evenodd"/><path fill="#ffffff" d="M 323.785156 223.507812 L 333.558594 223.507812 L 333.558594 202.777344 C 333.558594 195.96875 337.683594 192.988281 342.34375 192.988281 C 346.925781 192.988281 350.511719 196.046875 350.511719 202.320312 L 350.511719 223.507812 L 360.289062 223.507812 L 360.289062 200.328125 C 360.289062 190.308594 354.484375 184.496094 345.398438 184.496094 C 339.667969 184.496094 336.460938 186.789062 334.171875 189.773438 L 333.558594 189.773438 L 332.71875 185.261719 L 323.785156 185.261719 Z M 323.785156 223.507812 " fill-opacity="1" fill-rule="nonzero"/><path fill="#ffffff" d="M 237.253906 223.507812 L 227.480469 223.507812 L 227.480469 185.261719 L 236.414062 185.261719 L 237.253906 189.773438 L 237.867188 189.773438 C 240.15625 186.789062 243.363281 184.496094 249.09375 184.496094 C 258.179688 184.496094 263.984375 190.308594 263.984375 200.328125 L 263.984375 223.507812 L 254.207031 223.507812 L 254.207031 202.320312 C 254.207031 196.046875 250.621094 192.988281 246.039062 192.988281 C 241.378906 192.988281 237.253906 195.96875 237.253906 202.777344 Z M 237.253906 223.507812 " fill-opacity="1" fill-rule="nonzero"/></svg>