<svg xmlns="http://www.w3.org/2000/svg" xmlns:xlink="http://www.w3.org/1999/xlink" width="500" zoomAndPan="magnify" viewBox="0 0 375.12 383.03998" height="500" preserveAspectRatio="xMidYMid meet" version="1.0"><defs><clipPath id="9dd461702f"><path d="M 12 139.464844 L 107 139.464844 L 107 234.476562 L 12 234.476562 Z M 12 139.464844 " clip-rule="nonzero"/></clipPath></defs><path fill="#ffffff" d="M 120.898438 185.199219 C 120.898438 200.753906 130.886719 211.597656 144.726562 211.597656 C 158.570312 211.597656 168.558594 200.753906 168.558594 185.199219 C 168.558594 169.644531 158.570312 158.800781 144.726562 158.800781 C 130.886719 158.800781 120.898438 169.644531 120.898438 185.199219 Z M 159.425781 185.199219 C 159.425781 196.328125 153.359375 203.535156 144.726562 203.535156 C 136.09375 203.535156 130.03125 196.328125 130.03125 185.199219 C 130.03125 174.070312 136.09375 166.863281 144.726562 166.863281 C 153.359375 166.863281 159.425781 174.070312 159.425781 185.199219 Z M 159.425781 185.199219 " fill-opacity="1" fill-rule="nonzero"/><path fill="#ffffff" d="M 194.273438 211.597656 C 204.761719 211.597656 210.757812 202.75 210.757812 192.121094 C 210.757812 181.488281 204.761719 172.640625 194.273438 172.640625 C 189.421875 172.640625 185.855469 174.570312 183.5 177.351562 L 183.5 173.355469 L 174.941406 173.355469 L 174.941406 223.65625 L 183.5 223.65625 L 183.5 206.890625 C 185.855469 209.671875 189.421875 211.597656 194.273438 211.597656 Z M 183.289062 191.050781 C 183.289062 183.988281 187.28125 180.132812 192.5625 180.132812 C 198.769531 180.132812 202.125 184.984375 202.125 192.121094 C 202.125 199.253906 198.769531 204.105469 192.5625 204.105469 C 187.28125 204.105469 183.289062 200.183594 183.289062 193.261719 Z M 183.289062 191.050781 " fill-opacity="1" fill-rule="nonzero"/><path fill="#ffffff" d="M 233.925781 211.597656 C 241.417969 211.597656 247.339844 207.671875 249.980469 201.109375 L 242.628906 198.328125 C 241.488281 202.179688 238.136719 204.320312 233.925781 204.320312 C 228.433594 204.320312 224.578125 200.394531 223.9375 193.976562 L 250.191406 193.976562 L 250.191406 191.121094 C 250.191406 180.847656 244.414062 172.640625 233.570312 172.640625 C 222.726562 172.640625 215.734375 181.132812 215.734375 192.121094 C 215.734375 203.679688 223.222656 211.597656 233.925781 211.597656 Z M 233.496094 179.847656 C 238.921875 179.847656 241.488281 183.414062 241.558594 187.554688 L 224.367188 187.554688 C 225.648438 182.488281 229.074219 179.847656 233.496094 179.847656 Z M 233.496094 179.847656 " fill-opacity="1" fill-rule="nonzero"/><path fill="#ffffff" d="M 256.617188 210.8125 L 265.179688 210.8125 L 265.179688 188.839844 C 265.179688 183.488281 269.101562 180.632812 272.957031 180.632812 C 277.664062 180.632812 279.519531 183.988281 279.519531 188.625 L 279.519531 210.8125 L 288.082031 210.8125 L 288.082031 186.128906 C 288.082031 178.066406 283.371094 172.640625 275.523438 172.640625 C 270.671875 172.640625 267.320312 174.855469 265.179688 177.351562 L 265.179688 173.355469 L 256.617188 173.355469 Z M 256.617188 210.8125 " fill-opacity="1" fill-rule="nonzero"/><path fill="#ffffff" d="M 313.15625 159.585938 L 293.75 210.8125 L 302.8125 210.8125 L 307.164062 199.113281 L 329.28125 199.113281 L 333.703125 210.8125 L 342.90625 210.8125 L 323.5 159.585938 Z M 318.152344 169.71875 L 326.285156 191.121094 L 310.160156 191.121094 Z M 318.152344 169.71875 " fill-opacity="1" fill-rule="nonzero"/><path fill="#ffffff" d="M 357.605469 159.734375 L 348.472656 159.734375 L 348.472656 210.960938 L 357.605469 210.960938 Z M 357.605469 159.734375 " fill-opacity="1" fill-rule="nonzero"/><g clip-path="url(#9dd461702f)"><path fill="#ffffff" d="M 99.976562 178.402344 C 102.132812 171.921875 101.390625 164.828125 97.9375 158.933594 C 92.75 149.898438 82.316406 145.25 72.125 147.4375 C 67.589844 142.328125 61.078125 139.425781 54.25 139.464844 C 43.832031 139.441406 34.589844 146.148438 31.386719 156.058594 C 24.691406 157.429688 18.917969 161.621094 15.539062 167.554688 C 10.308594 176.570312 11.5 187.929688 18.484375 195.660156 C 16.328125 202.136719 17.070312 209.234375 20.523438 215.125 C 25.714844 224.164062 36.148438 228.8125 46.339844 226.625 C 50.867188 231.730469 57.386719 234.636719 64.214844 234.59375 C 74.636719 234.617188 83.882812 227.90625 87.085938 217.984375 C 93.777344 216.617188 99.554688 212.425781 102.933594 206.492188 C 108.15625 197.476562 106.960938 186.125 99.980469 178.394531 Z M 64.21875 228.375 C 60.046875 228.382812 56.007812 226.921875 52.808594 224.25 C 52.953125 224.171875 53.207031 224.03125 53.367188 223.933594 L 72.3125 212.992188 C 73.28125 212.441406 73.875 211.410156 73.867188 210.296875 L 73.867188 183.589844 L 81.875 188.214844 C 81.960938 188.253906 82.015625 188.339844 82.027344 188.433594 L 82.027344 210.546875 C 82.015625 220.382812 74.054688 228.355469 64.21875 228.375 Z M 25.917969 212.015625 C 23.828125 208.40625 23.074219 204.175781 23.792969 200.074219 C 23.933594 200.15625 24.179688 200.308594 24.355469 200.410156 L 43.296875 211.347656 C 44.257812 211.910156 45.445312 211.910156 46.410156 211.347656 L 69.535156 197.996094 L 69.535156 207.238281 C 69.539062 207.335938 69.496094 207.425781 69.421875 207.488281 L 50.273438 218.542969 C 41.746094 223.453125 30.851562 220.535156 25.921875 212.015625 Z M 20.933594 170.667969 C 23.011719 167.054688 26.296875 164.289062 30.210938 162.851562 C 30.210938 163.015625 30.203125 163.304688 30.203125 163.507812 L 30.203125 185.390625 C 30.195312 186.5 30.789062 187.53125 31.757812 188.082031 L 54.882812 201.433594 L 46.875 206.054688 C 46.796875 206.109375 46.695312 206.117188 46.605469 206.082031 L 27.453125 195.015625 C 18.945312 190.085938 16.023438 179.199219 20.929688 170.671875 Z M 86.707031 185.976562 L 63.582031 172.621094 L 71.589844 168.003906 C 71.667969 167.949219 71.769531 167.941406 71.859375 167.976562 L 91.011719 179.035156 C 99.535156 183.960938 102.457031 194.867188 97.53125 203.394531 C 95.449219 207 92.167969 209.765625 88.257812 211.207031 L 88.257812 188.667969 C 88.265625 187.558594 87.675781 186.527344 86.710938 185.976562 Z M 94.675781 173.984375 C 94.535156 173.898438 94.289062 173.75 94.113281 173.648438 L 75.171875 162.707031 C 74.210938 162.144531 73.023438 162.144531 72.058594 162.707031 L 48.933594 176.0625 L 48.933594 166.816406 C 48.925781 166.722656 48.972656 166.628906 49.046875 166.570312 L 68.195312 155.523438 C 76.722656 150.601562 87.625 153.53125 92.542969 162.0625 C 94.621094 165.664062 95.375 169.882812 94.667969 173.984375 Z M 44.582031 190.460938 L 36.574219 185.839844 C 36.484375 185.796875 36.429688 185.714844 36.417969 185.617188 L 36.417969 163.503906 C 36.425781 153.660156 44.410156 145.679688 54.257812 145.683594 C 58.421875 145.683594 62.453125 147.148438 65.65625 149.8125 C 65.507812 149.890625 65.257812 150.027344 65.09375 150.128906 L 46.152344 161.070312 C 45.179688 161.621094 44.585938 162.648438 44.59375 163.761719 L 44.582031 190.457031 Z M 48.929688 181.085938 L 59.230469 175.136719 L 69.53125 181.082031 L 69.53125 192.976562 L 59.230469 198.921875 L 48.929688 192.976562 Z M 48.929688 181.085938 " fill-opacity="1" fill-rule="nonzero"/></g></svg>