<svg xmlns="http://www.w3.org/2000/svg" xmlns:xlink="http://www.w3.org/1999/xlink" width="500" zoomAndPan="magnify" viewBox="0 0 375.12 383.03998" height="500" preserveAspectRatio="xMidYMid meet" version="1.0"><defs><clipPath id="a79afda99d"><path d="M 8.648438 144.210938 L 109 144.210938 L 109 229.5 L 8.648438 229.5 Z M 8.648438 144.210938 " clip-rule="nonzero"/></clipPath><clipPath id="7cf4e6b43d"><path d="M 103 155 L 365.503906 155 L 365.503906 214 L 103 214 Z M 103 155 " clip-rule="nonzero"/></clipPath></defs><g clip-path="url(#a79afda99d)"><path stroke-linecap="butt" transform="matrix(2.378803, 0, 0, 2.378803, 8.863667, 144.212418)" fill="none" stroke-linejoin="miter" d="M 23.565716 1.398453 L 14.071053 10.901326 L 23.565716 10.901326 L 23.565716 1.398453 L 23.565716 3.99955 Z M 14.069411 10.901326 L 4.574748 1.398453 L 4.574748 10.901326 Z M 14.049706 -0.000622454 L 14.049706 35.999291 M 23.565716 20.4042 L 14.071053 10.899684 L 14.071053 24.524247 L 23.565716 34.028762 Z M 4.574748 20.4042 L 14.071053 10.899684 L 14.071053 24.524247 L 4.574748 34.028762 Z M 0.500681 10.899684 L 0.500681 24.470057 L 4.574748 24.470057 L 4.574748 20.4042 L 14.069411 10.899684 Z M 14.069411 10.899684 L 23.565716 20.4042 L 23.565716 24.470057 L 27.639784 24.470057 L 27.639784 10.899684 Z M 14.069411 10.899684 " stroke="#20808d" stroke-width="1" stroke-opacity="1" stroke-miterlimit="10"/></g><g clip-path="url(#7cf4e6b43d)"><path fill="#ffffff" d="M 140.792969 175.203125 C 142.203125 172.566406 144.175781 170.535156 146.71875 169.105469 C 149.257812 167.679688 152.234375 166.964844 155.648438 166.964844 C 159.066406 166.964844 161.894531 167.667969 164.261719 169.074219 C 166.628906 170.480469 168.402344 172.339844 169.574219 174.660156 C 170.75 176.984375 171.335938 179.527344 171.335938 182.289062 L 171.335938 186.121094 L 144.761719 186.121094 C 144.976562 189.441406 146.097656 192.082031 148.125 194.039062 C 150.148438 196 152.871094 196.976562 156.289062 196.976562 C 159.0625 196.976562 161.191406 196.414062 162.660156 195.285156 C 164.136719 194.15625 165.210938 192.59375 165.894531 190.59375 L 171.980469 190.59375 C 171.167969 193.699219 169.515625 196.394531 167.019531 198.671875 C 164.523438 200.949219 160.945312 202.085938 156.292969 202.085938 C 152.789062 202.085938 149.707031 201.371094 147.035156 199.949219 C 144.371094 198.523438 142.308594 196.488281 140.855469 193.847656 C 139.40625 191.207031 138.679688 188.101562 138.679688 184.523438 C 138.679688 180.945312 139.382812 177.839844 140.792969 175.199219 Z M 164.933594 181.332031 C 164.933594 178.4375 164.1875 176.171875 162.695312 174.53125 C 161.199219 172.890625 158.851562 172.074219 155.648438 172.074219 C 152.660156 172.074219 150.214844 172.871094 148.316406 174.464844 C 146.414062 176.0625 145.253906 178.351562 144.828125 181.332031 Z M 179.320312 167.921875 L 179.320312 173.222656 C 179.320312 173.523438 179.46875 173.667969 179.769531 173.667969 C 179.941406 173.667969 180.066406 173.625 180.152344 173.539062 C 180.242188 173.453125 180.324219 173.285156 180.410156 173.03125 C 181.515625 169.542969 184.273438 167.796875 188.671875 167.796875 L 191.488281 167.796875 L 191.488281 173.539062 L 187.835938 173.539062 C 184.972656 173.539062 182.839844 174.222656 181.429688 175.585938 C 180.019531 176.945312 179.3125 179.179688 179.3125 182.289062 L 179.3125 201.128906 L 173.550781 201.128906 L 173.550781 167.917969 L 179.320312 167.917969 Z M 225.328125 194.132812 C 223.816406 196.792969 221.851562 198.785156 219.4375 200.101562 C 217.027344 201.421875 214.429688 202.082031 211.65625 202.082031 C 206.191406 202.082031 202.347656 199.910156 200.128906 195.570312 C 199.957031 195.230469 199.742188 195.058594 199.488281 195.058594 C 199.234375 195.058594 199.105469 195.1875 199.105469 195.441406 L 199.105469 213.257812 L 193.339844 213.257812 L 193.339844 167.925781 L 199.105469 167.925781 L 199.105469 173.605469 C 199.105469 173.863281 199.230469 173.992188 199.488281 173.992188 C 199.746094 173.992188 199.957031 173.820312 200.128906 173.480469 C 202.347656 169.136719 206.191406 166.96875 211.65625 166.96875 C 214.429688 166.96875 217.027344 167.628906 219.4375 168.945312 C 221.851562 170.265625 223.8125 172.257812 225.328125 174.917969 C 226.84375 177.578125 227.605469 180.785156 227.605469 184.527344 C 227.605469 188.269531 226.84375 191.472656 225.328125 194.136719 Z M 218.667969 175.359375 C 216.554688 173.167969 213.769531 172.070312 210.3125 172.070312 C 206.855469 172.070312 204.066406 173.167969 201.957031 175.359375 C 199.839844 177.554688 199.066406 180.609375 199.066406 184.523438 C 199.066406 188.4375 199.839844 191.496094 201.957031 193.6875 C 204.070312 195.878906 206.855469 196.976562 210.3125 196.976562 C 213.769531 196.976562 216.558594 195.882812 218.667969 193.6875 C 220.785156 191.492188 221.839844 188.4375 221.839844 184.523438 C 221.839844 180.609375 220.785156 177.554688 218.667969 175.359375 Z M 235.96875 155.148438 L 235.96875 201.125 L 230.203125 201.125 L 230.203125 155.15625 L 235.96875 155.15625 Z M 240.714844 175.199219 C 242.121094 172.5625 244.097656 170.53125 246.640625 169.101562 C 249.175781 167.675781 252.15625 166.964844 255.570312 166.964844 C 258.984375 166.964844 261.816406 167.664062 264.183594 169.070312 C 266.550781 170.476562 268.324219 172.339844 269.496094 174.660156 C 270.671875 176.980469 271.257812 179.523438 271.257812 182.289062 L 271.257812 186.117188 L 244.683594 186.117188 C 244.898438 189.4375 246.019531 192.078125 248.046875 194.035156 C 250.070312 195.996094 252.792969 196.972656 256.210938 196.972656 C 258.984375 196.972656 261.109375 196.410156 262.582031 195.28125 C 264.058594 194.15625 265.132812 192.59375 265.816406 190.589844 L 271.902344 190.589844 C 271.089844 193.695312 269.433594 196.390625 266.941406 198.667969 C 264.445312 200.945312 260.867188 202.082031 256.214844 202.082031 C 252.710938 202.082031 249.628906 201.371094 246.957031 199.945312 C 244.292969 198.519531 242.230469 196.488281 240.777344 193.847656 C 239.328125 191.207031 238.601562 188.097656 238.601562 184.519531 C 238.601562 180.945312 239.304688 177.839844 240.714844 175.199219 Z M 264.855469 181.328125 C 264.855469 178.433594 264.109375 176.167969 262.617188 174.527344 C 261.121094 172.890625 258.773438 172.070312 255.570312 172.070312 C 252.585938 172.070312 250.136719 172.867188 248.238281 174.464844 C 246.335938 176.058594 245.175781 178.351562 244.75 181.328125 Z M 268.691406 199.847656 L 281.882812 183.5625 L 271.0625 169.195312 L 271.0625 167.917969 L 277.402344 167.917969 L 286.433594 180.304688 L 296.167969 167.917969 L 302.632812 167.917969 L 302.632812 169.261719 L 290.210938 184.523438 L 301.675781 199.847656 L 301.675781 201.125 L 295.464844 201.125 L 285.664062 187.78125 L 275.164062 201.125 L 268.699219 201.125 L 268.699219 199.847656 Z M 311.003906 157.113281 L 311.003906 164.300781 L 304.269531 164.300781 L 304.269531 157.113281 Z M 310.652344 201.128906 L 304.886719 201.128906 L 304.886719 167.921875 L 310.652344 167.921875 Z M 312.46875 167.921875 L 318.742188 167.921875 L 318.742188 158.980469 L 324.507812 158.980469 L 324.507812 167.921875 L 331.105469 167.921875 L 332.726562 172.789062 L 324.507812 172.789062 L 324.507812 188.675781 C 324.507812 190.84375 324.453125 192.453125 324.34375 193.496094 C 324.238281 194.539062 324.1875 195.167969 324.1875 195.378906 C 324.1875 195.679688 324.269531 195.914062 324.441406 196.082031 C 324.613281 196.253906 324.84375 196.335938 325.148438 196.335938 C 325.359375 196.335938 325.988281 196.285156 327.035156 196.175781 C 328.078125 196.070312 329.691406 196.019531 331.871094 196.019531 L 334.113281 196.019531 L 334.113281 201.125 L 329.632812 201.125 C 325.957031 201.125 323.226562 200.234375 321.433594 198.441406 C 319.640625 196.652344 318.742188 193.933594 318.742188 190.269531 L 318.742188 172.785156 L 312.476562 172.785156 L 312.476562 167.917969 L 312.46875 167.917969 Z M 332.84375 167.921875 L 338.71875 167.921875 L 348.257812 195.78125 C 348.390625 196.121094 348.59375 196.574219 349.246094 196.574219 C 349.902344 196.574219 350.101562 196.121094 350.230469 195.78125 L 359.773438 167.921875 L 365.253906 167.921875 L 365.253906 169.199219 L 353.316406 205.023438 C 352.292969 208.089844 350.851562 210.226562 348.996094 211.441406 C 347.140625 212.652344 344.980469 213.257812 341.390625 213.257812 L 335.246094 213.257812 L 335.246094 208.152344 L 339.921875 208.152344 C 341.414062 208.152344 342.632812 208.203125 343.570312 208.3125 C 344.507812 208.417969 345.109375 208.472656 345.363281 208.472656 C 346.089844 208.472656 346.578125 208.152344 346.839844 207.515625 L 348.632812 202.660156 C 348.847656 202.152344 348.867188 201.769531 348.695312 201.511719 C 348.613281 201.339844 348.507812 201.230469 348.378906 201.191406 C 348.25 201.148438 348.058594 201.128906 347.800781 201.128906 L 343.898438 201.128906 L 332.847656 167.925781 L 332.84375 167.925781 Z M 135.015625 194.1875 C 133.5 196.847656 131.535156 198.839844 129.125 200.15625 C 126.710938 201.476562 124.117188 202.136719 121.34375 202.136719 C 115.878906 202.136719 112.035156 199.96875 109.816406 195.625 C 109.644531 195.285156 109.429688 195.113281 109.175781 195.113281 C 108.921875 195.113281 108.789062 195.242188 108.789062 195.496094 L 108.789062 213.3125 L 103.027344 213.3125 L 103.027344 167.980469 L 108.789062 167.980469 L 108.789062 173.660156 C 108.789062 173.917969 108.917969 174.046875 109.175781 174.046875 C 109.433594 174.046875 109.644531 173.875 109.816406 173.535156 C 112.03125 169.191406 115.878906 167.023438 121.34375 167.023438 C 124.117188 167.023438 126.710938 167.683594 129.125 169 C 131.535156 170.320312 133.5 172.3125 135.015625 174.96875 C 136.53125 177.628906 137.289062 180.835938 137.289062 184.582031 C 137.289062 188.324219 136.53125 191.527344 135.015625 194.1875 Z M 128.355469 175.414062 C 126.242188 173.222656 123.457031 172.125 120 172.125 C 116.542969 172.125 113.753906 173.222656 111.640625 175.414062 C 109.527344 177.609375 108.753906 180.664062 108.753906 184.578125 C 108.753906 188.492188 109.527344 191.550781 111.640625 193.742188 C 113.757812 195.933594 116.542969 197.03125 120 197.03125 C 123.457031 197.03125 126.242188 195.9375 128.355469 193.742188 C 130.46875 191.546875 131.527344 188.492188 131.527344 184.578125 C 131.527344 180.664062 130.46875 177.609375 128.355469 175.414062 Z M 128.355469 175.414062 " fill-opacity="1" fill-rule="nonzero"/></g></svg>